<svg width="20" height="20" viewBox="0 0 20 20" fill="none" xmlns="http://www.w3.org/2000/svg">
<path d="M17.5951 20C18.5481 20 19.3211 19.227 19.3211 18.274V1.72597C19.3211 0.773006 18.5481 0 17.5951 0H14.9857V10.319C14.9857 10.5849 14.6708 10.7239 14.4744 10.5481L12.7321 8.9775C12.6176 8.87117 12.4376 8.87117 12.3231 8.9775L10.5808 10.5481C10.3845 10.7239 10.0695 10.5849 10.0695 10.319V0H3.79141C2.83845 0 2.06544 0.773006 2.06544 1.72597V3.89366H1.23926C0.556237 3.89366 0 4.4499 0 5.13292C0 5.81595 0.556237 6.37219 1.23926 6.37219H2.06544V8.76074H1.23926C0.556237 8.76074 0 9.31697 0 10C0 10.683 0.556237 11.2393 1.23926 11.2393H2.06544V13.6278H1.23926C0.556237 13.6278 0 14.184 0 14.8671C0 15.5501 0.556237 16.1063 1.23926 16.1063H2.06544V18.274C2.06544 19.227 2.83845 20 3.79141 20H17.5951Z" fill="#19793F"/>
</svg>
