<svg fill="none" height="467" viewBox="0 0 1440 467" width="1440" xmlns="http://www.w3.org/2000/svg" xmlns:xlink="http://www.w3.org/1999/xlink"><linearGradient id="a" gradientUnits="userSpaceOnUse" x1="50.1287" x2="779.164" y1="-8.32988" y2="406.895"><stop offset="0" stop-color="#19793f"/><stop offset="1" stop-color="#3a484e"/></linearGradient><path d="m1040.37 447.697c111.89 0 202.59-51.166 202.59-114.283s-90.7-114.283-202.59-114.283c-111.882 0-202.582 51.166-202.582 114.283s90.7 114.283 202.582 114.283z" fill="#fafafa"/><path d="m1236.18 213.525-2.17 1.288-73.53-42.451 2.16-1.288z" fill="#fafafa"/><path d="m1162.64 171.074 71.37 41.198v-124.4007l-71.37-41.1807z" fill="#fff"/><path d="m1156.4 174.727 81.69 47.164v-136.3761l-81.69-47.1638zm4.08-129.2978 73.53 42.4509v126.9329l-73.53-42.451z" fill="#f0f0f0"/><path d="m1160.48 172.362 2.16-1.288v-124.3834l-2.16-1.2702z" fill="#e0e0e0"/><path d="m1234.01 182.777v2.541l-73.53-42.451 2.16-1.288z" fill="#fafafa"/><path d="m1234.01 110.13v2.541l-73.53-42.4511 2.16-1.2964z" fill="#fafafa"/><path d="m1156.4 38.3511 2.2-1.2527 81.68 47.1638-2.19 1.2527z" fill="#fafafa"/><path d="m1240.28 84.2622-2.19 1.2527v136.3671l2.19-1.262z" fill="#e0e0e0"/><path d="m1202.56 69.7119-2.2-1.2702v126.9503l2.2-1.253z" fill="#e0e0e0"/><path d="m1196.29 66.1028 4.07 2.3389v126.9503l-4.07-2.357z" fill="#f0f0f0"/><path d="m1156.4 67.8635v4.7041l81.69 47.1634v-4.704z" fill="#f0f0f0"/><path d="m1156.4 140.501v4.705l81.69 47.163v-4.704z" fill="#f0f0f0"/><path d="m1200.36 93.2412 2.2-1.2702 31.45 18.16v2.54z" fill="#fafafa"/><path d="m1200.36 165.87 2.2-1.27 31.45 18.151v2.54z" fill="#fafafa"/><path d="m870.77 368.323c-.056-.04-.103-.09-.138-.149s-.056-.125-.064-.193c-1.752-18.869-17.791-32.526-24.65-38.36-1.104-.937-1.98-1.682-2.541-2.234-2.514-2.453-3.609-5.676-2.917-8.62.357-1.344 1.06-2.572 2.039-3.56s2.2-1.703 3.541-2.072c7.157-2.339 18.396 6.543 25.571 20.2 10.065 19.15 5.343 33.288 5.256 33.411-.026.073-.068.138-.125.19-.056.052-.125.089-.2.108l-5.422 1.393c-.063.017-.13.017-.193 0-.061-.024-.116-.063-.157-.114zm0-34.593c-7.008-13.272-17.713-21.9-24.458-19.754-1.195.322-2.283.954-3.153 1.833-.871.878-1.494 1.972-1.805 3.169-.266 1.407-.164 2.86.297 4.217.46 1.356 1.263 2.571 2.331 3.527.543.525 1.41 1.261 2.496 2.19 6.886 5.851 22.899 19.473 24.922 38.438l4.643-1.191c.605-1.875 3.898-14.988-5.256-32.412z" fill="#19793f"/><path d="m874.046 367.631h.061c.062.001.124-.01.182-.033s.111-.057.155-.1c.045-.043.081-.094.106-.151.024-.057.038-.118.039-.181.403-22.04-14.892-43.283-25.124-47.654-.116-.049-.247-.049-.363-.002-.117.048-.21.14-.259.256-.048.116-.049.247-.001.364.047.116.139.209.255.258 10.153 4.327 24.931 25.877 24.528 46.778 0 .116.043.228.121.314.077.086.184.14.3.151z" fill="#19793f"/><path d="m876.394 367.026c.066.013.135.013.201 0l3.679-1.112c.072-.025.138-.065.192-.118.055-.053.097-.118.124-.189.061-.21 6.552-21.278 1.752-49.643-2.436-14.454-10.863-28.549-20.035-33.524-4.38-2.383-8.76-2.681-12.877-.876-2.347 1.016-3.81 2.523-4.38 4.459-1.524 5.369 4.047 13.359 9.952 21.821 4.126 5.921 8.392 12.036 10.345 17.441.042.116.128.211.24.263.112.053.24.059.356.017s.211-.128.263-.24c.053-.111.059-.239.017-.355-1.988-5.519-6.289-11.695-10.45-17.661-5.773-8.278-11.222-16.083-9.829-21.024.482-1.682 1.752-2.943 3.828-3.863 3.863-1.682 7.884-1.393 12.062.876 8.944 4.844 17.17 18.659 19.562 32.85 4.467 26.543-.982 46.586-1.674 48.969l-3.442 1.033c-.118.039-.216.121-.273.231-.058.11-.07.238-.034.356.034.084.092.156.167.208.075.051.163.079.254.081z" fill="#19793f"/><path d="m877.305 353.615c.122.007.243-.034.336-.114s.152-.193.163-.316c2.777-34.102-16.25-61.407-21.9-66.094-.097-.08-.221-.118-.346-.107-.124.012-.24.072-.32.169-.039.047-.069.101-.087.16-.018.058-.025.12-.019.181.005.061.023.12.052.175.029.054.068.102.115.141 5.546 4.616 24.292 31.536 21.55 65.297-.007.064-.001.129.018.19.02.062.052.118.095.166s.096.087.155.113.123.039.188.039z" fill="#19793f"/><path d="m844.665 96.1057 1.55.8935 38.693-22.3467-1.55-.8935z" fill="#f0f0f0"/><path d="m883.358 73.759-37.143 21.4445v-32.193l37.143-21.4445z" fill="#fafafa"/><path d="m886.459 37.9919-41.794 24.1251v37.5541l41.794-24.1251zm-1.551 36.6606-38.693 22.338v-33.98l38.693-22.3117z" fill="#ebebeb"/><path d="m884.908 74.6525-1.55-.8935v-32.193l1.55-.8935z" fill="#e0e0e0"/><path d="m886.459 37.9919-1.551-.8935-41.794 24.125 1.551.8936z" fill="#f5f5f5"/><path d="m843.114 61.2234 1.551.8935v37.5629l-1.551-.8935z" fill="#e0e0e0"/><path d="m876.078 68.3453c1.437-.876 2.628-.1577 2.628 1.5067-.051.9085-.315 1.7921-.772 2.579-.456.787-1.092 1.4551-1.856 1.9499-1.445.876-2.628.1577-2.628-1.5067.051-.9084.315-1.792.772-2.579s1.093-1.455 1.856-1.9499z" fill="#e0e0e0"/><path d="m854.967 61.5475 19.666-11.388c.552-.3153.99-.0613.99.5694v.0614c-.013.35-.109.692-.281.9969-.172.305-.416.564-.709.7551l-19.666 11.388c-.552.3241-.99.0613-.99-.5694v-.0614c.01-.3503.106-.6928.279-.998.172-.3052.416-.564.711-.754z" fill="#e0e0e0"/><path d="m851.848 70.4827 25.895-14.892c.543-.3153.989-.1752.989.3242-.046.2974-.159.5804-.33.8277-.172.2474-.397.4526-.659.6001l-25.912 14.9534c-.552.3153-.99.1664-.982-.3329.043-.3065.155-.5992.328-.8558s.403-.4702.671-.6247z" fill="#f0f0f0"/><path d="m851.848 74.0656 25.895-14.9709c.543-.3153.989-.1751.989.3154-.039.3052-.15.5969-.321.8523-.172.2554-.401.4674-.668.6194l-25.912 14.9796c-.552.3241-.99.1752-.982-.3241.044-.305.157-.5959.33-.8509s.402-.4673.669-.6208z" fill="#f0f0f0"/><path d="m851.848 77.6397 25.895-14.9533c.543-.3154.989-.1665.989.3241-.041.3036-.151.5936-.323.8474-.172.2537-.4.4644-.666.6155l-25.912 14.9621c-.552.3153-.99.1664-.982-.3241.044-.305.157-.596.33-.8509.173-.255.402-.4673.669-.6208z" fill="#f0f0f0"/><path d="m871.427 75.9928c-.199.108-.422.1652-.649.1664-.551 0-.499-.5606-.481-.946 0-.184-.237-.4468-.368-.219-.333.6044-.762 1.165-1.122 1.752-.219.3591-.639 1.1738-1.173 1.0599-.219-.0525-.29-.2891-.29-.5869.267-.4933.385-1.0529.342-1.6119 0-.1664-.306-.3766-.394-.1489-.183.4776-.295.9793-.333 1.4892-.246.435-.524.8509-.832 1.244-.184.2365-.342.508-.543.727 0 .0526-.14.1928-.211.2103-.07.0175-.166-.0789-.192-.2015-.005-.1821.024-.3635.087-.5344v-.0438c0-.1752-.227-.438-.324-.219-.34.9368-.858 1.7992-1.524 2.5404l-.096.0789c0-.0964 0-.2015 0-.3066-.006-.2385-.047-.4748-.123-.7008 0-.1139-.237-.2891-.342-.1402-.485.862-1.074 1.6621-1.752 2.3827-.114.0919-.234.1768-.359.2541-.122-.0701.062-.7008.088-.7884.07-.2891.166-.5607.254-.876.094-.2228.164-.4548.21-.6921 0-.2102-.333-.5343-.403-.254 0 .1226-.131.403-.236.7534-.418.8581-.905 1.6813-1.455 2.4615-.498.8096-1.194 1.4788-2.023 1.9447-.228.1227-.657.3066-.876.1227-.219-.184-.228-.4994-.237-.7271-.002-.5927.081-1.1827.246-1.752.812-.4306 1.565-.9635 2.242-1.5856.666-.5267 1.241-1.1602 1.7-1.8746.227-.4205.368-1.1038-.193-1.3403-.211-.0378-.427-.0316-.635.0181-.208.0498-.403.142-.574.271-.458.2577-.874.5825-1.235.9636-.722.8104-1.25 1.7753-1.542 2.8207-.052.1577-.114.3767-.175.6132-.88.4497-1.877.6179-2.856.4818-.052 0-.07.1139 0 .1226.934.1993 1.906.1076 2.786-.2627-.245 1.0774-.386 2.5053.622 2.7856 1.007.2804 2.225-.9811 2.768-1.752.409-.5515.77-1.1377 1.077-1.752.028-.0472.06-.0913.097-.1314 0 .4994.096.876.587.7884.49-.0876.955-.7971 1.226-1.1738.272-.3767.499-.7446.736-1.1125.044.4467.131.9636.561.876.429-.0876.788-.876.989-1.1388.202-.2628.342-.5344.491-.8147.024.0546.056.1049.096.1489.36.3855.789 0 1.017-.3329.227-.3329.7-.876 1.007-1.3753.077.2094.23.3817.429.4818.552.2628 1.078-.1927 1.393-.6044.392-.5286.741-1.0882 1.042-1.6732.022.1105.068.2147.135.3055.067.0909.152.166.251.2201.203.1038.431.1513.659.1374.228-.0138.448-.0885.637-.2162.123-.0526-.043-.4293-.227-.3329zm-12.115 2.1637c.254-.1314.788-.3504.823.0788-.041.2824-.163.547-.35.7622-.442.588-.948 1.1256-1.507 1.6031-.577.5326-1.201 1.0106-1.866 1.4278.19-.8104.546-1.5728 1.045-2.2391.499-.6664 1.13-1.2223 1.855-1.6328z" fill="#e0e0e0"/><path d="m844.665 147.448 1.55.894 38.693-22.338-1.55-.903z" fill="#f0f0f0"/><path d="m883.358 125.101-37.143 21.454v-32.202l37.143-21.4446z" fill="#fafafa"/><path d="m886.459 89.3343-41.794 24.1247v37.563l41.794-24.134zm-1.551 36.6607-38.693 22.347v-33.989l38.693-22.3382z" fill="#ebebeb"/><path d="m884.908 126.004-1.55-.903v-32.1927l1.55-.8935z" fill="#e0e0e0"/><path d="m886.459 89.3343-1.551-.8936-41.794 24.1253 1.551.893z" fill="#f5f5f5"/><path d="m843.114 112.566 1.551.893v37.563l-1.551-.893z" fill="#e0e0e0"/><path d="m876.078 119.696c1.437-.876 2.628-.166 2.628 1.507-.052.907-.317 1.789-.774 2.574-.456.786-1.091 1.452-1.854 1.946-1.445.832-2.628.158-2.628-1.506.051-.908.315-1.79.772-2.576.457-.785 1.093-1.452 1.856-1.945z" fill="#e0e0e0"/><path d="m854.967 112.89 19.666-11.388c.552-.315.99-.053.99.578v.053c-.013.35-.109.692-.281.997s-.416.564-.709.755l-19.666 11.388c-.552.315-.99.061-.99-.579v-.061c.013-.348.11-.689.283-.992.172-.303.414-.561.707-.751z" fill="#e0e0e0"/><path d="m851.848 121.843 25.895-14.954c.543-.315.989-.166.989.324-.041.304-.151.594-.323.848s-.4.464-.666.615l-25.912 14.962c-.552.316-.99.167-.982-.324.044-.305.157-.596.33-.851s.402-.467.669-.62z" fill="#f0f0f0"/><path d="m851.848 125.408 25.895-14.945c.543-.315.989-.175.989.325-.041.303-.151.593-.323.847s-.4.464-.666.615l-25.912 14.963c-.552.315-.99.166-.982-.333.045-.305.158-.596.331-.851s.401-.467.668-.621z" fill="#f0f0f0"/><path d="m851.848 128.982 25.895-14.945c.543-.315.989-.175.989.316-.039.305-.15.597-.321.852-.172.256-.401.468-.668.62l-25.912 14.953c-.552.315-.99.175-.982-.324.044-.305.157-.596.33-.851s.402-.467.669-.621z" fill="#f0f0f0"/><path d="m871.427 127.335c-.2.107-.422.167-.649.175-.551 0-.499-.569-.481-.955 0-.175-.237-.446-.368-.219-.333.614-.762 1.174-1.122 1.752-.219.36-.639 1.174-1.173 1.06-.219-.052-.29-.289-.29-.586.267-.494.385-1.053.342-1.612 0-.167-.306-.377-.394-.149-.196.478-.32.983-.368 1.498-.246.435-.524.851-.832 1.244-.184.245-.342.508-.543.735 0 .053-.14.184-.211.202-.07.018-.166-.079-.192-.202-.006-.179.024-.357.087-.525s0 0 0-.044c0-.175-.227-.438-.324-.219-.332.928-.837 1.784-1.489 2.523l-.096.088c0-.106 0-.211 0-.316-.006-.238-.048-.474-.123-.701 0-.113-.237-.289-.342-.14-.483.864-1.072 1.664-1.752 2.383-.099.084-.204.16-.315.228-.123-.07.061-.692.088-.789.07-.28.166-.56.254-.832.092-.22.162-.449.21-.683 0-.219-.333-.543-.403-.254 0 .114-.131.394-.237.744-.416.86-.902 1.683-1.454 2.462-.507.827-1.219 1.509-2.067 1.98-.228.122-.657.298-.876.122-.219-.175-.228-.508-.237-.735-.005-.608.078-1.213.246-1.796.812-.431 1.565-.964 2.242-1.586.666-.527 1.241-1.16 1.7-1.874.227-.421.368-1.104-.193-1.341-.386-.157-.876.114-1.209.298-.457.255-.873.577-1.235.955-.722.81-1.25 1.775-1.542 2.821-.052.166-.114.376-.175.622-.881.446-1.878.611-2.856.473-.052 0-.07.114 0 .122.934.2 1.906.108 2.786-.263-.245 1.078-.386 2.515.622 2.786 1.007.272 2.225-.981 2.768-1.699.411-.551.772-1.137 1.077-1.752l.097-.132c0 .508.096.876.587.789.49-.088.955-.789 1.226-1.174.272-.386.499-.736.736-1.113.044.447.131.964.561.876.429-.087.788-.832.989-1.138.202-.307.342-.535.491-.815.024.054.056.105.096.149.36.385.789 0 1.017-.333.358-.441.695-.9 1.007-1.375.077.209.23.381.429.481.552.263 1.078-.192 1.393-.604.394-.527.743-1.087 1.042-1.673.023.111.07.216.136.308.067.092.152.169.25.226.204.103.432.149.66.133.228-.015.448-.091.636-.22.123-.106-.043-.473-.227-.386zm-12.115 2.164c.254-.132.788-.351.823.087-.043.28-.164.541-.35.754-.44.59-.945 1.128-1.507 1.603-.576.535-1.201 1.016-1.866 1.437.19-.812.546-1.576 1.045-2.244.499-.667 1.13-1.225 1.855-1.637z" fill="#e0e0e0"/><path d="m844.665 198.79 1.55.894 38.693-22.338-1.55-.894z" fill="#f0f0f0"/><path d="m883.358 176.452-37.143 21.445v-32.202l37.143-21.444z" fill="#fafafa"/><path d="m886.459 140.677-41.794 24.133v37.555l41.794-24.134zm-1.551 36.678-38.693 22.338v-33.989l38.693-22.347z" fill="#ebebeb"/><path d="m884.908 177.346-1.55-.894v-32.201l1.55-.894z" fill="#e0e0e0"/><path d="m886.459 140.677-1.551-.894-41.794 24.134 1.551.893z" fill="#f5f5f5"/><path d="m843.114 163.917 1.551.893v37.555l-1.551-.894z" fill="#e0e0e0"/><path d="m876.078 171.039c1.437-.832 2.628-.158 2.628 1.507-.053.907-.318 1.79-.774 2.577-.457.787-1.092 1.455-1.854 1.951-1.445.833-2.628.158-2.628-1.515.051-.907.315-1.79.772-2.575.457-.786 1.093-1.452 1.856-1.945z" fill="#e0e0e0"/><path d="m854.967 164.215 19.666-11.388c.552-.316.99-.062.99.569v.053c-.013.35-.109.692-.281.997s-.416.564-.709.755l-19.666 11.388c-.552.315-.99.061-.99-.57v-.052c.012-.35.108-.692.281-.997.172-.305.415-.564.709-.755z" fill="#e0e0e0"/><path d="m851.848 173.185 25.895-14.945c.543-.315.989-.175.989.316-.039.305-.15.597-.321.852-.172.255-.401.468-.668.619l-25.912 14.954c-.552.315-.99.175-.982-.324.044-.305.157-.596.33-.851s.402-.467.669-.621z" fill="#f0f0f0"/><path d="m851.848 176.759 25.895-14.953c.543-.316.989-.167.989.324-.041.303-.151.594-.323.847-.172.254-.4.465-.666.616l-25.912 14.962c-.552.315-.99.166-.982-.324.044-.305.157-.596.33-.851s.402-.467.669-.621z" fill="#f0f0f0"/><path d="m851.848 180.324 25.895-14.944c.543-.316.989-.175.989.324-.041.304-.151.594-.323.847-.172.254-.4.465-.666.616l-25.912 14.962c-.552.315-.99.166-.982-.333.045-.305.158-.595.331-.85s.401-.468.668-.622z" fill="#f0f0f0"/><path d="m871.427 178.678c-.2.106-.422.166-.649.175-.551 0-.499-.57-.481-.955 0-.175-.237-.447-.368-.21-.333.604-.762 1.165-1.122 1.752-.219.359-.639 1.173-1.173 1.06-.219-.044-.29-.281-.29-.579.266-.496.384-1.059.342-1.62 0-.167-.306-.368-.394-.14-.184.474-.296.973-.333 1.48-.244.436-.522.852-.832 1.244-.184.245-.342.508-.543.736 0 .052-.14.193-.211.201-.07.009-.201-.087-.201-.201-.005-.179.025-.358.088-.526 0 0 0 0 0-.044 0-.175-.228-.438-.325-.219-.335.932-.85 1.789-1.515 2.523l-.096.088c0-.105 0-.21 0-.315-.006-.239-.048-.475-.123-.701 0-.114-.237-.289-.342-.132-.487.861-1.076 1.661-1.752 2.383-.114.09-.234.172-.359.245-.122-.061.062-.692.088-.788.07-.28.166-.552.254-.876.092-.22.163-.449.21-.683 0-.211-.333-.543-.403-.254 0 .114-.131.403-.236.753-.418.855-.905 1.676-1.455 2.453-.498.812-1.194 1.484-2.023 1.953-.228.123-.657.307-.876.123s-.228-.499-.237-.736c-.002-.593.08-1.183.246-1.752.808-.437 1.561-.969 2.242-1.585.665-.532 1.239-1.168 1.7-1.884.227-.412.368-1.095-.193-1.331-.386-.167-.876.105-1.209.289-.457.255-.873.577-1.235.955-.733.801-1.273 1.76-1.577 2.803-.052.157-.114.368-.175.613-.881.447-1.878.612-2.856.473-.052 0-.07.114 0 .123.934.199 1.906.107 2.786-.263-.245 1.086-.386 2.514.622 2.794 1.007.281 2.225-.981 2.768-1.708.411-.55.772-1.137 1.077-1.752.028-.044.06-.086.097-.123 0 .5.096.876.587.78.49-.096.955-.788 1.226-1.174.272-.385.499-.736.736-1.112.044.455.131.963.561.876.429-.088.788-.832.989-1.139.202-.307.342-.534.491-.806.024.052.056.099.096.14.36.386.789 0 1.017-.324.332-.438.7-.876 1.007-1.384.075.213.228.388.429.491.552.254 1.078-.202 1.393-.614.394-.527.743-1.087 1.042-1.673.021.112.067.218.133.311.067.092.153.168.253.224.203.105.432.152.66.137.229-.015.449-.093.636-.225.158-.07-.008-.438-.192-.35zm-12.115 2.181c.254-.132.788-.351.823.087-.043.28-.165.541-.35.754-.438.592-.943 1.13-1.507 1.603-.577.529-1.202 1.004-1.866 1.419.192-.809.549-1.569 1.048-2.233.499-.665 1.129-1.22 1.852-1.63z" fill="#e0e0e0"/><path d="m1086.12 383.215 61.91 35.741c1.03.522 2.17.794 3.33.794 1.15 0 2.29-.272 3.32-.794l33.87-19.553c1.83-1.06 1.83-2.777 0-3.837l-61.92-35.749c-1.03-.523-2.17-.795-3.32-.795-1.16 0-2.3.272-3.33.795l-33.86 19.561c-1.83 1.06-1.83 2.777 0 3.837z" fill="#e0e0e0"/><path d="m1024.94 373.675c14.97 8.646 39.25 8.646 54.22 0s14.97-22.662 0-31.308-39.25-8.646-54.22 0-14.97 22.662 0 31.308z" fill="#e0e0e0"/><path d="m879.276 413.962c25.631 14.796 67.189 14.796 92.856 0 25.666-14.795 25.631-38.789 0-53.593-25.632-14.805-67.19-14.796-92.856 0-25.667 14.795-25.632 38.798 0 53.593z" fill="#e0e0e0"/><path d="m1211.67 398.168-170.33-98.34c-2.11-1.209-2.11-3.171 0-4.38l13.76-7.954c1.17-.596 2.47-.907 3.79-.907s2.62.311 3.79.907l170.33 98.349c2.1 1.209 2.1 3.162 0 4.38l-13.76 7.945c-1.17.596-2.47.907-3.79.907s-2.62-.311-3.79-.907z" fill="#e6e6e6"/><path d="m1004.07 297.323 9.92-13.999-9.03-14.042-9.877-5.703-2.173 3.066-8.19-4.747-17.03 9.837v16.285l-10.354-2.646-9.023 24.467 9.925 5.712-9.925 13.998 9.023 14.042 9.881 5.712 2.164-3.057 8.199 4.73 17.03-9.838v-16.284l10.35 2.645 9.03-24.458z" fill="#19793f"/><path d="m1004.07 297.323 9.92-13.999-9.03-14.042-9.877-5.703-2.173 3.066-8.19-4.747-17.03 9.837v16.285l-10.354-2.646-9.023 24.467 9.925 5.712-9.925 13.998 9.023 14.042 9.881 5.712 2.164-3.057 8.199 4.73 17.03-9.838v-16.284l10.35 2.645 9.03-24.458z" fill="#fff" opacity=".8"/><path d="m992.91 266.645 1.7.964v16.285l10.35-14.612-9.877-5.703z" fill="#19793f" opacity=".5"/><path d="m957.336 285.374 9.881 5.703 10.363 2.646-9.89-5.703z" fill="#19793f" opacity=".3"/><path d="m967.69 271.735 9.89 5.703v16.285l-9.89-5.703z" fill="#19793f" opacity=".5"/><path d="m957.336 285.374 9.881 5.703-9.023 24.467-9.881-5.703z" fill="#19793f" opacity=".5"/><path d="m970.02 318.566-11.826-3.022-9.881 14.007 9.881 5.703z" fill="#19793f" opacity=".5"/><path d="m948.313 329.551 9.881 5.703 9.023 14.051-9.881-5.712z" fill="#19793f" opacity=".65"/><path d="m977.58 350.978-8.199-4.73 8.199-11.564z" fill="#19793f" opacity=".65"/><path d="m1013.99 303.043-11.83-3.031 1.91-2.689z" fill="#19793f" opacity=".5"/><path d="m997.991 300.52 12.509-17.651-6.5-10.118-10.731 15.129-1.646-.955v-15.812l-12.711 7.332v17.722l-11.266-2.882-7.428 20.139 10.678 2.733 1.647.955-12.509 17.651 6.509 10.118 10.722-15.129 1.647.947v15.82l12.711-7.332v-17.721l11.277 2.882 7.43-20.14-10.692-2.742z" fill="#fafafa"/><path d="m977.3 329.779-10.722 15.128 1.104 1.752 11.265-15.899zm25.63-5.405-11.272-2.882v17.721l-12.711 7.332v1.901l14.358-8.287v-17.747l11.275 2.882 7.6-20.621-1.82-.473zm-3.257-22.881 12.507-17.643-7.64-11.887-.54.771 6.5 10.117-12.509 17.669zm-6.368-31.309-1.682.903v15.82l1.646.946zm-22.374 46.008-10.678-2.742-.184.491 12.509 3.197z" fill="#19793f"/><path d="m977.3 329.779-10.722 15.128 1.104 1.752 11.265-15.899zm25.63-5.405-11.272-2.882v17.721l-12.711 7.332v1.901l14.358-8.287v-17.747l11.275 2.882 7.6-20.621-1.82-.473zm-3.257-22.881 12.507-17.643-7.64-11.887-.54.771 6.5 10.117-12.509 17.669zm-6.368-31.309-1.682.903v15.82l1.646.946zm-22.374 46.008-10.678-2.742-.184.491 12.509 3.197z" fill="#fff" opacity=".7"/><path d="m991.623 339.187 1.647.946v-17.721l-1.647-.946z" fill="#19793f" opacity=".35"/><path d="m1002.9 324.348 1.64.946 7.61-20.621-1.82-.465z" fill="#19793f" opacity=".35"/><path d="m978.912 330.699-1.647-.947-10.722 15.129 1.103 1.717z" fill="#19793f" opacity=".35"/><path d="m1010.5 282.869 1.65.955-7.61-11.844-.54.771z" fill="#19793f" opacity=".35"/><path d="m993.27 287.88-1.647-.955v-15.812l1.647-.955z" fill="#19793f" opacity=".35"/><path d="m972.543 317.112-1.647-.955-10.678-2.733-.184.49z" fill="#19793f" opacity=".35"/><path d="m985.184 336.699h.096l-.052 4.135z" fill="#455a64"/><path d="m985.412 324.391v4.153 2.47 4.152h-.123v-3.81-2.462l-.044-4.52z" fill="#455a64"/><path d="m985.604 306.74-.07 5.922-.096 9.031-.42-.105-.053-5.212v-3.005l-.07-6.508.543-.088z" fill="#455a64"/><path d="m986.813 285.681c-.029.942-.389 1.845-1.016 2.549l-.061 6.088v2.628l-.07 6.483h-.815l-.061-5.589-.053-4.31-.044-4.66c-.595 0-1.016-.491-1.016-1.385.01-.591.158-1.172.432-1.697.274-.524.666-.978 1.145-1.325.85-.482 1.559.053 1.559 1.218z" fill="#455a64"/><path d="m990.151 291.165c-1.488.17-2.89.78-4.03 1.752v3.197c1.069-.844 2.248-1.54 3.504-2.067 0 0-.175.955.246 1.139.514.151 1.055.19 1.586.113s1.039-.268 1.488-.56c.815-.78.228-3.504-2.794-3.574zm.964 2.365c-.202.105-.36 0-.36-.272.005-.132.04-.261.103-.378.062-.117.15-.218.257-.296.192-.114.35 0 .35.271-.004.132-.038.261-.098.378-.061.116-.147.218-.252.297zm-5.108 10.398h-.376c-.272 0-.543 0-.797 0h-.386c-1.112 0-1.927-.368-1.927-1.594.043-1.718.702-3.363 1.857-4.634v-3.329c-2.418 2.383-4.45 5.624-4.45 9.014s2.278 3.364 4.573 3.013l.376-.052.754-.132.376-.07c1.752-.289 3.18-.429 3.18 1.043 0 1.673-1.55 3.574-3.25 5.589v1.944c2.182-2.575 4.687-5.431 4.687-8.348s-2.444-2.602-4.617-2.444zm-.201 18.396-.377-.079-.403-.087-.376-.097c-1.069-.289-1.954-.753-1.954-2.05 0-1.103.797-2.365 1.892-3.749v-1.918c-1.647 2.006-3.101 4.082-3.101 6.132 0 2.505 1.656 2.925 3.206 3.18l.377.061.368.061.377.07c.876.193 1.533.5 1.533 1.428 0 1.165-.736 2.225-1.586 3.32v1.332c1.218-1.516 2.628-3.128 2.628-5.484-.07-1.454-1.288-1.805-2.584-2.094zm-.149 13.438c-.122.009-.245.009-.368 0-.038.005-.076.005-.114 0-.133-.024-.26-.072-.376-.14-.509-.263-.876-.833-.876-1.954.031-.842.305-1.657.788-2.347v-1.35c-.907 1.065-1.439 2.397-1.516 3.794 0 1.445.649 2.242 1.577 2.4.129.009.257.009.386 0h.096l.377-.053c.397-.084.779-.232 1.13-.438-.363.074-.733.113-1.104.114z" fill="#455a64"/><path d="m977.58 277.438 17.03-9.829-9.89-5.711-17.03 9.837z" fill="#19793f" opacity=".2"/><path d="m1210.18 389.662 3.25-1.875c.54-.354.99-.83 1.32-1.39.32-.56.51-1.188.54-1.833v-261.162c-.03-.645-.22-1.273-.54-1.833-.33-.56-.78-1.036-1.32-1.391l-149.85-86.4872c-.58-.2938-1.21-.4469-1.86-.4469s-1.28.1531-1.86.4469l-3.26 1.8834c-.55.3519-1 .8265-1.32 1.3851-.32.5587-.51 1.1856-.54 1.8298v261.1359c.03.645.22 1.273.54 1.833s.77 1.036 1.32 1.39l149.85 86.514c.58.294 1.22.447 1.86.447.65 0 1.29-.153 1.87-.447z" fill="#19793f"/><path d="m1210.18 389.662 3.25-1.875c.54-.354.99-.83 1.32-1.39.32-.56.51-1.188.54-1.833v-261.162c-.03-.645-.22-1.273-.54-1.833-.33-.56-.78-1.036-1.32-1.391l-149.85-86.4872c-.58-.2938-1.21-.4469-1.86-.4469s-1.28.1531-1.86.4469l-3.26 1.8834c-.55.3519-1 .8265-1.32 1.3851-.32.5587-.51 1.1856-.54 1.8298v261.1359c.03.645.22 1.273.54 1.833s.77 1.036 1.32 1.39l149.85 86.514c.58.294 1.22.447 1.86.447.65 0 1.29-.153 1.87-.447z" fill="#000" opacity=".3"/><path d="m1054.76 38.465c.13-.9636.87-1.314 1.84-.7709l149.85 86.5139c.55.341 1 .818 1.32 1.384l7-4.03c-.31-.564-.76-1.04-1.31-1.384l-149.87-86.4872c-.58-.2939-1.22-.447-1.87-.447-.64 0-1.28.1531-1.86.447l-3.26 1.8746c-.5.3254-.92.7522-1.24 1.2521-.31.4999-.52 1.0614-.6 1.6475z" fill="#19793f" opacity=".4"/><path d="m1206.81 389.811c.04.022.08.037.12.044l.19.07h.07l.35.088c.74.138 1.51.074 2.22-.184.14-.053.28-.123.41-.184l3.26-1.884c.54-.355.98-.832 1.31-1.391.32-.56.51-1.188.54-1.832v-261.136c-.02-.65-.2-1.283-.54-1.84l-7.01 4.03c.34.555.53 1.189.55 1.84v261.161c.02.351-.08.697-.29.982-.11.141-.27.246-.44.302-.18.056-.37.06-.55.013z" fill="#000" opacity=".15"/><path d="m1100.13 83.3424 62.81 36.2666 3.51-2.015v-9.689c0-1.226-.2-2.82-4.91-9.3202-4.71-6.4999-4.84-8.76-7.01-11.6858-2.16-2.9258-6.04-5.1421-8.81-12.0362-2.77-6.8942-3.02-17.52-10.7-21.9-1-.6494-2.16-1.0239-3.36-1.0863-.62.0013-1.22.1676-1.75.4818l-3.21 1.8484-.29.1664.92 1.3578c-1.06 2.3302-1.75 5.1509-2.97 6.754-.4.5919-.93 1.0883-1.55 1.4545-.61.3662-1.3.5933-2.01.6654-1.97.2278-3.94-.5431-5.26-.219-.31.0835-.6.2072-.87.3679l-3.51 2.0148.24.2891c-.45.2106-.9.3977-1.37.5606-.42.1314-.87.2716-1.44.3942-1.26.2227-2.48.6549-3.6 1.279l-3.1 1.752-.28.1664zm57.53 22.0836c0-1.261.66-1.901 1.47-1.427.47.375.85.854 1.11 1.399s.39 1.142.38 1.745c0 1.262-.67 1.884-1.49 1.419-.47-.373-.85-.851-1.1-1.395-.26-.544-.38-1.14-.37-1.741zm-31.71-35.9156c0-4.0559 1.8-6.3948 4.25-5.9218.16-.4615.43-.8781.79-1.2164.35-.3382.78-.5889 1.25-.7319.47-.1429.97-.1743 1.45-.0915.48.0827.94.2773 1.33.5682 3.1 1.752 5.6 7.0868 5.6 11.8435 0 4.0383-1.81 6.3948-4.24 5.9217-.97 1.9973-2.78 2.6718-4.83 1.4805-3.1-1.7783-5.6-7.0781-5.6-11.8435zm-16.75 7.9804c0-1.2702.67-1.901 1.49-1.4279.47.3676.86.8393 1.12 1.3785.26.5391.4 1.1315.39 1.7313 0 1.2527-.66 1.8921-1.48 1.4191-.47-.3645-.86-.834-1.12-1.372-.27-.5379-.4-1.1296-.4-1.729z" fill="#455a64"/><path d="m1159.46 110.297 6.75-3.898c.15.488.22.996.22 1.506v9.689l-3.51 2.015-3.5-2.015z" fill="#37474f" opacity=".5"/><path d="m1152.5 98.2082-3.5-8.0592 5.54-3.25c1.63 2.2513 2.1 4.0734 4.29 7.6475z" fill="#37474f" opacity=".5"/><path d="m1138.48 82.0898-.45-2.3477c1.54-.6483 2.57-2.7331 2.57-5.7729 0-4.0383-1.81-8.4621-4.25-10.801l4.83-2.7945c2.07 4.6954 2.83 10.2405 4.51 14.454.36.876.74 1.6995 1.12 2.4528z" fill="#37474f" opacity=".5"/><path d="m1100.13 73.6539v9.6886l62.81 36.2665v-9.706c0-1.227-.18-2.812-4.89-9.321-4.72-6.5085-4.86-8.7073-7.01-11.6857-2.16-2.9784-6.04-5.1334-8.76-12.0713-2.73-6.9379-3.03-17.4411-10.7-21.9-2.13-1.2264-3.68-1.3227-4.88-.7709l-.29.1665c-2.89 1.7082-3.6 7.5161-5.53 10.1265-.03.0335-.06.0686-.08.1052-2.77 3.5828-6.63 1.2789-8.76 1.752-.33.0796-.65.2065-.94.3766-.41.253-.78.5466-1.13.876-1.39 1.2372-3.09 2.0678-4.91 2.4003-1.12.219-2.2.572-3.23 1.0512l-.28.1664c-.46.2122-.85.5658-1.11 1.0107-.25.4448-.36.9586-.31 1.4684zm54.04 33.7871c0-1.261.66-1.909 1.48-1.436.47.376.85.855 1.11 1.4.25.546.38 1.142.37 1.744 0 1.262-.66 1.901-1.48 1.428-.47-.373-.85-.851-1.1-1.394-.26-.544-.39-1.14-.38-1.742zm-28.22-37.9218c0-4.0559 1.8-6.3948 4.25-5.9218.47.1072.93.2874 1.35.5344 3.09 1.752 5.59 7.0956 5.59 11.8523.05 1.343-.21 2.6785-.76 3.9069-.97 1.9973-2.78 2.6718-4.83 1.4805-3.1-1.7871-5.6-7.0869-5.6-11.8523zm-20.23 9.9513c0-1.2614.67-1.9009 1.48-1.4278.48.3707.86.8471 1.12 1.3914s.39 1.1415.38 1.7446c0 1.2615-.66 1.8922-1.48 1.4192-.47-.3708-.86-.846-1.12-1.3884-.26-.5425-.39-1.1376-.38-1.739z" fill="#37474f"/><path d="m1125.95 69.5192c0 4.7654 2.5 10.0652 5.6 11.8522 2.05 1.1914 3.86.5169 4.83-1.4804-.48-.0992-.94-.2799-1.36-.5344-3.09-1.752-5.59-7.0868-5.59-11.8435-.05-1.3466.22-2.6852.77-3.9157-2.45-.473-4.25 1.8659-4.25 5.9218z" fill="#263238"/><path d="m1155.65 110.577c.82.465 1.48-.166 1.48-1.428.01-.602-.12-1.199-.37-1.744-.26-.545-.64-1.024-1.11-1.4-.82-.465-1.48.175-1.48 1.436-.01.602.12 1.198.37 1.742.26.545.64 1.022 1.11 1.394" fill="#263238"/><path d="m1107.2 82.6066c.83.473 1.49-.1664 1.49-1.4191.01-.6035-.12-1.2014-.37-1.7469-.26-.5456-.64-1.024-1.12-1.398-.81-.473-1.48.1752-1.48 1.4279-.01.6013.12 1.197.38 1.7409.25.5438.63 1.0213 1.1 1.3952" fill="#263238"/><path d="m1196.73 139.879-130.4-75.283c-.35-.1768-.73-.269-1.12-.269s-.77.0922-1.12.269l-1.25.7271c-.33.2112-.6.4968-.79.8333-.2.3365-.31.7144-.33 1.1027v225.4649c.02.388.13.766.33 1.102.19.337.47.622.79.834l130.39 75.283c.35.177.73.269 1.12.269s.77-.092 1.12-.269l1.26-.727c.32-.213.59-.5.78-.836.2-.336.31-.713.33-1.1v-225.465c-.02-.387-.13-.763-.33-1.099-.19-.336-.46-.623-.78-.837z" fill="#f5f5f5"/><path d="m1193.51 370.075c.13.054.27.09.41.105h.21c.22.026.45.026.68 0 .14-.016.28-.052.41-.105l.25-.123 1.26-.718c.32-.214.59-.501.78-.837.2-.336.31-.712.33-1.099v-225.474c-.01-.389-.12-.769-.32-1.104l-3.51 2.015c.2.334.31.709.33 1.095v225.465c.02.613-.34.911-.83.78z" fill="#e0e0e0"/><path d="m1062.84 65.3231 1.25-.7271c.35-.1768.73-.269 1.12-.269s.77.0922 1.12.269l130.4 75.283c.32.214.59.501.78.837.2.336.31.712.33 1.099v37.178l-3.5 2.023-132.62-76.571v-37.1859c.02-.3883.13-.7662.33-1.1027.19-.3365.46-.6221.79-.8333z" fill="#19793f"/><path d="m1062.84 65.3231 1.25-.7271c.35-.1768.73-.269 1.12-.269s.77.0922 1.12.269l130.4 75.283c.32.214.59.501.78.837.2.336.31.712.33 1.099v37.178l-3.5 2.023-132.62-76.571v-37.1859c.02-.3883.13-.7662.33-1.1027.19-.3365.46-.6221.79-.8333z" fill="#fff" opacity=".4"/><path d="m1061.76 66.9175c.14-.4556.57-.6045 1.07-.3066l130.4 75.2831c.34.205.61.491.8.832l3.51-2.006c-.18-.358-.46-.661-.79-.876l-130.42-75.2479c-.35-.1768-.73-.269-1.11-.269-.39 0-.77.0922-1.12.269l-1.27.727c-.27.1825-.51.4172-.69.6908s-.31.5806-.38.9036z" fill="#19793f"/><path d="m1061.76 66.9175c.14-.4556.57-.6045 1.07-.3066l130.4 75.2831c.34.205.61.491.8.832l3.51-2.006c-.18-.358-.46-.661-.79-.876l-130.42-75.2479c-.35-.1768-.73-.269-1.11-.269-.39 0-.77.0922-1.12.269l-1.27.727c-.27.1825-.51.4172-.69.6908s-.31.5806-.38.9036z" fill="#fff" opacity=".6"/><path d="m1197.84 141.815v37.187l-3.5 2.014v-37.186c-.02-.388-.13-.767-.33-1.104l3.51-2.006c.2.331.31.708.32 1.095z" fill="#19793f"/><path d="m1100.59 171.827 6.66-10.056-5.01-2.891-4.38 6.736-5.11-14.313c.5-.147.96-.408 1.34-.762.39-.354.69-.792.87-1.28.59-1.385.86-2.878.82-4.38.01-2.875-.74-5.703-2.19-8.19-1.44-2.488-3.52-4.547-6.02-5.966l-6.35-3.67v27.962l4.13 2.391v-8.891l2.76 1.594 7.01 18.16-6.87 10.512 5.13 2.961 4.52-7.008 4.26 12.106 5.32 3.075zm-15.23-28.636v-8.436l2.96 1.752c1.16.615 2.06 1.625 2.54 2.847.41 1.047.63 2.159.65 3.285.06.863-.22 1.714-.77 2.383-.51.584-1.32.549-2.44-.106z" fill="#19793f"/><g fill="#e0e0e0"><path d="m1184.42 198.405-57.1-32.973v-11.756l57.1 32.964z"/><path d="m1184.42 211.011-57.1-32.973c-.33-.26-.6-.593-.78-.973s-.27-.797-.26-1.217c0-.876.47-1.323 1.04-.999l57.1 32.973c.33.262.59.595.77.975.18.379.27.795.27 1.215 0 .885-.47 1.332-1.04.999z"/><path d="m1184.42 221.759-57.11-32.972c-.32-.262-.59-.595-.77-.975s-.27-.796-.26-1.215c0-.876.47-1.332 1.03-.999l57.11 32.973c.33.261.59.595.77.974.18.38.27.796.27 1.216 0 .884-.47 1.322-1.04.998z"/><path d="m1184.42 232.543-57.1-32.973c-.33-.26-.6-.593-.78-.973s-.27-.797-.26-1.217c0-.876.47-1.323 1.04-.99l57.1 32.964c.33.263.59.598.77.979s.27.799.27 1.22c0 .832-.47 1.279-1.04.99z"/><path d="m1184.42 254.776-109.83-63.405c-.33-.263-.59-.598-.77-.979-.18-.382-.27-.799-.27-1.22 0-.876.47-1.323 1.04-.99l109.83 63.405c.33.262.59.595.77.975.18.379.27.795.27 1.215 0 .885-.47 1.332-1.04.999z"/><path d="m1184.42 268.231-109.83-63.405c-.33-.263-.59-.598-.77-.979s-.27-.798-.27-1.22c0-.876.47-1.322 1.04-.99l109.83 63.405c.33.262.59.595.77.975s.27.796.27 1.215c0 .885-.47 1.332-1.04.999z"/><path d="m1184.42 281.686-109.83-63.405c-.33-.262-.59-.597-.77-.979-.18-.381-.27-.798-.27-1.219 0-.876.47-1.323 1.04-.99l109.83 63.405c.33.263.59.598.77.979s.27.798.27 1.219c0 .903-.47 1.323-1.04.99z"/><path d="m1184.42 295.142-109.83-63.405c-.33-.263-.59-.598-.77-.979s-.27-.799-.27-1.22c0-.876.47-1.323 1.04-.99l109.83 63.405c.33.263.59.598.77.979s.27.799.27 1.22c0 .876-.47 1.323-1.04.99z"/></g><path d="m1184.42 325.618-109.83-63.414c-.11-.085-.2-.195-.26-.322-.06-.126-.09-.265-.08-.405 0-.289.15-.438.34-.333l109.83 63.379c.11.085.2.195.26.322.06.126.09.265.08.405 0 .333-.15.482-.34.368z" fill="#19793f"/><path d="m1082.36 295.212c-3.96-2.295-7.19-9.119-7.19-15.225s3.23-9.207 7.19-6.92c3.96 2.286 7.19 9.119 7.19 15.224 0 6.106-3.22 9.207-7.19 6.921zm0-21.086c-3.58-2.067-6.5.745-6.5 6.255s2.92 11.695 6.5 13.762 6.5-.736 6.5-6.255c0-5.518-2.94-11.685-6.5-13.762z" fill="#455a64"/><path d="m1087.35 287.021c0 4.24-2.23 6.395-4.99 4.801-2.76-1.595-4.99-6.325-4.99-10.565s2.24-6.395 4.99-4.8c2.75 1.594 4.99 6.316 4.99 10.564z" fill="#455a64"/><path d="m1131.9 307.888-34.96-20.184v-2.855l34.96 20.183z" fill="#e0e0e0"/><path d="m1131.9 314.16-34.96-20.183v-2.856l34.96 20.183z" fill="#e0e0e0"/><path d="m1131.9 320.432-34.96-20.183v-2.847l34.96 20.183z" fill="#e0e0e0"/><path d="m1181.54 345.345c-.11.561-.6.438-.95.044-.34-.459-.62-.963-.82-1.498-.42-.994-.8-2.008-1.12-3.04-.54-1.754-.92-3.555-1.12-5.378 0-.394-.07-.78-.12-1.174-.08-.657-.83-1.2-.78-.464 0 .411.07.823.12 1.244.13 1.557.11 3.124-.07 4.677-.08 1.546-.54 3.049-1.33 4.38-.31.403-.75.745-1.27.544-.51-.202-1.12-1.271-1.49-2.173-.44-1.057-.82-2.14-1.12-3.241.12-.192.22-.391.32-.596.83-2.018 1.34-4.156 1.5-6.333.19-1.884.41-4.608-.97-6.527-2.94-4.064-2.88 5.397-2.63 7.814.18 1.715.49 3.414.93 5.081-.13.179-.29.335-.48.464-.47.307-1.03.29-1.61-.376-.5-.572-.81-1.291-.88-2.05l.06-.543c0-.482-.62-1.157-.7-.683v.122c0 .149 0 .298-.05.447-.28-.789-.5-1.597-.66-2.418-.08-.429-.58-.928-.71-.569l-.79 2.199c-.31-1.269-.4-2.583-.25-3.881.07-.561-.65-1.288-.78-.789-.21 1.053-.62 2.056-1.2 2.953-.13.162-.29.293-.47.381-.18.089-.38.133-.58.129-.21-.005-.41-.057-.58-.153-.18-.097-.34-.234-.45-.401l-.1-.114c.23-.333.45-.692.65-1.06.83-1.116 1.2-2.502 1.04-3.881-.28-1.568-1.35-2.759-2.08-2.172-1.13.876-1.75 4.038-.72 6.587-.88 1.104-2.02 1.805-3.43 1.323s-2.98-2.19-3.6-4.695c-.24-.962-.35-1.952-.33-2.944.67.311 1.37.527 2.1.64.97.179 1.97.033 2.85-.415s1.58-1.174 2.01-2.064c.35-.616.56-1.303.6-2.01.05-.707-.06-1.416-.33-2.072-.19-.62-.53-1.183-.99-1.641s-1.02-.797-1.64-.987c-1.96-.351-3.63 1.331-4.55 3.504-.48 1.149-.78 2.367-.88 3.609-1.59-.86-3.08-1.9-4.43-3.101-.41-.351-.47.403-.09.762 1.36 1.297 2.86 2.434 4.48 3.39-.03 1.344.16 2.683.56 3.968.93 3.092 3.03 5.072 4.78 5.466 1.44.325 2.63-.385 3.5-1.515.88 1.156 1.94 1.48 2.72 1.095.52-.321.93-.808 1.15-1.384.14 1.009.39 2.001.73 2.961.13.385.57.718.69.394l.74-2.129c.26.927.6 1.832 1 2.707.1.21.34.412.49.386.32.769.82 1.448 1.46 1.979.15.133.32.235.5.299.19.065.39.091.58.077.2-.014.39-.067.56-.158.18-.09.33-.215.46-.367.06.193.1.386.16.57.67 2.015 1.66 4.695 3.08 5.256 1.59.674 2.44-1.524 2.88-3.338.23-.994.38-2.005.45-3.022.25.981.55 1.962.87 2.926.4 1.319.99 2.573 1.75 3.723.7.876 1.55 1.06 1.76 0 .14-.421-.31-1.13-.38-.745zm-28.86-22.776c.72-1.831 1.96-3.127 3.44-3.355.72-.114 1.75.158 2.32 1.647.18.548.22 1.131.12 1.697-.1.567-.34 1.1-.7 1.553-1.44 2.19-3.59 2.278-5.88 1.349.11-.978.35-1.938.7-2.856zm7.47 5.484c.16-.298.49-.999.87-.561.17.306.27.642.29.988s-.03.693-.15 1.018c-.33.95-.79 1.851-1.36 2.681-.34-1.365-.22-2.804.35-4.091zm10.75 8.997c-.8-3.373-.83-6.882-.08-10.267.18-.666.53-1.157 1.12-.412.54.869.8 1.88.74 2.9.02 1.911-.19 3.817-.64 5.676-.2 1.026-.52 2.027-.93 2.987-.07-.271-.14-.587-.21-.884z" fill="#455a64"/><path d="m1090.21 88.3269s1.25 4.853 1.68 7.4547c.08.4254.33.802.68 1.0512l75.26 43.4062 1.4.797c.02.011.04.017.06.017s.04-.006.06-.017c.11-.07.16-.245.12-.491 0 0 0 0 0-.052-1.32-7.105-3.25-12.842-10.09-18.536l-10.94-8.2s-2.93-2.759-3.43-5.624l-.68-3.837-1.27-7.4982s-.19-2.2075-2.91-4.8706c-2.73-2.663-7.41-9.8374-8.24-14.5065-1.3-7.411-6.65-15.6629-11.96-18.4398-.98-.5435-2.08-.8439-3.2-.876-.67-.0136-1.33.156-1.92.4905l-3.38 1.936-.15.0876c0 .438-.65 14.6642-2.85 14.7168-.13-.0099-.26-.0099-.38 0-.2.028-.4.0966-.57.2015l-3.41 1.971-.08.0438 4.55 10.0477c.51 2.8558-1.14 3.1361-1.95 2.8032l-1.52-.6044c-2.09-.876-3.84-1.6907-7.88-3.504-.54-.2982-1.13-.4627-1.74-.4795s-1.22.1147-1.77.3831l-3.5 2.006zm26.14-23.1001c.08-.4157.25-.8086.5-1.1497s.57-.6217.94-.8213c.78-.3592 10.37 16.0921 9.32 16.9243-.35.2564-.76.4198-1.19.4749-.43.0552-.86.0003-1.27-.1596-.55 2.0674-2.19 2.8032-4.44 1.6206-3.27-1.752-6.55-6.789-7.36-11.3354-.72-4.0822.81-6.3598 3.5-5.5538z" fill="#455a64"/><path d="m1158.63 130.051 5.49-3.163c3.18 4.188 4.45 8.594 5.4 13.701v.053c0 .245 0 .42-.12.49-.02.011-.04.017-.06.017s-.04-.006-.06-.017l-4.32-3.425z" fill="#37474f" opacity=".5"/><path d="m1145.4 109.43-7.73 4.459-2.63-15.6808 6.95-4.0209c.55.7863.92 1.683 1.09 2.628l1.27 7.4987.69 3.837c.07.437.19.866.36 1.279z" fill="#37474f" opacity=".5"/><path d="m1128.27 67.8548c1.77 2.9767 3.01 6.2366 3.67 9.636.55 2.4049 1.48 4.7097 2.73 6.8328l-6.63 3.8281-3.3-7.6125c.39.1435.81.1881 1.23.1301.41-.0581.81-.2171 1.14-.4629.55-.4293-1.75-4.9845-4.17-9.2594z" fill="#37474f" opacity=".5"/><path d="m1088.09 93.3201s3.05 2.882 3.23 2.9871c.18.1052 1.06.5957 1.06.5957l75.47 43.3881 1.4.797c-.26-.262-4.38-3.442-4.38-3.442-1.48-5.378-4.63-10.145-9-13.613l-10.92-8.2s-2.94-2.768-3.44-5.632l-.68-3.829-1.27-7.5068s-.18-2.1988-2.91-4.8618c-2.72-2.6631-7.41-9.8375-8.24-14.5154-1.31-7.4022-6.66-15.6541-11.96-18.4398-2-1.0512-3.73-1.165-5.01-.4905l-.15.0963c-1.99 1.1651-2.85 4.3012-2.06 8.76.21 1.0218.22 2.0761.02 3.1006s-.61 1.9987-1.19 2.865c-.34.5432-.79 1.0038-1.33 1.348s-1.15.5631-1.78.6405c-.3-.0025-.6.0602-.88.184l-.07.0438c-1.1.6219-.67 2.2601-.67 2.2601l1.04 5.9743.69 3.8281v.184c.42 2.6893-1.18 2.9433-1.97 2.628-2.95-1.1739-4.45-1.8922-9.42-4.0822-.53-.3009-1.13-.4685-1.74-.4883s-1.22.1086-1.77.3744h-.05c-1.17.8059-1.89 2.5667-2.02 5.0458zm28.26-28.0933c.33.1037.64.2386.94.4029 3.27 1.6995 6.56 6.7803 7.37 11.3355.24 1.156.24 2.3479 0 3.504-.55 2.0673-2.19 2.8032-4.44 1.6206-3.27-1.752-6.55-6.789-7.36-11.3355-.73-4.0559.8-6.3335 3.49-5.5275z" fill="#37474f"/><path d="m1112.85 70.7894c.81 4.5464 4.09 9.636 7.36 11.3354 2.25 1.1826 3.89.4468 4.44-1.6206-.33-.1074-.64-.2392-.95-.3942-3.27-1.7082-6.56-6.789-7.36-11.3442-.24-1.1556-.24-2.3484 0-3.504-2.68-.841-4.21 1.4366-3.49 5.5276z" fill="#263238"/><path d="m1116.01 65.4282h.29c.31.1023.6.2313.88.3855 3.2 1.6644 6.46 6.6838 7.25 11.1777.23 1.1244.23 2.2833 0 3.4077-.26.3866-.59.7155-.98.9658-.4.2503-.84.4166-1.29.4883-1.41 0-6.46-5.1071-7.25-7.2883-.55-1.568-1.85-6.4736-.5-8.3921.18-.251.41-.4529.69-.5863s.58-.1939.89-.1758zm-.02-.2277c-3.86 0-2.08 7.2007-1.28 9.4345s5.91 7.4372 7.42 7.4372c.5-.079.98-.2608 1.4-.5337.43-.2729.79-.6311 1.07-1.0518.24-1.1561.24-2.348 0-3.504-.81-4.5552-4.1-9.636-7.37-11.3355-.3-.1642-.62-.2992-.94-.4029-.12-.0086-.23-.0086-.35 0z" fill="#263238"/><path d="m1169.26 141.097-76.88-44.1941-1.06-.5869c-.18-.1139-3.22-2.9959-3.22-2.9959l76.8 44.3339s4.66 3.601 4.36 3.443z" fill="#263238"/><path d="m1090.45 382.926 58.24 33.629c.97.493 2.04.749 3.13.749 1.08 0 2.16-.256 3.12-.749l31.86-18.396c1.76-.99 1.76-2.628 0-3.609l-58.24-33.621c-.97-.492-2.04-.749-3.12-.749-1.09 0-2.16.257-3.13.749l-31.86 18.396c-1.72.99-1.72 2.611 0 3.601z" fill="#f0f0f0"/><path d="m1090.44 381.235 58.25 33.63c.97.492 2.04.749 3.13.749 1.08 0 2.16-.257 3.12-.749l31.86-18.396c1.76-.999 1.76-2.628 0-3.609l-58.24-33.63c-.97-.488-2.04-.743-3.13-.743-1.08 0-2.16.255-3.13.743l-31.86 18.396c-1.72.999-1.72 2.61 0 3.609z" fill="#fff"/><path d="m1154.94 414.865 28.74-16.592c-9.05 4.634-26.24 14.551-28.78 15.54-2.54.99-4.04 1.428-8.76-1.305s-52.47-29.416-52.47-29.416l55.03 31.773c.97.491 2.04.746 3.12.746 1.09 0 2.16-.255 3.12-.746z" fill="#fafafa"/><path d="m1169.14 403.424c-.12.06-.25.092-.39.092-.13 0-.26-.032-.39-.092l-58.05-33.524c-.23-.123-.23-.325 0-.447.12-.06.26-.092.39-.092.14 0 .27.032.39.092l58.05 33.516c.24.131.25.332 0 .455z" fill="#e0e0e0"/><path d="m1122.39 372.598c.19.108.38.198.58.271l.23.088c.86.271 1.77.369 2.67.288.91-.081 1.78-.34 2.58-.761l5.48-3.163c.62-.322 1.14-.806 1.52-1.4.37-.595.57-1.278.59-1.978.01-.7-.16-1.392-.5-2.003-.35-.611-.85-1.118-1.45-1.469-.19-.105-.38-.195-.58-.271l-.23-.079c-.86-.272-1.77-.371-2.67-.292-.91.08-1.78.337-2.59.756l-5.47 3.154h-.04c-.66.343-1.21.865-1.59 1.506-.26.445-.42.937-.49 1.446-.07.51-.03 1.028.1 1.524.13.497.36.962.68 1.369.31.407.7.749 1.15 1.005z" fill="#fafafa" opacity=".7"/><path d="m1134.1 365.826c-.94-.459-1.98-.687-3.04-.668-1.05.02-2.08.288-3.01.782l-5.47 3.162c-1.76.99-1.82 2.558-.2 3.504.95.46 1.99.689 3.04.669 1.06-.02 2.09-.288 3.02-.782l5.47-3.163c1.74-1.007 1.82-2.567.19-3.504z" fill="#e0e0e0"/><path d="m1135.63 367.631c.47-.892.57-1.93.29-2.896-.28-.967-.93-1.788-1.8-2.29-.18-.105-.38-.196-.58-.272l-.22-.079c-1.5-.462-3.12-.412-4.59.141 2.57-.263 4.16-.333 5.77 1.016.61.526 1.05 1.229 1.25 2.012s.16 1.61-.12 2.368z" fill="#fff"/><path d="m1125.88 365.011c.26-.118.55-.165.83-.136.29.029.56.134.79.303.66.433 1.22 1.018 1.62 1.706.39.688.62 1.46.67 2.253.02.285-.02.572-.14.832s-.31.484-.54.649l-2.94 1.691c-.74.384-1.6.469-2.4.235-.81-.233-1.49-.767-1.9-1.489-.42-.723-.54-1.578-.35-2.389.2-.811.7-1.514 1.41-1.964z" fill="#f5f5f5"/><path d="m1129.93 362.681c.37-.236.79-.394 1.22-.466s.87-.056 1.3.048c.42.103.82.292 1.17.554.35.263.65.593.87.973.22.379.36.798.41 1.233s.01.875-.11 1.296c-.12.42-.33.811-.6 1.15-.28.338-.63.617-1.01.819l-4.07 2.33c.23-.165.42-.389.54-.649s.16-.547.14-.832c-.05-.793-.28-1.565-.67-2.253-.4-.688-.96-1.273-1.62-1.706-.23-.169-.5-.274-.79-.303-.28-.029-.57.018-.83.136z" fill="#19793f"/><path d="m1133.68 365.695c-.08-.141-.19-.265-.31-.365-.13-.099-.28-.172-.44-.214-.15-.043-.32-.054-.48-.032-.16.021-.32.074-.46.155l-4.9 2.821c.38.698.94 1.286 1.62 1.708l.19.105 4.34-2.488c.28-.166.48-.437.57-.753.08-.317.04-.653-.13-.937z" fill="#fff" opacity=".4"/><path d="m1125.88 365.011c.26-.118.55-.165.83-.136.29.029.56.134.79.303.66.433 1.22 1.018 1.62 1.706.39.688.62 1.46.67 2.253.02.285-.02.572-.14.832s-.31.484-.54.649l-2.94 1.691c-.74.384-1.6.469-2.4.235-.81-.233-1.49-.767-1.9-1.489-.42-.723-.54-1.578-.35-2.389.2-.811.7-1.514 1.41-1.964z" fill="#f5f5f5"/><path d="m1129.79 369.137c-.05-.793-.28-1.565-.67-2.253-.4-.688-.96-1.273-1.62-1.706-.23-.169-.5-.274-.79-.303-.28-.029-.57.018-.83.136l.23-.131.17-.096c.26-.123.55-.173.83-.145.29.027.56.132.79.302.67.435 1.22 1.02 1.62 1.707.39.688.62 1.46.67 2.253.03.284-.02.57-.13.83-.12.26-.31.485-.54.65l-.41.237c.23-.165.42-.389.54-.649s.16-.547.14-.832z" fill="#000" opacity=".1"/><path d="m1123.24 372.466c-.55-.24-1.02-.627-1.36-1.119-.34-.491-.54-1.068-.57-1.666-.03-.597.1-1.192.39-1.718.28-.526.71-.963 1.23-1.261l2.95-1.691c.26-.118.55-.165.83-.136.29.029.56.134.79.303.28.17.55.376.78.613l-4.92 2.83c-1.61.937-1.03 3.293-.12 3.845z" fill="#e0e0e0"/><path d="m1123.69 371.433c-.08-.141-.14-.297-.16-.458s-.01-.325.03-.482c.05-.158.12-.305.22-.434.1-.128.22-.236.36-.317l4.97-2.865c.41.685.64 1.462.68 2.26v.219l-4.38 2.532c-.15.086-.3.142-.47.165-.16.024-.33.014-.49-.028-.16-.043-.31-.117-.44-.219s-.24-.229-.32-.373z" fill="#fff"/><path d="m1134.53 364.232c.03.054.05.109.07.166.02.043.04.087.05.132v.14.149.079c.04.219.06.442.05.665v.246c0-1.06-1.75-2.742-3.39-1.805l-3.1 1.752c-.23-.237-.5-.443-.78-.613-.23-.169-.5-.274-.79-.303-.28-.029-.57.018-.83.136l4.05-2.33c.37-.213.78-.352 1.2-.408s.85-.029 1.26.081.8.3 1.14.559c.33.259.62.582.83.951.05.087.09.175.14.263.04.087.09.105.1.14z" fill="#000" opacity=".1"/><path d="m1101.96 384.494c.19.104.38.195.58.271l.23.088c.86.27 1.77.367 2.67.286.91-.081 1.78-.339 2.59-.759l5.47-3.163c.66-.342 1.21-.868 1.58-1.515.25-.444.42-.934.49-1.443.07-.508.03-1.025-.1-1.521s-.36-.96-.67-1.367c-.32-.407-.71-.748-1.15-1.004-.19-.104-.38-.195-.58-.271l-.23-.079c-1.74-.548-3.63-.381-5.25.464l-5.48 3.162h-.04c-.62.323-1.15.807-1.52 1.401s-.57 1.278-.59 1.978c-.01.7.16 1.392.5 2.003s.84 1.118 1.45 1.469z" fill="#fafafa" opacity=".7"/><path d="m1113.69 377.722c-.95-.457-1.99-.684-3.04-.664-1.05.019-2.09.286-3.02.778l-5.47 3.162c-1.76.999-1.82 2.558-.2 3.504.95.459 1.99.688 3.05.668 1.05-.02 2.09-.287 3.02-.781l5.47-3.163c1.73-.998 1.81-2.566.19-3.504z" fill="#e0e0e0"/><path d="m1115.2 379.536c.47-.893.57-1.933.29-2.901s-.92-1.79-1.8-2.294c-.18-.105-.38-.195-.57-.272l-.23-.079c-1.5-.462-3.11-.412-4.58.141 2.57-.254 4.15-.333 5.76 1.016.61.529 1.05 1.232 1.25 2.017.21.785.16 1.612-.12 2.372z" fill="#fff"/><path d="m1105.45 376.916c.26-.122.55-.173.83-.145.29.028.56.133.79.303.67.434 1.22 1.019 1.62 1.707.39.688.62 1.459.67 2.253.03.283-.02.57-.14.83-.11.26-.3.484-.53.65l-2.95 1.691c-.74.428-1.63.544-2.46.321-.83-.222-1.53-.765-1.96-1.508-.43-.744-.54-1.627-.32-2.456s.76-1.535 1.51-1.964z" fill="#f5f5f5"/><path d="m1109.51 374.577c.36-.236.78-.394 1.21-.466s.87-.056 1.3.048c.42.103.82.292 1.18.554.35.263.64.594.86.973s.36.798.41 1.233.02.876-.11 1.296c-.12.42-.32.811-.6 1.15-.28.338-.62.617-1.01.819l-4.05 2.33c.23-.166.42-.39.53-.65.12-.26.17-.547.14-.83-.05-.794-.28-1.565-.67-2.253-.4-.688-.96-1.273-1.62-1.707-.23-.17-.5-.275-.79-.303-.28-.028-.57.023-.83.145z" fill="#19793f"/><path d="m1113.26 377.582c-.08-.141-.19-.266-.32-.365s-.27-.172-.43-.215c-.16-.042-.32-.053-.49-.032-.16.022-.31.075-.46.157l-4.9 2.82c.38.712.94 1.315 1.62 1.752l.2.105 4.33-2.487c.15-.081.27-.191.38-.323.1-.133.18-.284.22-.447.04-.162.05-.331.03-.497-.03-.166-.09-.325-.18-.468z" fill="#fff" opacity=".4"/><path d="m1105.45 376.916c.26-.122.55-.173.83-.145.29.028.56.133.79.303.67.434 1.22 1.019 1.62 1.707.39.688.62 1.459.67 2.253.03.283-.02.57-.14.83-.11.26-.3.484-.53.65l-2.95 1.691c-.74.428-1.63.544-2.46.321-.83-.222-1.53-.765-1.96-1.508-.43-.744-.54-1.627-.32-2.456s.76-1.535 1.51-1.964z" fill="#f5f5f5"/><path d="m1109.36 381.034c-.05-.794-.28-1.565-.67-2.253-.4-.688-.95-1.273-1.62-1.707-.23-.17-.5-.275-.79-.303-.28-.028-.57.023-.83.145l.24-.14.17-.096c.26-.118.55-.166.83-.138.28.027.55.129.78.295.67.433 1.22 1.018 1.62 1.706s.63 1.46.67 2.254c.03.284-.01.57-.13.831-.12.26-.3.484-.54.649l-.4.237c.23-.166.42-.39.53-.65.12-.26.17-.547.14-.83z" fill="#000" opacity=".1"/><path d="m1102.81 384.362c-.54-.24-1.01-.628-1.36-1.121-.34-.492-.53-1.069-.56-1.666-.04-.598.1-1.193.38-1.718.29-.526.72-.961 1.24-1.259l2.94-1.682c.26-.122.55-.173.83-.145.29.028.56.133.79.303.29.168.56.374.79.613l-4.92 2.838c-1.61.938-1.04 3.285-.13 3.837z" fill="#e0e0e0"/><path d="m1103.26 383.329c-.16-.285-.21-.623-.12-.939.09-.317.29-.587.58-.752l4.96-2.865c.42.683.65 1.462.68 2.261v.219l-4.38 2.531c-.15.085-.3.14-.47.163-.16.022-.33.012-.49-.03-.16-.043-.31-.116-.44-.217s-.24-.228-.32-.371z" fill="#fff"/><path d="m1114.11 376.128c0 .052.05.114.07.175.03.061 0 .079 0 .123s0 .096.05.14c.04.044 0 .096 0 .149v.079c.03.22.05.442.05.665v.237c0-1.06-1.75-2.733-3.39-1.805l-3.1 1.752c-.23-.239-.5-.445-.79-.613-.23-.17-.5-.275-.79-.303-.28-.027-.57.023-.83.146l4.06-2.339c.74-.43 1.63-.546 2.46-.325.83.222 1.54.764 1.97 1.507l.13.272c.04.043.08.09.11.14z" fill="#000" opacity=".1"/><path d="m1137.05 381.06c.18.106.38.197.58.271l.22.088c.87.272 1.78.37 2.68.288.9-.081 1.78-.34 2.58-.761l5.48-3.162c.68-.346 1.23-.879 1.61-1.536.37-.656.55-1.408.5-2.163-.04-.754-.3-1.48-.75-2.088s-1.07-1.072-1.78-1.335l-.23-.079c-.86-.274-1.77-.373-2.67-.294-.9.08-1.78.338-2.58.758l-5.48 3.162c-.63.321-1.16.804-1.53 1.398-.37.595-.58 1.279-.59 1.981-.02.701.16 1.394.5 2.005.35.611.85 1.118 1.46 1.467z" fill="#fafafa" opacity=".7"/><path d="m1148.78 374.288c-.95-.458-1.99-.687-3.05-.667-1.05.019-2.08.287-3.01.781l-5.48 3.163c-1.75.989-1.81 2.557-.19 3.504.94.459 1.99.688 3.04.668 1.05-.019 2.08-.288 3.01-.782l5.48-3.163c1.73-1.007 1.81-2.566.2-3.504z" fill="#e0e0e0"/><path d="m1150.28 376.102c.47-.893.58-1.933.29-2.901-.28-.968-.92-1.79-1.79-2.294-.19-.106-.38-.197-.58-.272l-.23-.078c-1.5-.463-3.11-.413-4.57.14 2.57-.263 4.14-.333 5.75 1.016.62.529 1.05 1.233 1.26 2.017.2.785.16 1.612-.13 2.372z" fill="#fff"/><path d="m1140.53 373.474c.26-.119.55-.166.84-.137.28.029.55.134.78.303.67.433 1.22 1.018 1.62 1.706s.63 1.46.67 2.254c.03.284-.01.572-.13.832-.12.261-.31.485-.54.648l-2.95 1.691c-.37.212-.77.35-1.19.405s-.85.027-1.26-.083c-.41-.111-.8-.301-1.13-.56-.34-.258-.62-.581-.84-.949-.21-.368-.35-.775-.4-1.196-.06-.421-.03-.849.08-1.26.11-.41.3-.795.56-1.132s.58-.619.95-.832z" fill="#f5f5f5"/><path d="m1144.62 371.143c.74-.384 1.6-.469 2.4-.235.8.233 1.48.767 1.9 1.489.41.723.54 1.578.34 2.389s-.7 1.514-1.4 1.964l-4.12 2.33c.24-.163.42-.387.54-.648.12-.26.17-.548.13-.832-.04-.794-.27-1.566-.66-2.254-.4-.688-.96-1.273-1.62-1.706-.23-.169-.5-.274-.79-.303-.28-.029-.57.018-.83.137z" fill="#19793f"/><path d="m1148.35 374.148c-.08-.141-.19-.265-.32-.365-.13-.099-.28-.172-.44-.215-.16-.042-.32-.053-.48-.031-.16.021-.32.074-.46.156l-4.91 2.82c.39.698.95 1.286 1.62 1.709l.2.105 4.33-2.488c.29-.165.49-.435.58-.752.08-.316.04-.654-.12-.939z" fill="#fff" opacity=".4"/><path d="m1140.53 373.474c.26-.119.55-.166.84-.137.28.029.55.134.78.303.67.433 1.22 1.018 1.62 1.706s.63 1.46.67 2.254c.03.284-.01.572-.13.832-.12.261-.31.485-.54.648l-2.95 1.691c-.37.212-.77.35-1.19.405s-.85.027-1.26-.083c-.41-.111-.8-.301-1.13-.56-.34-.258-.62-.581-.84-.949-.21-.368-.35-.775-.4-1.196-.06-.421-.03-.849.08-1.26.11-.41.3-.795.56-1.132s.58-.619.95-.832z" fill="#f5f5f5"/><path d="m1144.44 377.6c-.04-.794-.27-1.566-.67-2.254s-.95-1.273-1.62-1.706c-.23-.169-.5-.274-.78-.303-.29-.029-.58.018-.84.137l.24-.132.18-.096c.25-.122.54-.172.82-.144.29.028.56.132.79.302.66.434 1.22 1.019 1.61 1.707.4.687.63 1.459.67 2.252.03.284-.01.57-.13.83s-.3.485-.53.651l-.41.236c.23-.163.42-.387.54-.648.12-.26.16-.548.13-.832z" fill="#000" opacity=".1"/><path d="m1137.9 380.928c-.55-.24-1.02-.628-1.36-1.121-.34-.492-.54-1.069-.57-1.666-.03-.598.1-1.192.39-1.718.28-.525.71-.961 1.23-1.259l2.94-1.69c.26-.119.55-.166.84-.137.28.029.55.134.78.303.29.17.56.376.79.613l-4.91 2.83c-1.62.937-1.04 3.294-.13 3.845z" fill="#e0e0e0"/><path d="m1138.34 379.895c-.08-.141-.13-.297-.15-.458s-.01-.325.03-.482.12-.305.21-.433c.1-.129.23-.237.37-.318l4.94-2.873c.42.682.65 1.461.67 2.26v.219l-4.38 2.531c-.28.163-.62.208-.93.124-.32-.083-.59-.288-.76-.57z" fill="#fff"/><path d="m1149.2 372.703c.02.054.04.109.06.166.02.043.03.087.04.132v.14.149.079c.05.219.06.442.06.665v.246c0-1.06-1.76-2.742-3.39-1.805l-3.1 1.752c-.23-.237-.5-.443-.79-.613-.23-.169-.5-.274-.78-.303-.29-.03-.58.018-.84.136l4.06-2.33c.74-.417 1.61-.527 2.43-.306s1.52.756 1.95 1.489c.05.088.1.178.14.271.06.039.11.083.16.132z" fill="#000" opacity=".1"/><path d="m1116.58 392.956c.19.105.38.195.58.271.08.034.15.064.23.088.86.27 1.77.367 2.68.286.9-.081 1.77-.339 2.58-.759l5.47-3.162h.04c.63-.324 1.15-.808 1.52-1.403s.57-1.278.59-1.978c.01-.701-.16-1.392-.5-2.003-.35-.61-.85-1.117-1.46-1.467-.18-.104-.38-.195-.57-.271l-.23-.079c-1.75-.547-3.64-.38-5.26.464l-5.47 3.163c-.63.322-1.15.806-1.52 1.4-.37.595-.57 1.278-.59 1.978s.16 1.392.5 2.003.84 1.118 1.45 1.469z" fill="#fafafa" opacity=".7"/><path d="m1128.35 386.184c-.95-.456-1.99-.684-3.04-.664s-2.08.286-3.01.778l-5.49 3.163c-1.75.998-1.8 2.558-.19 3.504.95.464 2 .696 3.06.676 1.06-.019 2.1-.29 3.04-.79l5.47-3.163c1.69-.998 1.78-2.566.16-3.504z" fill="#e0e0e0"/><path d="m1129.86 387.998c.46-.893.57-1.932.29-2.901-.28-.968-.93-1.79-1.8-2.294-.19-.104-.38-.195-.58-.272l-.23-.078c-1.49-.462-3.1-.413-4.57.14 2.57-.254 4.15-.333 5.76 1.025.61.526 1.05 1.229 1.25 2.012s.16 1.61-.12 2.368z" fill="#fff"/><path d="m1120.09 385.378c.26-.121.54-.171.83-.143.28.027.55.132.78.301.66.435 1.22 1.019 1.62 1.707.39.688.62 1.46.67 2.253.03.283-.02.57-.14.83-.11.26-.3.484-.53.65l-2.94 1.691c-.74.385-1.6.469-2.4.236-.81-.234-1.49-.767-1.9-1.49-.42-.722-.54-1.578-.35-2.389.2-.811.7-1.514 1.41-1.964z" fill="#f5f5f5"/><path d="m1124.17 383.04c.37-.213.77-.35 1.2-.406.42-.055.85-.026 1.26.084s.79.3 1.13.559c.33.259.62.581.83.95.21.368.35.774.4 1.195.06.422.03.85-.08 1.26s-.3.795-.56 1.132-.58.62-.95.832l-4.05 2.33c.23-.166.41-.39.53-.65s.16-.547.13-.83c-.04-.793-.27-1.565-.67-2.253s-.95-1.272-1.61-1.707c-.23-.169-.5-.274-.79-.301-.28-.028-.57.022-.83.143z" fill="#19793f"/><path d="m1127.92 386.044c-.08-.141-.19-.265-.32-.364-.13-.1-.27-.173-.43-.215s-.32-.053-.48-.032-.32.074-.46.156l-4.91 2.82c.39.698.94 1.286 1.62 1.709l.2.105 4.32-2.488c.15-.081.27-.189.37-.318.1-.128.17-.276.21-.433.05-.157.06-.321.04-.482-.03-.161-.08-.317-.16-.458z" fill="#fff" opacity=".4"/><path d="m1120.09 385.378c.26-.121.54-.171.83-.143.28.027.55.132.78.301.66.435 1.22 1.019 1.62 1.707.39.688.62 1.46.67 2.253.03.283-.02.57-.14.83-.11.26-.3.484-.53.65l-2.94 1.691c-.74.385-1.6.469-2.4.236-.81-.234-1.49-.767-1.9-1.49-.42-.722-.54-1.578-.35-2.389.2-.811.7-1.514 1.41-1.964z" fill="#f5f5f5"/><path d="m1124.01 389.496c-.04-.793-.27-1.565-.67-2.253s-.95-1.272-1.61-1.707c-.23-.169-.5-.274-.79-.301-.28-.028-.57.022-.83.143l.23-.14.18-.096c.26-.118.54-.166.83-.138.28.028.56.13.79.296.67.429 1.23 1.012 1.64 1.7.4.688.64 1.462.69 2.259.03.285-.02.572-.14.832-.12.261-.3.484-.54.649l-.4.236c.22-.171.4-.397.51-.657s.15-.544.11-.823z" fill="#000" opacity=".1"/><path d="m1117.46 392.851c-.63-.275-1.15-.745-1.49-1.341-.21-.367-.35-.774-.41-1.196-.05-.421-.03-.85.08-1.261s.3-.796.56-1.134c.26-.337.58-.62.95-.832l2.96-1.682c.25-.122.54-.172.82-.144.29.028.56.132.79.301.29.169.55.378.79.622-1.76.982-3.82 2.19-4.92 2.83-1.6.902-1.01 3.267-.13 3.837z" fill="#e0e0e0"/><path d="m1117.92 391.791c-.16-.284-.2-.621-.12-.937.08-.317.29-.588.57-.754l4.98-2.864c.41.685.64 1.462.66 2.26.01.076.01.152 0 .227l-4.38 2.523c-.14.085-.3.14-.46.162-.16.023-.33.013-.49-.03-.16-.042-.31-.116-.44-.217s-.23-.227-.32-.37z" fill="#fff"/><path d="m1128.77 384.59c0 .053 0 .114.07.175.01.042.03.083.04.123v.14c.01.05.01.099 0 .149v.079c.04.223.06.448.06.674v.237c0-1.06-1.76-2.733-3.39-1.805-.56.316-1.4.789-3.11 1.752-.23-.244-.49-.453-.78-.622-.23-.169-.5-.273-.79-.301-.28-.028-.57.022-.83.144l4.06-2.339c.74-.415 1.61-.524 2.43-.303s1.52.754 1.95 1.485c.05.086.1.177.13.272.07.028.12.077.16.14z" fill="#000" opacity=".1"/><path d="m1151.7 389.522c.19.105.38.195.58.271l.23.088c.86.27 1.77.368 2.67.286.91-.081 1.78-.339 2.58-.759l5.48-3.162h.04c.66-.343 1.21-.869 1.58-1.516.26-.443.43-.934.5-1.442.06-.509.03-1.027-.1-1.523-.14-.496-.36-.96-.68-1.367-.31-.407-.7-.748-1.15-1.003-.18-.104-.38-.195-.58-.271l-.22-.079c-1.75-.547-3.64-.38-5.26.464l-5.47 3.163h-.05c-.62.32-1.15.803-1.52 1.398-.37.594-.58 1.278-.6 1.98-.01.701.16 1.394.51 2.005.34.611.85 1.118 1.45 1.467z" fill="#fafafa" opacity=".7"/><path d="m1163.43 382.75c-.95-.458-1.99-.687-3.04-.667-1.06.019-2.09.287-3.02.781l-5.47 3.163c-1.76.998-1.82 2.558-.2 3.504.95.459 1.99.687 3.05.668 1.05-.02 2.08-.288 3.01-.782l5.48-3.163c1.73-.998 1.81-2.566.19-3.504z" fill="#e0e0e0"/><path d="m1164.94 384.564c.47-.893.57-1.932.29-2.9s-.92-1.791-1.8-2.295c-.18-.104-.38-.195-.58-.271l-.22-.079c-1.5-.462-3.11-.413-4.58.14 2.57-.263 4.15-.333 5.76 1.016.61.529 1.05 1.233 1.25 2.017.2.785.16 1.612-.12 2.372z" fill="#fff"/><path d="m1155.19 381.945c.26-.123.55-.173.83-.146.29.028.56.133.79.303.66.435 1.22 1.019 1.62 1.707.39.688.62 1.46.67 2.253.03.283-.02.57-.14.83-.11.26-.3.484-.53.65l-2.94 1.691c-.74.385-1.6.469-2.4.236-.81-.234-1.49-.767-1.9-1.49-.42-.722-.54-1.578-.35-2.389.2-.81.7-1.514 1.41-1.964z" fill="#f5f5f5"/><path d="m1159.25 379.606c.37-.213.78-.35 1.2-.405.42-.056.85-.027 1.26.083s.79.3 1.13.559.62.581.83.95c.22.368.35.774.41 1.195.05.422.03.85-.08 1.26-.12.411-.3.795-.56 1.132s-.59.62-.95.832l-4.06 2.33c.23-.166.42-.39.53-.65.12-.26.17-.547.14-.83-.05-.793-.28-1.565-.67-2.253-.4-.688-.96-1.272-1.62-1.707-.23-.17-.5-.275-.79-.303-.28-.027-.57.023-.83.146z" fill="#19793f"/><path d="m1163.01 382.61c-.08-.141-.19-.265-.32-.364-.12-.099-.27-.172-.43-.215-.16-.042-.32-.053-.48-.032s-.32.074-.46.156l-4.92 2.812c.38.712.94 1.315 1.62 1.752l.2.105 4.33-2.488c.14-.08.27-.189.38-.32.1-.131.18-.282.22-.443.04-.162.05-.33.03-.496-.02-.165-.08-.324-.17-.467z" fill="#fff" opacity=".4"/><path d="m1155.19 381.945c.26-.123.55-.173.83-.146.29.028.56.133.79.303.66.435 1.22 1.019 1.62 1.707.39.688.62 1.46.67 2.253.03.283-.02.57-.14.83-.11.26-.3.484-.53.65l-2.94 1.691c-.74.385-1.6.469-2.4.236-.81-.234-1.49-.767-1.9-1.49-.42-.722-.54-1.578-.35-2.389.2-.81.7-1.514 1.41-1.964z" fill="#f5f5f5"/><path d="m1159.1 386.062c-.05-.793-.28-1.565-.67-2.253-.4-.688-.96-1.272-1.62-1.707-.23-.17-.5-.275-.79-.303-.28-.027-.57.023-.83.146l.24-.141.17-.096c.26-.122.54-.172.83-.144.28.028.55.132.78.302.67.434 1.23 1.021 1.63 1.712s.63 1.468.67 2.265c.03.284-.02.571-.14.831s-.3.484-.54.649l-.4.237c.24-.168.42-.395.54-.658.12-.264.16-.554.13-.84z" fill="#000" opacity=".1"/><path d="m1152.55 389.391c-.62-.276-1.15-.746-1.49-1.341-.41-.739-.52-1.613-.3-2.432.22-.82.75-1.519 1.49-1.948l2.94-1.682c.26-.122.55-.172.83-.145.29.028.56.133.79.303.29.168.55.374.79.613l-4.92 2.838c-1.61.885-1.06 3.242-.13 3.794z" fill="#e0e0e0"/><path d="m1153.01 388.357c-.08-.14-.14-.295-.16-.456s-.01-.325.03-.482.11-.305.21-.434.22-.237.36-.319l4.97-2.864c.42.682.65 1.461.68 2.26v.219l-4.38 2.531c-.15.085-.3.14-.47.162-.16.023-.32.013-.48-.029-.16-.043-.31-.117-.44-.218s-.24-.227-.32-.37z" fill="#fff"/><path d="m1163.89 381.156c0 .053.04.114.07.167.02.052 0 .087 0 .131.02.045.03.092.04.14v.149.079c.04.22.05.443.05.666v.245c0-1.06-1.75-2.742-3.39-1.805l-3.1 1.752c-.23-.239-.5-.445-.79-.613-.23-.17-.5-.275-.78-.303-.29-.027-.58.023-.84.146l4.07-2.339c.74-.429 1.63-.546 2.46-.324.82.222 1.53.763 1.96 1.506l.13.272c.05.04.08.084.12.131z" fill="#000" opacity=".1"/><path d="m1131.28 401.418c.19.106.38.199.57.28l.23.079c.86.271 1.77.368 2.68.287.9-.081 1.77-.339 2.58-.76l5.47-3.162h.05c.62-.321 1.15-.804 1.52-1.398.37-.595.58-1.279.59-1.98.02-.702-.16-1.395-.5-2.006s-.85-1.118-1.46-1.467c-.18-.101-.38-.191-.58-.271l-.23-.079c-1.75-.547-3.64-.38-5.26.464l-5.46 3.136h-.05c-.62.324-1.14.808-1.51 1.403s-.58 1.278-.59 1.979c-.02.7.16 1.391.5 2.002.34.61.85 1.117 1.45 1.467z" fill="#fafafa" opacity=".7"/><path d="m1143 394.647c-.94-.457-1.98-.685-3.04-.665-1.05.02-2.08.286-3.01.778l-5.47 3.163c-1.76.998-1.82 2.558-.2 3.504.95.459 1.99.687 3.04.668 1.06-.02 2.09-.288 3.02-.782l5.47-3.162c1.73-.999 1.81-2.567.19-3.504z" fill="#e0e0e0"/><path d="m1144.51 396.46c.47-.892.57-1.93.3-2.898-.28-.968-.93-1.791-1.8-2.297-.18-.101-.38-.192-.58-.271l-.23-.079c-1.51-.448-3.12-.383-4.59.184 2.56-.254 4.15-.333 5.76 1.025.61.523 1.04 1.217 1.24 1.991.21.774.17 1.592-.1 2.345z" fill="#fff"/><path d="m1134.77 393.841c.26-.122.54-.172.83-.144.28.027.55.132.78.301.67.433 1.22 1.018 1.62 1.706s.63 1.46.67 2.254c.03.283-.02.57-.13.83-.12.26-.31.484-.54.65l-2.94 1.7c-.75.43-1.63.546-2.46.323-.83-.222-1.54-.766-1.97-1.51-.43-.745-.55-1.63-.32-2.46.22-.831.76-1.539 1.51-1.968z" fill="#f5f5f5"/><path d="m1138.83 391.502c.36-.236.78-.395 1.21-.467s.87-.056 1.3.048c.42.104.82.292 1.17.555.36.262.65.593.87.972s.36.799.41 1.233c.05.435.02.876-.11 1.296-.12.421-.33.812-.6 1.15-.28.339-.62.617-1.01.819l-4.07 2.33c.23-.166.42-.39.54-.65.11-.26.16-.547.13-.83-.04-.794-.27-1.566-.67-2.254s-.95-1.273-1.62-1.706c-.23-.169-.5-.274-.78-.301-.29-.028-.57.022-.83.144z" fill="#19793f"/><path d="m1142.57 394.506c-.08-.141-.18-.265-.31-.364s-.28-.172-.44-.215c-.15-.042-.32-.053-.48-.032-.16.022-.31.074-.46.156l-4.9 2.821c.38.716.93 1.32 1.62 1.752.06.038.13.073.19.105l4.33-2.488c.15-.081.28-.191.38-.323s.18-.284.22-.446c.04-.163.05-.332.03-.498-.03-.166-.09-.325-.18-.468z" fill="#fff" opacity=".4"/><path d="m1134.77 393.841c.26-.122.54-.172.83-.144.28.027.55.132.78.301.67.433 1.22 1.018 1.62 1.706s.63 1.46.67 2.254c.03.283-.02.57-.13.83-.12.26-.31.484-.54.65l-2.94 1.7c-.75.43-1.63.546-2.46.323-.83-.222-1.54-.766-1.97-1.51-.43-.745-.55-1.63-.32-2.46.22-.831.76-1.539 1.51-1.968z" fill="#f5f5f5"/><path d="m1138.67 397.958c-.04-.794-.27-1.566-.67-2.254s-.95-1.273-1.62-1.706c-.23-.169-.5-.273-.78-.301-.29-.028-.57.022-.83.144l.21-.114.18-.097c.26-.118.54-.165.83-.138.28.028.55.13.79.296.66.435 1.21 1.019 1.61 1.707s.63 1.46.67 2.253c.03.284-.01.572-.13.833s-.31.484-.54.647l-.41.237c.24-.166.43-.394.55-.659.12-.266.17-.559.14-.848z" fill="#000" opacity=".1"/><path d="m1132.12 401.287c-.54-.243-1.01-.632-1.35-1.124s-.53-1.068-.56-1.665c-.03-.596.1-1.189.38-1.714.29-.525.71-.962 1.23-1.261l2.95-1.682c.26-.122.54-.172.83-.144.28.027.55.132.78.301.29.169.56.378.79.622l-4.91 2.83c-1.62.928-1.04 3.285-.14 3.837z" fill="#e0e0e0"/><path d="m1132.58 400.253c-.08-.141-.13-.296-.16-.458-.02-.161-.01-.325.04-.482.04-.157.11-.304.21-.433s.22-.237.37-.318l4.96-2.864c.41.685.64 1.462.67 2.26v.228l-4.38 2.522c-.14.085-.3.14-.46.163-.17.022-.33.012-.49-.03-.16-.043-.31-.117-.44-.218s-.24-.226-.32-.37z" fill="#fff"/><path d="m1143.42 393.052c.03.056.06.115.07.175v.123.14c.01.05.01.1 0 .149v.079c.05.222.07.448.06.675v.236c0-1.06-1.75-2.733-3.39-1.805-.55.325-1.4.789-3.1 1.752-.24-.244-.5-.453-.79-.621-.23-.17-.5-.274-.79-.302-.28-.028-.57.022-.82.144l4.05-2.339c.37-.214.78-.352 1.2-.409.42-.056.85-.028 1.26.082s.8.3 1.13.559c.34.259.62.582.84.951.05.087.09.178.14.271 0 0 .14.105.14.14z" fill="#000" opacity=".1"/><path d="m1166.36 397.984c.18.106.37.197.57.272l.23.087c.86.27 1.77.368 2.67.287.9-.082 1.78-.34 2.58-.76l5.48-3.162h.04c.62-.323 1.14-.808 1.51-1.403s.58-1.278.59-1.978c.02-.701-.15-1.392-.5-2.002-.34-.611-.84-1.117-1.45-1.467-.18-.103-.37-.194-.57-.272l-.24-.079c-1.74-.547-3.63-.38-5.25.464l-5.46 3.128h-.04c-.63.322-1.15.806-1.52 1.4-.37.595-.58 1.278-.59 1.978-.02.701.15 1.392.5 2.003.34.611.84 1.118 1.45 1.469z" fill="#fafafa" opacity=".7"/><path d="m1178.09 391.213c-.95-.46-1.99-.689-3.04-.669s-2.09.288-3.02.783l-5.47 3.162c-1.75.998-1.81 2.558-.2 3.504.95.459 1.99.687 3.04.668 1.06-.02 2.09-.288 3.02-.782l5.48-3.162c1.76-.99 1.81-2.567.19-3.504z" fill="#e0e0e0"/><path d="m1179.59 393.026c.47-.893.58-1.933.3-2.901-.28-.969-.93-1.791-1.8-2.294-.19-.103-.38-.193-.57-.271l-.24-.079c-1.5-.462-3.1-.413-4.57.14 2.57-.254 4.15-.333 5.76 1.016.61.531 1.05 1.235 1.25 2.019.2.785.16 1.611-.13 2.37z" fill="#fff"/><path d="m1169.85 390.407c.26-.122.55-.172.83-.144.29.028.56.132.79.301.66.435 1.21 1.02 1.61 1.707.4.688.63 1.46.67 2.253.03.284-.01.57-.13.83s-.3.485-.53.65l-2.95 1.691c-.37.236-.78.395-1.21.467s-.87.055-1.3-.048c-.43-.104-.83-.293-1.18-.555s-.64-.593-.86-.972-.36-.799-.41-1.234c-.05-.434-.02-.875.1-1.295.13-.421.33-.812.61-1.15.28-.339.62-.617 1.01-.819z" fill="#f5f5f5"/><path d="m1173.91 388.068c.74-.385 1.6-.47 2.4-.236s1.48.767 1.9 1.489c.42.723.54 1.579.34 2.389-.19.811-.7 1.515-1.4 1.964l-4.06 2.33c.23-.165.41-.39.53-.65s.16-.546.13-.83c-.04-.793-.27-1.565-.67-2.253-.4-.687-.95-1.272-1.61-1.707-.23-.169-.5-.273-.79-.301-.28-.028-.57.022-.83.144z" fill="#19793f"/><path d="m1177.66 391.099c-.08-.141-.19-.265-.32-.365-.13-.099-.27-.172-.43-.214-.16-.043-.32-.054-.48-.032-.17.021-.32.074-.46.155l-4.91 2.821c.39.697.94 1.285 1.61 1.708l.21.105 4.32-2.488c.14-.08.27-.188.37-.317s.17-.276.21-.433.06-.321.03-.483c-.02-.161-.07-.316-.15-.457z" fill="#fff" opacity=".4"/><path d="m1169.85 390.407c.26-.122.55-.172.83-.144.29.028.56.132.79.301.66.435 1.21 1.02 1.61 1.707.4.688.63 1.46.67 2.253.03.284-.01.57-.13.83s-.3.485-.53.65l-2.95 1.691c-.37.236-.78.395-1.21.467s-.87.055-1.3-.048c-.43-.104-.83-.293-1.18-.555s-.64-.593-.86-.972-.36-.799-.41-1.234c-.05-.434-.02-.875.1-1.295.13-.421.33-.812.61-1.15.28-.339.62-.617 1.01-.819z" fill="#f5f5f5"/><path d="m1173.75 394.524c-.04-.793-.27-1.565-.67-2.253-.4-.687-.95-1.272-1.61-1.707-.23-.169-.5-.273-.79-.301-.28-.028-.57.022-.83.144l.23-.14.18-.097c.26-.123.54-.173.83-.145.28.028.56.132.79.303.66.434 1.22 1.019 1.61 1.707.4.688.63 1.459.67 2.252.04.285-.01.573-.13.834-.12.26-.31.484-.54.647l-.4.236c.23-.165.41-.39.53-.65s.16-.546.13-.83z" fill="#000" opacity=".1"/><path d="m1167.21 397.853c-.55-.243-1.01-.632-1.35-1.124s-.54-1.068-.57-1.665c-.03-.596.1-1.189.39-1.714.28-.525.7-.962 1.22-1.261l2.95-1.682c.26-.122.55-.172.83-.144.29.028.56.132.79.301.28.168.55.374.78.614l-4.91 2.838c-1.61.928-1.03 3.285-.13 3.837z" fill="#e0e0e0"/><path d="m1167.66 396.819c-.08-.141-.13-.296-.15-.458-.02-.161-.01-.325.03-.482s.12-.304.21-.433c.1-.129.23-.237.37-.318l4.97-2.864c.41.685.63 1.462.66 2.26.01.073.01.146 0 .219l-4.38 2.532c-.14.084-.3.139-.46.162-.16.022-.33.012-.49-.03-.16-.043-.31-.117-.44-.218-.13-.1-.24-.226-.32-.37z" fill="#fff"/><path d="m1178.51 389.618c.03.056.05.115.07.176 0 0 0 .078.04.122.05.044 0 .096 0 .14.01.05.01.1 0 .149v.079c.05.219.06.443.05.666.01.079.01.158 0 .236 0-1.06-1.75-2.742-3.39-1.804l-3.1 1.752c-.23-.24-.5-.446-.78-.613-.23-.17-.5-.274-.79-.302-.28-.028-.57.022-.83.144l4.06-2.339c.37-.214.77-.352 1.2-.409.42-.056.85-.028 1.26.082s.79.3 1.13.559.62.582.83.951c.06.086.1.177.13.271.06.035.09.084.12.14z" fill="#000" opacity=".1"/><path d="m1145.94 409.88c.18.111.38.205.58.281l.22.078c.87.272 1.78.37 2.68.289s1.78-.34 2.58-.762l5.48-3.162h.04c.62-.32 1.15-.804 1.52-1.398.38-.595.58-1.279.6-1.98.01-.702-.16-1.395-.51-2.006-.34-.611-.84-1.118-1.45-1.466-.19-.102-.38-.192-.58-.272l-.23-.079c-1.74-.544-3.63-.377-5.25.465l-5.48 3.162c-.67.339-1.22.866-1.59 1.515-.25.444-.42.934-.49 1.443s-.04 1.026.1 1.522c.13.496.36.961.67 1.368.32.406.71.747 1.15 1.002z" fill="#fafafa" opacity=".7"/><path d="m1157.66 403.109c-.95-.457-1.99-.685-3.04-.665s-2.08.287-3.01.779l-5.48 3.162c-1.75.999-1.81 2.558-.19 3.504.95.459 1.99.689 3.04.669s2.08-.288 3.01-.783l5.48-3.162c1.72-.999 1.81-2.567.19-3.504z" fill="#e0e0e0"/><path d="m1159.18 404.922c.46-.893.57-1.932.29-2.9s-.93-1.79-1.8-2.295c-.19-.101-.38-.192-.58-.271l-.23-.079c-1.5-.459-3.1-.407-4.57.149 2.56-.263 4.14-.342 5.76 1.016.61.527 1.05 1.229 1.25 2.012.2.784.16 1.61-.12 2.368z" fill="#fff"/><path d="m1149.43 402.303c.25-.123.54-.173.83-.145.28.027.56.132.79.302.66.435 1.21 1.02 1.61 1.707.4.688.63 1.46.67 2.253.03.285-.01.572-.13.833-.12.26-.31.484-.54.647l-2.95 1.7c-.74.43-1.63.546-2.46.323-.83-.222-1.53-.765-1.96-1.51s-.55-1.63-.33-2.46c.23-.83.77-1.539 1.51-1.968z" fill="#f5f5f5"/><path d="m1153.48 399.964c.37-.236.78-.395 1.21-.467.44-.072.88-.055 1.3.048.43.104.83.292 1.18.555.35.262.64.593.86.972s.36.799.42 1.233c.05.435.01.876-.11 1.296-.12.421-.33.812-.61 1.15-.28.339-.62.617-1.01.819l-4.06 2.33c.23-.163.42-.387.54-.647.12-.261.16-.548.13-.833-.04-.793-.27-1.565-.67-2.253-.4-.687-.95-1.272-1.61-1.707-.23-.17-.51-.275-.79-.302-.29-.028-.58.022-.83.145z" fill="#19793f"/><path d="m1157.23 402.969c-.08-.142-.19-.265-.32-.365-.13-.099-.27-.172-.43-.215-.16-.042-.32-.053-.48-.032-.16.022-.32.075-.46.156l-4.91 2.821c.39.698.95 1.286 1.62 1.708.07.038.13.073.2.105l4.33-2.488c.14-.081.27-.19.37-.319.09-.129.17-.276.21-.433s.05-.321.03-.482-.08-.316-.16-.456z" fill="#fff" opacity=".4"/><path d="m1149.43 402.303c.25-.123.54-.173.83-.145.28.027.56.132.79.302.66.435 1.21 1.02 1.61 1.707.4.688.63 1.46.67 2.253.03.285-.01.572-.13.833-.12.26-.31.484-.54.647l-2.95 1.7c-.74.43-1.63.546-2.46.323-.83-.222-1.53-.765-1.96-1.51s-.55-1.63-.33-2.46c.23-.83.77-1.539 1.51-1.968z" fill="#f5f5f5"/><path d="m1153.38 406.42c-.05-.793-.28-1.565-.67-2.253-.4-.687-.96-1.272-1.62-1.707-.23-.17-.5-.275-.79-.302-.28-.028-.57.022-.83.145l.23-.14.17-.097c.26-.118.55-.166.83-.138.29.028.56.13.79.296.67.434 1.22 1.019 1.62 1.707s.63 1.459.67 2.252c.03.284-.02.571-.13.831-.12.26-.3.485-.54.65l-.41.236c.24-.163.42-.387.54-.647.12-.261.17-.548.14-.833z" fill="#000" opacity=".1"/><path d="m1146.79 409.749c-.63-.275-1.16-.745-1.5-1.34-.43-.744-.54-1.628-.32-2.457s.76-1.537 1.5-1.967l2.96-1.682c.25-.123.54-.173.83-.145.28.027.56.132.79.302.28.176.55.385.78.622l-4.92 2.83c-1.61.955-1.03 3.294-.12 3.837z" fill="#e0e0e0"/><path d="m1147.24 408.724c-.08-.142-.13-.298-.15-.46s-.01-.326.03-.484.12-.306.21-.436c.1-.129.23-.238.37-.32l4.97-2.864c.41.684.64 1.462.67 2.26v.228l-4.38 2.523c-.14.084-.3.14-.46.164-.16.023-.33.014-.49-.028-.16-.041-.31-.114-.44-.215-.13-.1-.24-.225-.33-.368z" fill="#fff"/><path d="m1158.09 401.514c0 .062.04.114.06.176.02.038.03.08.04.122 0 0 0 .097.05.14.04.044 0 .106 0 .149v.079c.04.222.06.449.05.675v.236c0-1.06-1.75-2.733-3.39-1.804-.55.324-1.39.788-3.09 1.752-.24-.238-.5-.447-.79-.622-.23-.171-.5-.275-.79-.303-.28-.028-.57.022-.83.145l4.05-2.339c.37-.213.78-.352 1.2-.408.42-.057.85-.029 1.26.081s.8.3 1.14.559c.33.259.62.582.83.951.05.087.1.184.14.271z" fill="#000" opacity=".1"/><path d="m1085.18 278.673c0-4.897-3.23-9.794-9.7-13.526-12.95-7.472-33.93-7.472-46.86 0-6.47 3.732-9.71 8.629-9.71 13.526v76.904c0 4.897 3.24 9.794 9.71 13.534 12.93 7.472 33.91 7.472 46.86 0 6.47-3.74 9.71-8.637 9.7-13.534z" fill="#19793f"/><path d="m1072.44 263.614v107.03c1.05-.473 2.07-.981 3.04-1.533 1.92-1.097 3.69-2.44 5.26-3.994v-95.975c-1.57-1.557-3.34-2.9-5.26-3.995-.98-.561-2-1.073-3.04-1.533z" fill="#fff" opacity=".4"/><path d="m1063.76 373.465c1.61-.353 3.2-.789 4.77-1.305v-110.061c-1.57-.524-3.16-.96-4.77-1.305z" fill="#fff" opacity=".4"/><path d="m1084.61 275.143c-2.06-2.764-4.69-5.05-7.71-6.702-12.77-7.367-32.92-7.884-46.72-1.524v-2.584c-.52.263-1.06.525-1.56.814-6.47 3.732-9.71 8.629-9.71 13.526v76.904c0 4.897 3.24 9.794 9.71 13.534 12.93 7.472 33.91 7.472 46.86 0 2.19-1.231 4.19-2.791 5.91-4.625-6.14 5.755-21.51 8.926-32.91 6.684-11.39-2.243-18.3-9.514-18.3-14.682v-2.768c6.39 3.504 14.75 5.107 22.92 5.107v-49.371c-8.17 0-16.53-1.262-22.92-4.696v-6.088c13.8 6.342 33.95 5.843 46.72-1.533 3.36-1.806 6.21-4.434 8.28-7.639v-10.827c0-1.199-.2-2.391-.57-3.53z" fill="#000" opacity=".1"/><path d="m1024.51 357.951v-89.913c-3.73 3.206-5.6 6.921-5.6 5.843v76.922c0 9.688 3.24 14.585 9.71 18.326 3.94 2.174 8.2 3.697 12.63 4.511-12.5-3.373-16.74-11.878-16.74-15.689z" fill="#000" opacity=".1"/><path d="m1087.19 263.544c0-5.194-3.43-10.389-10.29-14.348-13.75-7.893-35.98-7.893-49.67-.009-6.86 3.959-10.29 9.154-10.29 14.349v15.575c0 5.195 3.43 10.38 10.29 14.349 13.73 7.884 35.98 7.884 49.71 0 6.86-3.969 10.29-9.154 10.29-14.349v-15.567z" fill="#e0e0e0"/><path d="m1060.46 298.795c-17.39.096-26.57-5.545-29.36-10.162-2.12-3.504-2.48-9.969-2.48-16.381 0 0-1.97-14.612-1.58-14.656.24 0-4.17-.981-7.55-1.699-1.64 2.216-2.55 4.891-2.59 7.647v15.576c0 5.194 3.44 10.38 10.3 14.349 9.02 5.203 21.71 6.964 33.26 5.326z" fill="#000" opacity=".1"/><g fill="#000" opacity=".1"><path d="m1048.55 299.215c-.57 0-1.13-.044-1.69-.096v-20.402h1.69z" opacity=".1"/><path d="m1033.6 296.333c-.58-.201-1.13-.42-1.69-.639v-20.087h1.69z" opacity=".1"/><path d="m1040.83 298.243c-.55-.114-1.14-.167-1.68-.289v-20.271h1.68z" opacity=".1"/><path d="m1025.37 292.295v-19.903h1.68v20.98c-.6-.385-1.14-.709-1.68-1.077z" opacity=".1"/><path d="m1017.74 283.465c-.55-1.394-.85-2.879-.87-4.38v-15.541c.01-.976.15-1.946.39-2.89h.45z" opacity=".1"/><path d="m1020.15 287.599v-19.692h1.69v21.576c-.6-.593-1.16-1.222-1.69-1.884z" opacity=".1"/><path d="m1056.46 299.163c-.57.043-1.13.07-1.7.096v-20.507h1.7z" opacity=".1"/><path d="m1071.6 295.965c-.54.21-1.13.359-1.68.552v-20.577h1.68z" opacity=".1"/><path d="m1064.24 298.103c-.55.113-1.13.184-1.69.289v-20.578h1.69z" opacity=".1"/><path d="m1076.6 293.609v-20.464h1.69v19.43c-.46.298-.87.604-1.39.876z" opacity=".1"/><path d="m1082.47 289.246v-20.603h1.7v18.685c-.52.675-1.09 1.316-1.7 1.918z" opacity=".1"/><path d="m1086.34 262.099h.73c.07.479.11.962.12 1.445v15.576c-.02 1.501-.31 2.986-.87 4.38z" opacity=".1"/></g><path d="m1027.23 277.885c13.73 7.927 35.98 7.927 49.71 0 13.72-7.928 13.72-20.77 0-28.69-13.73-7.919-36.02-7.892-49.71-.008s-13.76 20.778 0 28.698z" fill="#f5f5f5"/><path d="m1078.78 276.684c11.79-7.971 11.17-19.955-1.88-27.488-6.69-3.864-15.41-5.835-24.18-5.931-4.49.705-8.83 2.187-12.82 4.38-11.86 6.789-11.86 20.323 0 27.112 10.59 6.045 27.03 6.675 38.88 1.927z" fill="#fafafa"/><path d="m1030.53 367.596c11.88 5.974 31.16 5.974 43.04 0 11.89-5.975 11.89-15.654 0-21.629-11.88-5.974-31.16-5.974-43.04 0-11.89 5.975-11.89 15.654 0 21.629z" fill="#000" opacity=".1"/><path d="m1018.91 291.971c0 4.896 3.24 9.793 9.71 13.525 6.46 3.732 14.95 5.606 23.43 5.606v48.96c-8.48 0-16.96-1.875-23.43-5.606-6.48-3.732-9.71-8.629-9.71-13.526z" fill="#fff"/><path d="m1028.62 321.22c3.07 1.722 6.36 3.027 9.77 3.881v-3.968c-3.41-.857-6.7-2.165-9.77-3.89-6.47-3.732-9.71-8.628-9.71-13.525v3.968c0 4.897 3.24 9.829 9.71 13.534z" fill="#e0e0e0"/><path d="m1038.39 342.7c-3.41-.854-6.7-2.159-9.77-3.881-6.47-3.74-9.71-8.637-9.71-13.534v3.977c0 4.897 3.24 9.794 9.71 13.525 3.07 1.726 6.35 3.031 9.77 3.881z" fill="#e0e0e0"/><path d="m1028.62 332.004c3.07 1.734 6.35 3.048 9.77 3.907v-3.969c-3.41-.869-6.7-2.185-9.77-3.915-6.47-3.741-9.71-8.638-9.71-13.534v3.977c0 4.905 3.24 9.793 9.71 13.534z" fill="#e0e0e0"/><path d="m1019.58 271.332s11.45 11.502 33.52 10.906c22.08-.595 30.91-12.658 32.08-16.398 1.16-3.741.43-8.603-2.98-12.729 1.5 1.311 2.71 2.911 3.57 4.704.86 1.794 1.34 3.743 1.42 5.729v15.576c0 1.314.68 5.843-6.44 11.712 0 0 4.18-4.748 4.18-9.321v-10.766s-7.82 13.079-31.83 13.079-32.3-10.53-33.52-12.492z" fill="#fff"/><path d="m1018.28 393.552c5.56-3.207 14.58-3.207 20.15 0 1.86.919 3.29 2.537 3.97 4.502 5.31 3.224 5.25 8.322-.23 11.485-5.49 3.162-14.59 3.206-20.15 0-2.2-1.271-3.5-2.856-3.98-4.503-5.31-3.224-5.24-8.313.24-11.484z" fill="#e0e0e0"/><path d="m1021.1 399.289v3.811c0 1.752 1.14 3.443 3.42 4.757 4.54 2.628 11.92 2.628 16.47 0 1-.548 1.87-1.307 2.55-2.225.55-.732.86-1.617.88-2.532v-3.811c0-.325-.04-.648-.12-.963 0-.105-.06-.21-.1-.316-.6-1.52-1.74-2.766-3.2-3.504-4.26-2.47-11.03-2.628-15.61-.455v1.901l-1.64.963v-1.874c-.73.493-1.36 1.117-1.86 1.839-.11.164-.2.33-.29.5-.11.202-.19.413-.26.63-.16.41-.24.843-.24 1.279z" fill="#f0f0f0"/><path d="m1029.07 392.903c4.05-.762 8.67-.219 11.89 1.638 1.46.738 2.6 1.984 3.2 3.504 0 .106.07.211.09.316.08.315.12.638.13.963v3.811c-.03.915-.33 1.8-.88 2.532-.68.918-1.55 1.677-2.56 2.225-3.21 1.857-7.84 2.391-11.89 1.62z" fill="#ebebeb"/><path d="m1040.96 394.541c4.27 2.462 4.53 6.369.78 9.006l-16.39-9.461c4.58-2.164 11.33-2.015 15.61.455z" fill="#fafafa"/><path d="m1032.72 392.57v.771c2.75-.065 5.46.578 7.89 1.866 1.88 1.086 2.95 2.488 3.02 3.942-.02.694-.2 1.373-.53 1.982-.33.61-.81 1.131-1.38 1.522l-14.58-8.418c1.82-.587 3.71-.883 5.62-.876v-.771zm.04.018c-2.54-.032-5.06.485-7.38 1.515l16.39 9.461c3.75-2.628 3.51-6.543-.78-9.005-2.53-1.348-5.36-2.026-8.23-1.971z" fill="#ebebeb"/><path d="m1041.75 402.548s4.53-3.504-.51-7.84c3.99 2.47 4.17 6.263.5 8.839l-16.39-9.461z" fill="#fff"/><path d="m1023.73 395.041 16.39 9.461c-4.57 2.163-11.34 2.014-15.61-.456-4.28-2.47-4.56-6.368-.78-9.005z" fill="#fafafa"/><path d="m1023.73 395.961 14.57 8.418c-1.81.587-3.7.882-5.6.876-2.75.066-5.46-.577-7.89-1.866-1.88-1.086-2.96-2.488-3.03-3.942.02-.694.2-1.373.54-1.982.33-.609.8-1.131 1.37-1.522zm0-.92c-3.75 2.628-3.51 6.543.78 9.005 2.53 1.349 5.37 2.027 8.24 1.971 2.54.031 5.05-.486 7.37-1.515z" fill="#ebebeb"/><path d="m1040.09 404.502c-4.57 2.163-11.33 2.014-15.61-.456-.47-.273-.92-.583-1.35-.929 8.39 4.196 15.13 1.236 15.13 1.236l-14.53-9.312z" fill="#fff"/><path d="m1025.35 395.987 16.4 9.513-.01-1.953-16.39-9.461z" fill="#e0e0e0"/><path d="m1040.09 404.502v1.944l1.66-.946z" fill="#000" opacity=".2"/><path d="m1014.82 392.781v3.81c0 1.752 1.14 3.434 3.42 4.748 4.54 2.628 11.92 2.628 16.47 0 1.01-.545 1.88-1.301 2.56-2.216.55-.732.86-1.617.88-2.532v-3.81c0-.325-.05-.649-.13-.964-.02-.11-.05-.218-.09-.324-.6-1.518-1.74-2.765-3.19-3.504-4.28-2.462-11.04-2.628-15.61-.456v1.91l-1.65.955v-1.91c-.73.494-1.36 1.121-1.85 1.849-.12.156-.22.32-.3.49-.11.204-.19.415-.27.631-.15.424-.23.871-.24 1.323z" fill="#f0f0f0"/><path d="m1022.85 386.395c4.05-.771 8.68-.228 11.9 1.629 1.45.739 2.59 1.986 3.19 3.504.04.106.07.214.09.324.08.315.12.639.13.964v3.81c-.02.915-.33 1.8-.88 2.532-.68.915-1.56 1.671-2.56 2.216-3.22 1.857-7.88 2.4-11.89 1.63z" fill="#ebebeb"/><path d="m1034.71 388.024c4.27 2.47 4.53 6.369.78 9.014l-16.39-9.443c4.58-2.182 11.34-2.033 15.61.429z" fill="#fafafa"/><path d="m1026.47 386.833c2.74-.07 5.46.572 7.88 1.866 1.89 1.086 2.96 2.487 3.03 3.942-.02.693-.19 1.374-.52 1.985-.34.61-.81 1.131-1.38 1.519l-14.58-8.419c1.81-.591 3.7-.887 5.6-.876zm.03-.762c-2.53-.032-5.05.488-7.36 1.524l16.39 9.461c3.75-2.628 3.5-6.544-.78-9.014-2.54-1.349-5.37-2.028-8.25-1.971z" fill="#ebebeb"/><path d="m1035.49 396.039s4.53-3.504-.51-7.84c4.01 2.471 4.17 6.255.51 8.839l-16.39-9.443z" fill="#fff"/><path d="m1017.46 388.523 16.39 9.47c-4.59 2.164-11.39 2.015-15.61-.456-4.23-2.47-4.53-6.368-.78-9.014z" fill="#fafafa"/><path d="m1017.51 389.452 14.58 8.409c-1.82.591-3.71.886-5.62.876-2.74.065-5.46-.577-7.88-1.865-1.89-1.087-2.97-2.488-3.03-3.951.02-.694.2-1.373.54-1.982.33-.61.8-1.131 1.37-1.522zm-.09-.964c-3.75 2.628-3.5 6.544.78 9.014 2.53 1.348 5.37 2.026 8.23 1.971 2.54.032 5.06-.485 7.38-1.515z" fill="#ebebeb"/><path d="m1033.85 397.993c-4.59 2.164-11.39 2.015-15.61-.456-.48-.27-.93-.584-1.35-.937 8.38 4.205 15.12 1.244 15.12 1.244l-14.55-9.321z" fill="#fff"/><path d="m1019.1 389.478 16.39 9.514v-1.954l-16.39-9.461z" fill="#e0e0e0"/><path d="m1033.85 397.993v1.945l1.64-.946z" fill="#000" opacity=".2"/><path d="m1067.2 403.923c-5.22 3.014-5.22 7.884 0 10.898 5.21 3.013 13.66 3.013 18.87 0 5.22-3.014 5.22-7.884 0-10.898-5.21-3.013-13.66-3.013-18.87 0z" fill="#e0e0e0"/><path d="m1064.98 404.239v3.81c0 1.752 1.14 3.434 3.42 4.748 4.54 2.628 11.92 2.628 16.47 0 1.01-.545 1.88-1.301 2.56-2.216.55-.732.86-1.617.88-2.532v-3.81c-.01-.325-.05-.649-.13-.964 0-.105-.05-.21-.08-.324-.61-1.517-1.75-2.762-3.2-3.504-4.28-2.462-11.04-2.628-15.61-.447v1.901l-1.65.955v-1.91c-.73.491-1.36 1.115-1.86 1.84-.11.16-.21.327-.3.499-.11.2-.19.408-.26.622-.16.428-.24.878-.24 1.332z" fill="#f0f0f0"/><path d="m1072.98 397.809c4.04-.771 8.68-.219 11.89 1.629 1.46.743 2.59 1.988 3.2 3.504 0 .114.06.219.09.324.08.316.12.639.12.964v3.811c-.02.914-.33 1.8-.88 2.531-.68.915-1.55 1.672-2.55 2.217-3.23 1.865-7.89 2.4-11.9 1.629z" fill="#ebebeb"/><path d="m1084.87 399.438c4.27 2.471 4.53 6.378.78 9.014l-16.37-9.469c4.56-2.155 11.32-2.006 15.59.455z" fill="#fafafa"/><path d="m1076.64 398.247c2.74-.068 5.46.575 7.88 1.866 1.89 1.086 2.95 2.488 3.02 3.942-.01.693-.2 1.373-.53 1.982s-.8 1.131-1.38 1.522l-14.6-8.445c1.82-.587 3.71-.883 5.62-.876zm.01-.78c-2.54-.034-5.05.483-7.37 1.516l16.39 9.461c3.75-2.628 3.5-6.544-.78-9.014-2.54-1.342-5.37-2.017-8.24-1.963z" fill="#ebebeb"/><path d="m1085.65 407.454s4.53-3.504-.5-7.841c4 2.471 4.16 6.255.5 8.839l-16.37-9.469z" fill="#fff"/><path d="m1067.62 399.938 16.39 9.469c-4.59 2.164-11.34 2.015-15.61-.455-4.28-2.471-4.53-6.369-.78-9.014z" fill="#fafafa"/><path d="m1067.67 400.866 14.57 8.41c-1.81.591-3.7.886-5.61.876-2.74.065-5.46-.578-7.88-1.866-1.89-1.086-2.96-2.488-3.03-3.951.02-.693.2-1.373.54-1.982.33-.609.8-1.131 1.37-1.522zm-.09-.963c-3.75 2.628-3.5 6.552.78 9.014 2.53 1.347 5.37 2.026 8.23 1.971 2.54.031 5.06-.486 7.38-1.516l-16.35-9.434z" fill="#ebebeb"/><path d="m1084.01 409.407c-4.59 2.164-11.34 2.015-15.61-.455-.48-.271-.93-.581-1.35-.929 8.38 4.196 15.12 1.235 15.12 1.235l-14.55-9.32z" fill="#fff"/><path d="m1069.26 400.892 16.39 9.514v-1.954l-16.39-9.46z" fill="#e0e0e0"/><path d="m1084.01 409.407v1.945l1.64-.946z" fill="#000" opacity=".2"/><path d="m945.37 116.35c9.636 1.945 13.14 4.739 18.545 13.771 3.994 6.675 6.412 11.002 12.921 20.411l20.349 2.207-4.117 14.699s-12.536.395-19.631.955c-5.309.421-6.526 0-9.829-3.977-6.833-8.208-15.041-19.894-15.041-19.894z" fill="#e0e0e0"/><path d="m945.37 116.35c9.636 1.945 13.14 4.739 18.545 13.771 3.994 6.675 6.412 11.002 12.921 20.411l20.349 2.207-4.117 14.699s-12.536.395-19.631.955c-5.309.421-6.526 0-9.829-3.977-6.833-8.208-15.041-19.894-15.041-19.894z" fill="#000" opacity=".02"/><path d="m964.528 176.934 2.786 81.468s-24.949-6.132-47.304-2.356c-22.356 3.775-27.682 9.031-27.682 9.031l14.419-126.03 51.588 1.56s6.193 8.462 6.193 36.327z" fill="#ebebeb"/><path d="m896.822 393.14c-.237 5.177-1.148 7.84-3.417 10.634-1.301 1.452-2.983 2.51-4.854 3.057-1.871.546-3.858.559-5.736.036-4.004-1.078-8.173-4.074-9.102-8.419s-.061-8.558.876-11.922z" fill="#263238"/><path d="m883.393 308.825c2.899-14.06 6.132-20.35 6.736-23.547 0 0 4.258-33.209 6.185-61.469.928-13.604.595-22.776 9.487-38.544l51.684 12.702c.631 7.245 5.492 56.555 3.101 99.076-1.962 34.899-4.52 46.287-4.783 52.113-.149 3.311-.079 5.501.061 10.1.062 1.857.219 3.382 1.297 4.555 1.766 1.771 3.733 3.329 5.86 4.643 4.021 2.628 5.869 4.091 10.468 5.729.899.268 1.758.65 2.558 1.139.39.235.718.559.957.946s.383.826.419 1.279c0 1.244-1.139 2.225-2.295 2.838-4.161 2.208-9.365 1.752-13.911.438-4.547-1.314-8.76-3.504-13.359-4.826-3.171-.876-6.527-1.323-9.435-2.804-.959-.405-1.757-1.117-2.269-2.023-.287-.79-.363-1.642-.219-2.471.351-3.644.736-4.791.64-8.462-.088-3.504-.622-9.925-.876-13.411-.237-2.935-3.96-23.959-3.399-36.959.156-3.976.019-7.958-.412-11.913l-4.599-46.192c-2.102 7.718-9.89 30.073-12.316 40.296-2.979 12.474-4.582 27.568-10.775 50.405-1.752 6.43-4.976 14.183-5.773 18.072-.342 4.932-2.155 17.853-4.529 23.293-3.6 8.252-14.612 7.989-15.54.823-.78-6.088 3.32-22.022 3.504-26.017.184-3.994-1.796-33.428 1.533-49.809z" fill="#c8856a"/><path d="m880.195 363.268c-.876 5.142-1.646 9.041-2.233 12.019-1.665 5.081-2.313 7.534-3.25 10.836-1.542 5.396-1.244 10.232.411 13.14 2.462 4.301 12.405 8.76 17.634 3.206 4.275-4.511 4.1-6.666 4.091-13.368 0-2.102 0-4.003 0-5.799.132-5.991.237-7.157 1.218-10.958.56-2.173 0-5.484.49-7.788.491-2.505.701-3.6-.149-3.995 0 0-.438 3.207-.981 5.528-.499 2.129-.876 4.275-1.375 6.404-.578 2.628-1.069 5.256-1.883 7.84-.088.28-.237.622-.552.657-.316.035-.631-.403-.649-.762.017-.215-.011-.431-.081-.635-.071-.203-.184-.39-.33-.548-.429-.338-.908-.607-1.419-.797-1.017-.372-2.072-.628-3.145-.762-1.534-.306-3.107-.368-4.661-.184-.458.056-.895.228-1.27.499-.333.263-.446.631-.736.876-.106.122-.252.203-.412.229s-.324-.006-.464-.089c-.116-.121-.188-.279-.201-.447-.083-.603-.101-1.214-.053-1.822.132-3.355.377-6.648.876-9.986.502-2.62.768-5.278.798-7.945-.948 1.381-1.525 2.983-1.674 4.651z" fill="#37474f"/><path d="m932.992 372.195 52.726 10.599c.228.555.31 1.158.238 1.753s-.296 1.162-.649 1.646c-1.928 2.251-8.419 5.256-16.443 4.38s-12.395-4.17-15.356-6.228c-1.53-1.139-3.199-2.079-4.967-2.795-1.91-.788-4.722-.823-6.754-1.086-1.803-.337-3.58-.803-5.317-1.393-1.261-.377-2.446-.97-3.504-1.752-.184-.91-.264-1.839-.237-2.768.026-.692.14-1.682.263-2.356z" fill="#263238"/><path d="m945.125 367.447c-1.647-1.752-3.855-2.707-6.08-3.653-1.883-.815-2.4-1.559-2.461-3.565 0-.176-1.533-.062-1.752.175-.221.234-.392.509-.505.81-.112.301-.164.621-.152.942-.132 1.506-.325 2.207-.587 3.767-.587 3.46-1.428 4.555-.876 8.619 2.356 2.9 9.636 4.284 13.551 4.766 6.132.753 11.029 5.676 15.628 7.148 8.445 2.698 16.723 1.253 19.929-.307 3.714-1.804 5.799-4.774 2.751-6.929-1.866-1.314-12.439-6.552-14.34-7.542-1.507-.797-2.944-1.752-4.38-2.576-.243-.156-.509-.271-.789-.341-.342-.035-.688 0-1.016.105-1.855.424-3.665 1.025-5.405 1.796-.308.098-.593.258-.838.468-.245.211-.446.469-.59.758-.324 1.034 1.822 2.856.526 3.189-1.165.306-3.162-1.157-4.082-1.63-3.031-1.568-6.132-3.337-8.357-5.86-.051-.055-.11-.103-.175-.14z" fill="#37474f"/><path d="m957.397 182.707.543 5.256c4.985 29.057 5.449 67.566 4.915 79.269-1.56 34.497-6.01 95.335-6.01 95.335s-1.375 3.382-11.186 4.161c-7.551.605-11.94-1.962-11.94-1.962s-3.504-41.242-4.056-51.202c-.186-4.262-.095-8.531.272-12.781.448-5.305.384-10.641-.193-15.934l-2.628-29.46s-9.776 40.804-10.722 45.771c-4.722 24.913-16.18 71.096-16.18 71.096s-7.98 2.102-15.164.832c-7.183-1.27-8.803-3.802-8.803-3.802s4.441-51.938 5.562-62.003c1.507-13.455 2.9-19.719 3.916-25.229 1.2-6.482 1.752-30.923 2.628-45.14.561-9.697.946-17.064 2.129-24.186 2.452-14.892 9.688-23.845 12.43-29.329l.429-2.934c8.112 6.526 38.868 10.555 54.058 2.242z" fill="#455a64"/><path d="m927.105 255.398 7.656-27.805s9.943-1.901 14.831-7.279c0 0-1.104 6.789-11.388 10.258l-7.236 24.291-1.357 28.558z" fill="#37474f"/><path d="m908.359 66.6809c-.202-8.979 17.283-18.799 33.691-7.884 16.407 10.915 10.45 21.4532 9.312 24.6594l1.112 42.9237-55.582 1.306s2.628-38.6934 2.479-45.0093c-.149-6.316.28-15.7943 8.988-15.9958z" fill="#263238"/><path d="m915.568 113.783-13.481 3.592c-2.69.876.341 16.758-.412 34.891-.762 18.615-6.053 48.741-6.053 48.741s12.623 5.256 35.259 4.897c22.347-.368 29.022-7.341 29.022-7.341l-3.005-21.988-1.498-17.301s8.033-11.248 3.565-22.303c-4.467-11.055-19.894-25.404-19.894-25.404l-6.929.342z" fill="#19793f"/><path d="m915.568 113.783-13.481 3.592c-2.69.876.341 16.758-.412 34.891-.762 18.615-6.053 48.741-6.053 48.741s12.623 5.256 35.259 4.897c22.347-.368 29.022-7.341 29.022-7.341l-3.005-21.988-1.498-17.301s8.033-11.248 3.565-22.303c-4.467-11.055-19.894-25.404-19.894-25.404l-6.929.342z" fill="#fff" opacity=".7"/><path d="m914.228 157.925c1.458 2.13 3.44 3.848 5.756 4.989 2.315 1.14 4.886 1.663 7.463 1.52 2.417-.149 4.761-.885 6.829-2.144 2.069-1.26 3.799-3.004 5.041-5.083 0 0-1.551 9.329-12.737 9.539-11.187.211-12.352-8.821-12.352-8.821z" fill="#19793f" opacity=".3"/><path d="m931.599 112.452c5.571 4.651 14.244 10.906 19.386 17.625 10.389 13.596 12.649 26.105 13.473 41.908.166-23.652 3.057-36.924-25.404-61.32-5.081-4.38-7.096-5.326-7.096-5.326z" fill="#e0e0e0"/><path d="m912.861 109.333c.412 5.843 6.57 20.481 7.14 36.424.569 15.944-8.243 119.504-8.243 119.504s-16.881 2.138-29.311-4.94c0 0 4.38-37.572 14.016-79.322 2.479-10.827-2.05-24.257-2.961-38.851-.508-7.931.525-15.885 3.04-23.424 0 0 9.04-3.022 11.799-4.625 1.85-1.224 3.396-2.854 4.52-4.766z" fill="#f0f0f0"/><path d="m912.187 112.163c.394 1.883 1.025 4.161 1.752 6.798 1.936 7.069 4.599 16.74 4.958 26.84.526 14.892-7.288 108.169-8.155 118.453-.999.088-2.769.21-5.02.21-6.132 0-14.813-.876-22.093-4.756.675-5.458 5.16-40.428 13.876-78.464 1.621-7.078.342-15.198-1.016-23.792-.78-4.958-1.594-10.083-1.918-15.365-.457-7.604.494-15.227 2.803-22.487 1.98-.674 9.023-3.11 11.493-4.546 1.261-.771 2.383-1.748 3.32-2.891zm.674-2.83c-1.134 1.916-2.692 3.546-4.555 4.766-2.759 1.603-11.799 4.625-11.799 4.625-2.515 7.539-3.548 15.493-3.04 23.424.876 14.594 5.44 28.032 2.961 38.851-9.566 41.75-14.016 79.322-14.016 79.322 7.752 4.38 17.231 5.256 23.275 5.256 2.016.014 4.031-.089 6.036-.307 0 0 8.76-103.552 8.243-119.504s-6.728-30.581-7.14-36.424z" fill="#ebebeb"/><path d="m942.584 69.4578c1.647 1.2352 3.819 5.0896 3.504 11.5808-.166 1.9622 1.095 4.012 1.174 7.6737.315 13.8497-2.102 16.3457-5.817 18.0627-2.626 1.192-5.482 1.79-8.365 1.752l.438 6.693c2.382 3.933 2.303 6.132 1.909 11.222-12.404-3.557-22.022-12.054-22.031-12.08l-.464-15.6282s-1.174-.3242-1.174-.3154c-.874.6892-1.954 1.064-3.066 1.064-1.113 0-2.193-.3748-3.066-1.064-2.821-2.0674-4.739-7.2621-2.322-10.2405 2.418-2.9784 6.842-1.8308 8.462.7271 1.621 2.558 5.484 1.752 4.232-2.1637 1.752-.876 3.924-2.7243 2.146-9.9251-.403-1.8483.201-5.0545 1.927-6.6488 2.873-2.628 8.585-2.1988 11.878.9723 4.416-3.7142 7.227-4.231 10.635-1.6819z" fill="#c8856a"/><path d="m942.26 77.0965-4.555-.8759c.042-.2991.144-.5865.301-.8447s.364-.4819.61-.6572c.246-.1754.525-.2989.82-.363s.6-.0674.897-.0098c.612.1254 1.152.4803 1.511.9919.358.5115.507 1.1408.416 1.7587z" fill="#263238"/><path d="m921.858 79.2427 4.38-1.6381c-.093-.2879-.244-.5538-.443-.7816-.199-.2277-.443-.4123-.716-.5427s-.57-.2037-.872-.2155c-.302-.0117-.604.0383-.886.147-.589.218-1.07.6555-1.342 1.2206-.273.5652-.316 1.214-.121 1.8103z" fill="#263238"/><path d="m927.815 94.9407 6.482 2.0148c-.109.4291-.305.8314-.575 1.1822-.271.3507-.61.6425-.997.8574s-.814.3485-1.255.3924-.886-.0027-1.308-.1369c-.867-.2829-1.594-.887-2.03-1.6883-.437-.8013-.55-1.7393-.317-2.6216z" fill="#af6152"/><path d="m931.652 99.3907c-.035-.7994-.383-1.5528-.971-2.096-.587-.5432-1.366-.832-2.165-.8035-.248.0044-.493.0457-.728.1226.119.619.401 1.1947.819 1.6664.418.4718.955.8221 1.555 1.0142.482.1488.993.1818 1.49.0963z" fill="#ffa8a7"/><path d="m931.853 80.6619 1.323 12.3253 6.106-1.8571z" fill="#af6152"/><path d="m933.123 108.501c-4.45-.149-14.489-2.567-16.933-8.418 0 0 .438 4.205 5.966 7.341 4.38 2.479 11.099 3.013 11.099 3.013z" fill="#af6152"/><path d="m928.139 83.833c-.023.3868-.16.7581-.394 1.0671-.234.3091-.554.542-.919.6694-.366.1275-.762.1437-1.137.0468-.375-.097-.713-.3028-.971-.5916-.259-.2888-.426-.6476-.48-1.0311-.055-.3836.005-.7748.172-1.1243s.434-.6416.768-.8396c.333-.198.717-.2929 1.104-.2728.521.0294 1.01.2645 1.358.6538s.528.9008.499 1.4223z" fill="#263238"/><path d="m942.689 82.9132c-.073.3832-.258.7362-.532 1.0141s-.624.4683-1.006.5471c-.382.0787-.779.0423-1.14-.1047-.362-.147-.671-.3979-.89-.721s-.337-.7039-.339-1.094c-.002-.3902.112-.7722.327-1.0976.215-.3255.522-.5798.882-.7307.36-.151.756-.1917 1.139-.1171.254.0483.496.1463.712.2884.216.142.402.3254.546.5395.145.214.247.4547.298.708.052.2533.053.5143.003.768z" fill="#263238"/><path d="m904.592 115.737c2.225-.99 4.748-3.776 6.053-5.326 1.305-1.551 1.752-2.628 2.628-2.628v2.794s7.078 16.057 7.008 30.117c.158 9.636-.876 20.963-.876 20.963-2.899-6.815-9.636-18.028-9.636-18.028l3.679-8.822c-2.207-8.725-7.244-14.392-8.856-19.07z" fill="#e0e0e0"/><path d="m914.578 163.996c-.174-.1-.381-.127-.574-.074-.194.052-.359.18-.459.354s-.127.381-.074.575c.052.194.18.359.354.459l.657.376c.056.036.122.055.188.055.067 0 .132-.019.189-.055.156-.101.285-.239.378-.4s.146-.342.156-.528c.006-.067-.006-.135-.033-.196-.028-.061-.071-.114-.125-.155l-.657-.376z" fill="#455a64"/><path d="m915.393 164.723c.006-.067-.006-.135-.033-.196-.028-.061-.071-.114-.125-.155l-.657-.376c-.111-.065-.238-.099-.368-.099-.129 0-.256.034-.367.099.201-.079.516.105.876.315.359.21.543.482.254 1.034-.211.403-.456.359-.57.306l.07.044c.057.036.122.055.189.055.066 0 .132-.019.188-.055.163-.105.298-.248.393-.418s.146-.36.15-.554z" fill="#37474f"/><path d="m917.732 163.952c-.268-.175-.569-.294-.885-.349-.315-.055-.638-.045-.95.029s-.605.211-.862.402c-.256.192-.472.433-.632.71-.16.278-.263.585-.3.903-.038.318-.011.64.08.947s.244.592.449.839c.205.246.458.447.744.592.188.086.397.12.603.099.207-.022.403-.098.57-.221.485-.314.889-.737 1.178-1.237.289-.499.456-1.06.487-1.637.022-.206-.011-.414-.096-.603-.084-.19-.218-.353-.386-.474z" fill="#19793f"/><path d="m916.514 164.066c-.485.315-.888.741-1.177 1.241-.29.501-.456 1.063-.487 1.641-.021.206.012.414.097.603.084.189.217.353.385.474l14.533 8.392c.188.088.396.123.602.103s.404-.095.571-.216c.485-.316.889-.741 1.178-1.242s.456-1.063.487-1.641c.021-.206-.012-.414-.097-.603s-.217-.352-.385-.474l-14.489-8.392c-.194-.096-.41-.136-.625-.116s-.42.1-.593.23z" fill="#19793f"/><path d="m916.514 164.066c-.485.315-.888.741-1.177 1.241-.29.501-.456 1.063-.487 1.641-.021.206.012.414.097.603.084.189.217.353.385.474l14.533 8.392c.188.088.396.123.602.103s.404-.095.571-.216c.485-.316.889-.741 1.178-1.242s.456-1.063.487-1.641c.021-.206-.012-.414-.097-.603s-.217-.352-.385-.474l-14.489-8.392c-.194-.096-.41-.136-.625-.116s-.42.1-.593.23z" fill="#fff" opacity=".2"/><path d="m933.614 173.895c-.03.593-.201 1.171-.498 1.685-.297.515-.712.952-1.21 1.275-.173.125-.376.202-.588.223-.213.022-.427-.013-.621-.1l-1.121-.648c-.174-.123-.312-.29-.4-.484-.087-.194-.122-.408-.1-.62.038-.597.216-1.176.52-1.691.305-.515.727-.95 1.232-1.27.173-.124.376-.201.588-.223.212-.021.426.013.621.101l1.121.648c.166.128.295.297.375.491s.108.405.081.613z" fill="#19793f"/><path d="m933.614 173.895c-.03.593-.201 1.171-.498 1.685-.297.515-.712.952-1.21 1.275-.173.125-.376.202-.588.223-.213.022-.427-.013-.621-.1l-1.121-.648c-.174-.123-.312-.29-.4-.484-.087-.194-.122-.408-.1-.62.038-.597.216-1.176.52-1.691.305-.515.727-.95 1.232-1.27.173-.124.376-.201.588-.223.212-.021.426.013.621.101l1.121.648c.166.128.295.297.375.491s.108.405.081.613z" fill="#fff" opacity=".35"/><path d="m930.197 175.866c.038-.597.216-1.177.521-1.691.304-.515.726-.95 1.231-1.27.164-.144.369-.232.586-.253s.435.026.623.136c.189.109.338.274.428.473.089.198.115.42.072.634-.031.593-.201 1.171-.498 1.685-.297.515-.712.952-1.211 1.275-.173.125-.375.202-.588.223-.212.022-.426-.013-.62-.1-.183-.119-.331-.285-.426-.481-.096-.196-.137-.414-.118-.631z" fill="#19793f"/><path d="m930.197 175.866c.038-.597.216-1.177.521-1.691.304-.515.726-.95 1.231-1.27.164-.144.369-.232.586-.253s.435.026.623.136c.189.109.338.274.428.473.089.198.115.42.072.634-.031.593-.201 1.171-.498 1.685-.297.515-.712.952-1.211 1.275-.173.125-.375.202-.588.223-.212.022-.426-.013-.62-.1-.183-.119-.331-.285-.426-.481-.096-.196-.137-.414-.118-.631z" fill="#000" opacity=".15"/><path d="m944.222 184.415c-.152-.105-.273-.249-.35-.417-.078-.168-.108-.354-.088-.538.029-.513.177-1.013.435-1.459.257-.446.615-.825 1.046-1.107.15-.108.327-.175.511-.193.185-.019.371.012.54.088l.543.525c.098.107.174.233.222.37s.068.282.058.427c-.026.474-.164.935-.401 1.346-.238.41-.568.76-.965 1.02-.12.079-.255.133-.397.159-.141.025-.286.022-.427-.01z" fill="#19793f"/><path d="m944.222 184.415c-.152-.105-.273-.249-.35-.417-.078-.168-.108-.354-.088-.538.029-.513.177-1.013.435-1.459.257-.446.615-.825 1.046-1.107.15-.108.327-.175.511-.193.185-.019.371.012.54.088l.543.525c.098.107.174.233.222.37s.068.282.058.427c-.026.474-.164.935-.401 1.346-.238.41-.568.76-.965 1.02-.12.079-.255.133-.397.159-.141.025-.286.022-.427-.01z" fill="#000" opacity=".0225"/><path d="m943.784 183.487c.029-.514.177-1.014.435-1.46.257-.446.615-.825 1.046-1.107.15-.108.327-.174.511-.193.185-.018.371.012.54.088l-13.14-7.569c-.168-.08-.354-.113-.539-.096s-.362.084-.512.193c-.431.282-.789.661-1.046 1.107-.258.445-.406.945-.435 1.459-.019.184.011.37.086.539.076.169.194.316.343.425l13.14 7.569c-.15-.106-.27-.251-.345-.419-.076-.168-.105-.353-.084-.536z" fill="#19793f"/><path d="m946.912 181.384c-.151-.073-.319-.103-.486-.087-.166.015-.326.076-.461.175-.386.253-.707.593-.937.994-.229.4-.362.849-.385 1.31-.022.167.003.337.071.491.068.155.176.288.314.385.876.482 3.373 1.401 4.617 1.253.068-.006.134-.027.192-.062.146-.096.267-.226.352-.378.085-.153.133-.323.139-.498.014-.06.014-.123 0-.184-.508-1.182-2.593-2.917-3.416-3.399z" fill="#19793f"/><path d="m932.16 173.316c-.152.09-.293.196-.421.316l13.14 7.577c.132-.116.272-.221.421-.315h.079l-13.14-7.569zm-.876-1.261h-.132l-12.929-7.472c-1.691-.981-2.392-.955-3.075-.561.674-.245 2.216.657 2.418.771l13.043 7.534.158-.097 1.121.64c.163-.089.337-.157.517-.202zm18.956 13.271-.201-.403s0-.306-.806-1.173c-.979-.915-2.085-1.682-3.285-2.278-.178.105-.34.235-.482.385 1.249.624 2.424 1.385 3.504 2.269.445.376.844.803 1.192 1.27 0 0 .087-.043.096-.07z" fill="#fff" opacity=".2"/><path d="m949.697 185.554.543.315c.237.132.876.351 1.008.158.131-.193-.412-.657-.648-.797l-.544-.307s-.131 0-.28.254-.079.377-.079.377z" fill="#455a64"/><path d="m951.195 185.791c-.032.007-.063.021-.09.041-.027.019-.05.044-.067.073-.026.064-.026.136 0 .201.113 0 .201 0 .236-.079s-.017-.14-.079-.236z" fill="#263238"/><path d="m878.732 180.429c-.289-5.334.876-20.279 2.077-34.304 1.664-19.272 5.168-22.005 15.163-25.789 8.27 4.494 9.864 13.087 6.78 32.412l-2.628 22.478c5.37 1.139 12.667 2.628 18.826.876 1.256-.357 2.419-.985 3.407-1.84.596-.463 1.269-.816 1.989-1.042l1.323.78c.876.079 1.813.219 2.68.254 1.997.079 4.801 0 6.807.114 4.38.262 7.665.525 11.659 2.268.754.333 1.7.92 2.628 1.463.719.403 0 1.218-.447 1.498-.561.349-1.186.582-1.839.684-.876.09-1.759.066-2.628-.071-.234-.038-.475-.007-.692.088-.189.132-.318.334-.359.561-.031.22-.048.443-.053.665-.043.559-.213 1.1-.499 1.581-.286.482-.678.891-1.148 1.196-.394.246-.823.412-1.226.649-.48.326-.886.75-1.192 1.244-.438.569-.876 1.165-1.314 1.752-1.55 1.909-2.242 2.014-5.475 2.812-3.232.797-5.571-.325-10.161 0-4.59.324-21.121 3.004-28.584 3.214-13.893.307-14.577-3.959-15.094-13.543z" fill="#c8856a"/><path d="m900.089 175.209c-5.597-1.043-11.589-.806-15.111 1.752 5.773-6.185 15.339-3.636 15.339-3.636z" fill="#f28f8f"/><path d="m896.507 118.724c-7.175 1.971-13.333 6.027-14.892 13.026-1.56 6.999-3.303 27.542-3.618 37.922-.316 10.381 0 18.843 2.102 21.401s4.336 3.556 10.214 3.548c5.878-.009 18.063-1.235 18.063-1.235s-2.233-10.775 1.542-16.592l-8.69-1.91s3.084-25.912 3.784-32.07c.701-6.158.456-17.099-8.505-24.09z" fill="#e0e0e0"/><path d="m1018.69 131.479-45.682 10.608-17.932 50.957.867 1.147 43.529-10.941 20.088-50.615z" fill="#19793f"/><path d="m973.875 143.243-17.932 50.948-.867-1.147 17.932-50.957z" fill="#000" opacity=".35"/><path d="m1019.56 132.635-45.685 10.608-17.932 50.948 43.529-10.941z" fill="#000" opacity=".25"/><path d="m1005.12 141.877s.25-.771.56-1.752c.32-.981-2.33-.727-5.893.49l-8.199 1.525c-3.557 1.217-6.886 2.049-7.192 2.995l-.561 1.752z" fill="#000" opacity=".01"/><path d="m1008.62 134.229c.19-.587-.83-.578-2.27-.359l-2.63.578s1.31-2.426-4.853-1.471c-6.789 1.051-7.297 4.327-7.297 4.327-1.085.326-2.188.593-3.302.797-2.261.473-2.558.876-2.804 1.463l-.446 1.078 23.282-5.397s.12-.42.32-1.016z" fill="#37474f"/><path d="m1005.88 137.33c-2.17.71-3.09 1.078-3.56 2.532-.54 1.673-.7 2.374-.7 2.374l-12.179 3.302s.876-2.444 1.157-3.258c.28-.815-1.288-1.008-3.417-.298l.719-2.032 18.89-4.731z" fill="#37474f"/><path d="m1005.72 141.973.56-1.752c.3-.946-2.33-.727-5.89.491l-8.198 1.603c-3.565 1.217-6.894 2.05-7.201 2.996l-.56 1.708z" fill="#37474f"/><path d="m1013.14 156.068c1.56-1.752 1.46-1.98.87-3.022-.45-.826-1.1-1.531-1.89-2.056-.78-.526-1.68-.857-2.62-.966-1.65-.141-3.31-.368-4.21 0-.9.367-.39 2.216 1.75 2.952 3.29 1.147 3.16 2.067 3.16 2.067-1.42-.521-2.87-.969-4.34-1.34-1.25-.219-3.6.114-5.06.166-1.451.053-1.95 1.866.4 2.786l-2.631.114c-1.866.079-2.628.972-1.296 2.277.421.444.98.731 1.585.815 0 0-1.953-.228-2.067.412-.333 1.848.815 2.479 4.619 4.082 2.99 1.261 4.09 3.005 3.87 4.31l-.3.753s1.3-.814 2.75-1.585c1.07-.57 2-1.236 1.75-2.83 0 0 2.14.289 2.43-1.016.15-.971.09-1.963-.18-2.908.41-.172.76-.457 1.01-.821.26-.365.4-.794.42-1.238.11-.843-.07-1.697-.5-2.426z" fill="#c8856a"/><path d="m1001.2 156.681c.8-.078 1.6-.078 2.4 0 .78.218 1.53.555 2.21.999 1.37.794 2.67 1.699 3.88 2.707-1.46-.577-2.88-1.28-4.23-2.103-.63-.417-1.3-.778-1.99-1.077-.7-.175-1.52-.289-2.27-.526z" fill="#af6152"/><path d="m998.823 159.887c.864-.143 1.747-.065 2.577.228.82.276 1.61.631 2.36 1.06 1.49.821 2.89 1.799 4.18 2.917-1.57-.674-3.05-1.498-4.53-2.313-1.4-.91-2.95-1.551-4.587-1.892z" fill="#af6152"/><path d="m970.888 94.1347h9.583c3.933 6.6523 10.221 11.5843 17.618 13.8183 7.401 2.235 15.361 1.608 22.321-1.754 6.96-3.363 12.4-9.217 15.24-16.4019 2.85-7.1848 2.89-15.1762.12-22.3904-2.77-7.2141-8.15-13.1245-15.07-16.5598-6.92-3.4352-14.88-4.1446-22.302-1.9876-7.421 2.1571-13.76 7.0231-17.762 13.6338-4.001 6.6107-5.373 14.4835-3.844 22.0582l-7.096 6.4298c-.306.227-.53.5477-.638.9136-.107.3658-.093.7568.042 1.1135.135.3568.382.6598.705.8631s.703.2958 1.083.2634zm25.938-42.1706c6.284-2.4216 13.234-2.5148 19.584-.2628l3.02 1.2614c6.62 3.2253 11.73 8.8965 14.25 15.817s2.25 14.5491-.75 21.2761-8.49 12.0262-15.32 14.7792c-6.83 2.754-14.47 2.746-21.292-.022l-2.935-1.393c-4.763-2.595-8.683-6.5014-11.296-11.2555-2.612-4.754-3.808-10.157-3.446-15.5696s2.267-10.6081 5.49-14.9716c3.223-4.3636 7.628-7.7125 12.695-9.6504z" fill="#455a64"/><path d="m996.826 51.9553c6.284-2.4216 13.234-2.5148 19.584-.2628l3.02 1.2702c6.62 3.2252 11.73 8.8964 14.25 15.817 2.52 6.9205 2.25 14.5491-.75 21.2761s-8.49 12.0262-15.32 14.7792c-6.83 2.754-14.47 2.746-21.292-.022l-2.935-1.393c-4.763-2.595-8.683-6.5014-11.296-11.2555-2.612-4.754-3.808-10.157-3.446-15.5696s2.267-10.6081 5.49-14.9716c3.223-4.3636 7.628-7.7125 12.695-9.6504z" fill="#fff"/><path d="m1001.76 83.7366v10.4945h10.5v-10.4945h10.5v-10.5032h-10.5v-10.4945h-10.5v10.4945h-10.497v10.5032z" fill="#19793f"/><path d="m607.474 26.6572c-117.575-59.9786-607.474 0-607.474 0v440.3428h833.441c-96.548-.184-108.42-380.3787-225.967-440.3428z" fill="url(#a)"/></svg>