<svg width="118" height="153" viewBox="0 0 118 153" fill="none" xmlns="http://www.w3.org/2000/svg">
<path d="M24.9011 44.2965C22.7343 44.7269 21.3267 46.8323 21.7571 48.9991C22.1875 51.166 24.293 52.5736 26.4598 52.1432L24.9011 44.2965ZM68.5947 17.1791C66.9754 15.6764 64.4445 15.7709 62.9418 17.3902C61.4391 19.0095 61.5336 21.5404 63.1529 23.0431L68.5947 17.1791ZM35.3973 77.9796C37.445 77.1507 38.433 74.8187 37.6041 72.771C36.7752 70.7232 34.4432 69.7352 32.3955 70.5641L35.3973 77.9796ZM16.4379 79.0709L13.3127 81.5676L13.3127 81.5676L16.4379 79.0709ZM21.5727 60.9031L17.7323 59.7845L21.5727 60.9031ZM31.8423 17.3688L35.2183 19.5142L31.8423 17.3688ZM85.9296 15.6548L82.9006 18.2673L85.9296 15.6548ZM96.8839 60.9031L100.743 59.852V59.852L96.8839 60.9031ZM102.019 79.0709L106.019 79.071V79.071L102.019 79.0709ZM87.6897 70.68C85.706 69.7079 83.3098 70.528 82.3377 72.5117C81.3656 74.4955 82.1857 76.8917 84.1694 77.8638L87.6897 70.68ZM22.8395 152.65C25.0446 152.518 26.7249 150.623 26.5924 148.417C26.4599 146.212 24.5648 144.532 22.3597 144.664L22.8395 152.65ZM4.45643 146.943L8.20238 145.541H8.20238L4.45643 146.943ZM4.45643 122.605L8.45192 122.795L8.45643 122.7V122.605H4.45643ZM11.9876 98.2672L9.45254 95.1731H9.45254L11.9876 98.2672ZM95.5106 144.817C93.3055 144.684 91.4103 146.364 91.2776 148.569C91.1449 150.775 92.825 152.67 95.0302 152.802L95.5106 144.817ZM113.54 147.081L109.794 145.68L113.54 147.081ZM113.54 122.539H109.54V122.634L109.545 122.729L113.54 122.539ZM105.957 97.9964L103.419 101.089L105.957 97.9964ZM39.0662 108.426C41.2688 108.595 43.192 106.947 43.3616 104.745C43.5313 102.542 41.8832 100.619 39.6806 100.449L39.0662 108.426ZM79.6075 100.441C77.4002 100.529 75.6824 102.39 75.7708 104.598C75.8593 106.805 77.7204 108.523 79.9277 108.434L79.6075 100.441ZM41.3196 46.5059C41.3196 44.2967 39.5288 42.5059 37.3196 42.5059C35.1105 42.5059 33.3196 44.2967 33.3196 46.5059H41.3196ZM59.2282 79.7565L58.7314 83.7255L59.2282 79.7565ZM85.1371 42.0497C85.1371 39.8405 83.3463 38.0496 81.1371 38.0496C78.928 38.0496 77.1371 39.8404 77.1371 42.0496L85.1371 42.0497ZM25.6805 48.2198C26.4598 52.1432 26.4601 52.1431 26.4607 52.143C26.4611 52.1429 26.4618 52.1428 26.4627 52.1426C26.4644 52.1423 26.467 52.1418 26.4702 52.1411C26.4768 52.1398 26.4864 52.1379 26.499 52.1354C26.5241 52.1304 26.5613 52.1229 26.6101 52.1132C26.7077 52.0937 26.8517 52.0648 27.0391 52.0271C27.4138 51.9516 27.962 51.8407 28.6589 51.6982C30.0525 51.4132 32.0414 51.0017 34.4275 50.4951C39.1965 49.4825 45.5661 48.0865 51.9449 46.5573C58.3023 45.0332 64.755 43.3565 69.6539 41.7794C72.0802 40.9983 74.2735 40.1952 75.9168 39.3961C76.7183 39.0063 77.5809 38.5267 78.3026 37.9385C78.7952 37.537 80.3444 36.2095 80.3444 33.9919H72.3444C72.3444 33.0827 72.6911 32.4449 72.8899 32.152C72.9946 31.9979 73.0887 31.8929 73.1452 31.8344C73.2029 31.7747 73.2414 31.743 73.2482 31.7375C73.2564 31.7308 73.2 31.7766 73.0444 31.8694C72.8945 31.9587 72.6887 32.0701 72.4181 32.2017C71.2906 32.75 69.5258 33.4163 67.2024 34.1643C62.6018 35.6453 56.3885 37.2653 50.0799 38.7777C43.7927 40.2849 37.4964 41.6651 32.7659 42.6696C30.4022 43.1714 28.4331 43.5788 27.056 43.8604C26.3675 44.0012 25.8272 44.1105 25.4598 44.1845C25.2761 44.2215 25.1356 44.2497 25.0415 44.2685C24.9944 44.2779 24.9589 44.285 24.9354 44.2897C24.9236 44.292 24.9149 44.2938 24.9092 44.2949C24.9063 44.2955 24.9042 44.2959 24.9029 44.2961C24.9022 44.2963 24.9018 44.2964 24.9014 44.2964C24.9012 44.2965 24.9011 44.2965 25.6805 48.2198ZM80.3444 33.9919C80.3444 32.7008 79.9572 31.52 79.5678 30.6166C79.1594 29.6692 78.6203 28.7372 78.053 27.8724C76.9191 26.1436 75.467 24.3743 74.1009 22.8349C72.7198 21.2786 71.3493 19.8711 70.3302 18.8578C69.8186 18.3492 69.3909 17.9352 69.0885 17.646C68.9372 17.5013 68.8169 17.3875 68.733 17.3085C68.691 17.269 68.6581 17.2382 68.6348 17.2164C68.6232 17.2056 68.614 17.197 68.6073 17.1907C68.6039 17.1876 68.6012 17.1851 68.5991 17.1831C68.5981 17.1822 68.5972 17.1813 68.5964 17.1806C68.5961 17.1803 68.5956 17.1799 68.5955 17.1797C68.5951 17.1794 68.5947 17.1791 65.8738 20.1111C63.1529 23.0431 63.1527 23.0429 63.1524 23.0426C63.1524 23.0426 63.1522 23.0424 63.1522 23.0424C63.1521 23.0423 63.1522 23.0424 63.1524 23.0426C63.1528 23.043 63.1539 23.044 63.1556 23.0455C63.1589 23.0487 63.1647 23.0541 63.1729 23.0617C63.1893 23.077 63.2151 23.1012 63.2499 23.1339C63.3193 23.1993 63.424 23.2983 63.559 23.4275C63.8292 23.6859 64.2195 24.0635 64.6896 24.5309C65.6337 25.4696 66.8808 26.7516 68.1173 28.1449C69.3688 29.5552 70.5344 30.9959 71.3637 32.2601C71.778 32.8919 72.057 33.4022 72.2212 33.7832C72.4044 34.2082 72.3444 34.242 72.3444 33.9919H80.3444ZM33.8964 74.2719C32.3955 70.5641 32.3956 70.5641 32.3957 70.564C32.3957 70.5641 32.3957 70.564 32.3956 70.5641C32.3954 70.5642 32.395 70.5643 32.3943 70.5646C32.393 70.5652 32.3906 70.5661 32.3874 70.5674C32.3808 70.5701 32.3705 70.5742 32.3565 70.5798C32.3285 70.5911 32.2858 70.6083 32.2294 70.6308C32.1165 70.676 31.9487 70.7429 31.7335 70.8278C31.3029 70.9979 30.6834 71.24 29.9348 71.5257C28.4333 72.0987 26.4322 72.8394 24.4025 73.5238C22.3448 74.2177 20.3735 74.8139 18.8941 75.1354C18.132 75.301 17.6787 75.3532 17.4827 75.358C17.3792 75.3606 17.5195 75.3441 17.7952 75.4105C18.0223 75.4651 18.8637 75.6988 19.563 76.5742L13.3127 81.5676C14.1833 82.6573 15.3108 83.041 15.924 83.1885C16.5858 83.3478 17.2121 83.3671 17.6797 83.3556C18.6256 83.3323 19.654 83.1569 20.5927 82.9529C22.5152 82.5352 24.823 81.8246 26.9587 81.1045C29.1225 80.3748 31.2293 79.5944 32.7873 78.9998C33.5685 78.7017 34.2167 78.4484 34.6712 78.2689C34.8986 78.1792 35.0778 78.1078 35.2013 78.0583C35.2631 78.0336 35.3109 78.0144 35.3439 78.0012C35.3603 77.9945 35.3731 77.9894 35.3821 77.9858C35.3865 77.984 35.3901 77.9825 35.3926 77.9815C35.3939 77.981 35.3949 77.9806 35.3957 77.9803C35.3961 77.9801 35.3965 77.9799 35.3967 77.9799C35.397 77.9797 35.3973 77.9796 33.8964 74.2719ZM19.563 76.5742C19.8761 76.9661 20.0227 77.3409 20.0906 77.5792C20.1569 77.8121 20.1637 77.9676 20.1647 77.9971C20.166 78.0334 20.1608 77.8823 20.2467 77.4566C20.4172 76.6106 20.7939 75.3921 21.3685 73.7514C22.4491 70.6652 24.1767 66.2668 25.4131 62.0217L17.7323 59.7845C16.5725 63.7663 15.048 67.5948 13.818 71.1074C13.2372 72.766 12.6939 74.4398 12.4044 75.8755C12.2603 76.5906 12.1402 77.4277 12.1695 78.2742C12.1966 79.0571 12.3667 80.3835 13.3127 81.5676L19.563 76.5742ZM25.4131 62.0217C26.684 57.6583 28.1329 48.201 29.7406 39.615C30.5698 35.1861 31.458 30.865 32.4205 27.2158C33.4168 23.4387 34.3834 20.8279 35.2183 19.5142L28.4663 15.2234C26.9049 17.6803 25.6893 21.3683 24.6851 25.1755C23.6472 29.1105 22.7167 33.659 21.8772 38.1427C20.1473 47.3817 18.8577 55.9209 17.7323 59.7845L25.4131 62.0217ZM35.2183 19.5142C37.3245 16.1998 40.0316 13.3728 43.6686 11.3535C47.3063 9.33387 52.0943 8 58.5437 8V0C50.9578 0 44.7914 1.57985 39.7853 4.35923C34.7786 7.139 31.1526 10.9964 28.4663 15.2234L35.2183 19.5142ZM58.5437 8C65.1748 8 69.7827 8.97215 73.3873 10.6325C76.9746 12.2849 79.8746 14.7588 82.9006 18.2673L88.9586 13.0424C85.4803 9.00948 81.705 5.65596 76.7343 3.36631C71.7808 1.08459 65.9478 0 58.5437 0V8ZM82.9006 18.2673C83.9189 19.4481 85.0994 22.0089 86.2571 25.9684C87.3679 29.7673 88.3116 34.3142 89.137 38.9762C89.9611 43.6315 90.6469 48.2812 91.2669 52.319C91.868 56.2342 92.4373 59.7981 93.0245 61.9541L100.743 59.852C100.304 58.2374 99.8033 55.2025 99.1742 51.105C98.564 47.1302 97.8592 42.3532 97.0145 37.5817C96.171 32.817 95.1677 27.9372 93.9357 23.7233C92.7506 19.6702 91.1924 15.6323 88.9586 13.0424L82.9006 18.2673ZM93.0245 61.9541C94.0818 65.8364 95.4155 69.7595 96.4114 72.8757C96.9215 74.4719 97.3397 75.8437 97.6293 76.9795C97.9375 78.1881 98.0188 78.8297 98.0188 79.0709L106.019 79.071C106.019 77.7696 105.715 76.3117 105.381 75.0029C105.029 73.6212 104.549 72.058 104.032 70.4405C102.974 67.1294 101.74 63.5111 100.743 59.852L93.0245 61.9541ZM98.0188 79.0709C98.0188 78.3031 98.3128 77.3558 99.086 76.6227C99.7416 76.0011 100.412 75.8513 100.615 75.8145C100.959 75.7522 100.954 75.8349 100.298 75.7021C99.1552 75.4707 97.4181 74.8862 95.441 74.107C93.5223 73.3507 91.5828 72.4939 90.1094 71.8189C89.3761 71.4831 88.766 71.1958 88.3411 70.9934C88.1288 70.8922 87.9631 70.8125 87.8518 70.7587C87.7962 70.7318 87.7543 70.7114 87.7269 70.6981C87.7132 70.6914 87.7032 70.6865 87.697 70.6835C87.6939 70.682 87.6917 70.6809 87.6905 70.6803C87.6899 70.68 87.6895 70.6798 87.6894 70.6798C87.6893 70.6797 87.6894 70.6798 87.6894 70.6798C87.6895 70.6798 87.6897 70.68 85.9296 74.2719C84.1694 77.8638 84.1698 77.864 84.1702 77.8642C84.1704 77.8643 84.1708 77.8645 84.1713 77.8647C84.1721 77.8651 84.1732 77.8656 84.1746 77.8663C84.1772 77.8676 84.1809 77.8694 84.1855 77.8717C84.1947 77.8762 84.2078 77.8825 84.2246 77.8907C84.2581 77.907 84.3065 77.9305 84.3687 77.9606C84.4932 78.0208 84.6731 78.1074 84.9008 78.2159C85.3557 78.4326 86.0025 78.7371 86.7777 79.0922C88.321 79.7991 90.4038 80.7205 92.5074 81.5497C94.5526 82.3558 96.8378 83.1639 98.7113 83.5431C99.5638 83.7156 100.817 83.9081 102.04 83.6865C102.683 83.57 103.699 83.2732 104.59 82.4282C105.599 81.4717 106.019 80.2244 106.019 79.071L98.0188 79.0709ZM22.5996 148.657C22.3597 144.664 22.3599 144.664 22.3601 144.664C22.3601 144.664 22.3602 144.664 22.3602 144.664C22.3601 144.664 22.3597 144.664 22.3591 144.665C22.3579 144.665 22.3557 144.665 22.3524 144.665C22.3459 144.665 22.3354 144.666 22.321 144.667C22.2922 144.668 22.2478 144.671 22.1889 144.674C22.0709 144.681 21.8948 144.69 21.6686 144.701C21.2159 144.723 20.5639 144.751 19.777 144.777C18.197 144.83 16.1005 144.87 13.9909 144.829C11.8454 144.788 9.8383 144.663 8.37714 144.422C7.62825 144.298 7.2179 144.173 7.06026 144.108C6.67981 143.951 7.70932 144.224 8.20238 145.541L0.710487 148.346C1.46029 150.348 3.24933 151.189 4.00148 151.5C4.97645 151.904 6.07179 152.149 7.07196 152.314C9.10891 152.651 11.5734 152.784 13.8353 152.828C16.1332 152.873 18.3799 152.828 20.0412 152.773C20.875 152.745 21.5683 152.715 22.0556 152.691C22.2994 152.68 22.492 152.669 22.6253 152.662C22.6919 152.659 22.7438 152.656 22.7798 152.654C22.7978 152.653 22.8119 152.652 22.8219 152.651C22.8269 152.651 22.8308 152.651 22.8338 152.65C22.8352 152.65 22.8364 152.65 22.8374 152.65C22.8379 152.65 22.8384 152.65 22.8386 152.65C22.8391 152.65 22.8395 152.65 22.5996 148.657ZM8.20238 145.541C8.29551 145.789 8.22229 145.683 8.1481 144.782C8.0876 144.047 8.0457 143.071 8.02238 141.904C7.97591 139.577 8.00658 136.686 8.07032 133.835C8.13385 130.994 8.22929 128.232 8.30901 126.178C8.34883 125.151 8.38466 124.304 8.41049 123.713C8.4234 123.418 8.43381 123.188 8.44096 123.031C8.44454 122.953 8.44731 122.894 8.44916 122.854C8.45009 122.834 8.45079 122.819 8.45126 122.809C8.45149 122.804 8.45166 122.801 8.45177 122.798C8.45183 122.797 8.45187 122.796 8.45189 122.796C8.4519 122.796 8.45191 122.795 8.45191 122.795C8.45192 122.795 8.45192 122.795 4.45643 122.605C0.460947 122.415 0.460938 122.415 0.460925 122.416C0.460916 122.416 0.460899 122.416 0.46088 122.417C0.460842 122.417 0.460789 122.419 0.46072 122.42C0.460583 122.423 0.460385 122.427 0.460126 122.433C0.45961 122.444 0.458853 122.46 0.45787 122.481C0.455903 122.523 0.453026 122.585 0.449333 122.666C0.441947 122.827 0.431297 123.063 0.418134 123.364C0.391813 123.965 0.355429 124.826 0.315022 125.867C0.234275 127.948 0.137153 130.757 0.0723169 133.657C0.0076828 136.547 -0.0258369 139.569 0.0239758 142.063C0.0487964 143.306 0.0951498 144.467 0.175059 145.438C0.241275 146.243 0.36061 147.412 0.710488 148.346L8.20238 145.541ZM4.45643 122.605C8.45643 122.605 8.45643 122.606 8.45643 122.607C8.45643 122.607 8.45643 122.607 8.45643 122.608C8.45643 122.608 8.45643 122.608 8.45643 122.608C8.45643 122.608 8.45643 122.607 8.45644 122.605C8.45645 122.601 8.45649 122.592 8.45657 122.58C8.45674 122.554 8.45711 122.512 8.4579 122.454C8.45947 122.339 8.46274 122.161 8.46947 121.928C8.48295 121.462 8.51028 120.777 8.56558 119.931C8.67665 118.233 8.89826 115.921 9.33648 113.448C9.77753 110.959 10.4197 108.412 11.3321 106.197C12.2598 103.945 13.3505 102.322 14.5226 101.361L9.45254 95.1731C6.85906 97.2979 5.12557 100.26 3.93514 103.15C2.72941 106.076 1.95951 109.228 1.45917 112.052C0.955994 114.892 0.706913 117.508 0.582629 119.409C0.520254 120.363 0.488747 121.146 0.472811 121.697C0.464837 121.973 0.460744 122.191 0.458644 122.345C0.457593 122.422 0.45704 122.483 0.45675 122.526C0.456605 122.548 0.456525 122.566 0.456482 122.579C0.45646 122.586 0.456448 122.591 0.45644 122.595C0.456437 122.598 0.456435 122.6 0.456433 122.601C0.456433 122.602 0.456432 122.603 0.456432 122.603C0.456432 122.604 0.456432 122.605 4.45643 122.605ZM14.5226 101.361C17.5616 98.8715 22.9708 96.898 28.1515 95.5373C30.6457 94.8822 32.9228 94.4095 34.5765 94.1009C35.4014 93.947 36.0664 93.8348 36.52 93.7618C36.7467 93.7254 36.9202 93.6988 37.0342 93.6817C37.0911 93.6731 37.1331 93.667 37.1594 93.6632C37.1725 93.6613 37.1817 93.6599 37.1869 93.6592C37.1895 93.6588 37.1911 93.6586 37.1916 93.6585C37.1919 93.6585 37.1919 93.6585 37.1917 93.6585C37.1915 93.6585 37.1912 93.6586 37.1911 93.6586C37.1907 93.6587 37.1902 93.6587 36.6348 89.6975C36.0795 85.7362 36.0789 85.7363 36.0782 85.7364C36.0779 85.7364 36.0771 85.7365 36.0764 85.7366C36.0752 85.7368 36.0736 85.737 36.0718 85.7373C36.0682 85.7378 36.0636 85.7385 36.0579 85.7393C36.0465 85.7409 36.0311 85.7431 36.0116 85.7459C35.9726 85.7516 35.9176 85.7596 35.8474 85.7702C35.7069 85.7913 35.5053 85.8222 35.2493 85.8634C34.7374 85.9458 34.0064 86.0692 33.1091 86.2367C31.3181 86.5708 28.8455 87.0837 26.1192 87.7997C20.8591 89.1813 13.9446 91.4928 9.45254 95.1731L14.5226 101.361ZM95.2704 148.81C95.0302 152.802 95.0305 152.802 95.031 152.802C95.0312 152.802 95.0317 152.802 95.0322 152.803C95.0332 152.803 95.0344 152.803 95.0359 152.803C95.0388 152.803 95.0428 152.803 95.0478 152.803C95.0579 152.804 95.072 152.805 95.0902 152.806C95.1264 152.808 95.1786 152.811 95.2457 152.815C95.3799 152.822 95.5738 152.832 95.8192 152.844C96.3099 152.868 97.0079 152.898 97.8473 152.926C99.5201 152.982 101.782 153.027 104.095 152.982C106.373 152.937 108.853 152.804 110.903 152.464C111.909 152.298 113.01 152.051 113.99 151.645C114.747 151.331 116.537 150.487 117.287 148.482L109.794 145.68C110.285 144.367 111.31 144.095 110.927 144.254C110.766 144.321 110.351 144.447 109.596 144.572C108.123 144.816 106.1 144.941 103.94 144.983C101.815 145.025 99.7032 144.983 98.112 144.931C97.3194 144.904 96.6628 144.876 96.2068 144.853C95.9789 144.842 95.8015 144.833 95.6827 144.827C95.6233 144.823 95.5786 144.821 95.5496 144.819C95.5351 144.818 95.5245 144.818 95.5179 144.817C95.5147 144.817 95.5124 144.817 95.5112 144.817C95.5106 144.817 95.5102 144.817 95.5101 144.817C95.5101 144.817 95.5102 144.817 95.5102 144.817C95.5104 144.817 95.5106 144.817 95.2704 148.81ZM117.287 148.482C117.637 147.546 117.757 146.372 117.824 145.56C117.904 144.583 117.951 143.412 117.976 142.16C118.026 139.645 117.992 136.599 117.927 133.684C117.862 130.76 117.764 127.928 117.683 125.83C117.642 124.78 117.606 123.912 117.579 123.305C117.566 123.002 117.555 122.764 117.548 122.601C117.544 122.52 117.541 122.458 117.539 122.415C117.538 122.394 117.537 122.378 117.537 122.367C117.536 122.361 117.536 122.357 117.536 122.354C117.536 122.352 117.536 122.351 117.536 122.35C117.536 122.35 117.536 122.35 117.536 122.35C117.536 122.349 117.536 122.349 113.54 122.539C109.545 122.729 109.545 122.729 109.545 122.729C109.545 122.729 109.545 122.729 109.545 122.729C109.545 122.73 109.545 122.731 109.545 122.732C109.545 122.734 109.545 122.738 109.546 122.743C109.546 122.753 109.547 122.768 109.548 122.788C109.55 122.828 109.552 122.888 109.556 122.967C109.563 123.124 109.574 123.357 109.587 123.655C109.613 124.25 109.649 125.105 109.689 126.14C109.769 128.211 109.865 130.996 109.929 133.862C109.993 136.737 110.024 139.653 109.977 142C109.954 143.178 109.912 144.163 109.851 144.905C109.776 145.814 109.702 145.925 109.794 145.68L117.287 148.482ZM113.54 122.539C117.54 122.539 117.54 122.538 117.54 122.537C117.54 122.537 117.54 122.536 117.54 122.535C117.54 122.533 117.54 122.531 117.54 122.529C117.54 122.525 117.54 122.519 117.54 122.512C117.54 122.499 117.54 122.481 117.54 122.46C117.54 122.416 117.539 122.354 117.538 122.277C117.536 122.122 117.532 121.902 117.524 121.624C117.508 121.069 117.476 120.28 117.413 119.318C117.288 117.403 117.038 114.766 116.531 111.904C116.028 109.058 115.253 105.883 114.04 102.934C112.843 100.023 111.1 97.0422 108.494 94.904L103.419 101.089C104.605 102.062 105.706 103.704 106.642 105.978C107.562 108.215 108.209 110.786 108.654 113.298C109.095 115.794 109.319 118.126 109.43 119.84C109.486 120.693 109.514 121.384 109.527 121.855C109.534 122.09 109.537 122.27 109.539 122.386C109.54 122.444 109.54 122.487 109.54 122.513C109.54 122.526 109.54 122.534 109.54 122.539C109.54 122.541 109.54 122.542 109.54 122.542C109.54 122.542 109.54 122.542 109.54 122.541C109.54 122.541 109.54 122.54 109.54 122.54C109.54 122.54 109.54 122.539 113.54 122.539ZM108.494 94.904C103.975 91.1969 97.0173 88.867 91.7203 87.4738C88.9757 86.7519 86.4863 86.2349 84.6832 85.898C83.7798 85.7292 83.0439 85.6047 82.5286 85.5217C82.2708 85.4802 82.068 85.449 81.9266 85.4277C81.8559 85.4171 81.8005 85.409 81.7613 85.4033C81.7417 85.4005 81.7262 85.3982 81.7147 85.3966C81.709 85.3958 81.7044 85.3951 81.7008 85.3946C81.6989 85.3943 81.6974 85.3941 81.6961 85.394C81.6955 85.3939 81.6947 85.3938 81.6944 85.3937C81.6937 85.3936 81.693 85.3935 81.1369 89.3547C80.5809 93.3158 80.5804 93.3158 80.5799 93.3157C80.5799 93.3157 80.5795 93.3156 80.5794 93.3156C80.5791 93.3156 80.5792 93.3156 80.5794 93.3156C80.58 93.3157 80.5816 93.3159 80.5842 93.3163C80.5894 93.3171 80.5987 93.3184 80.6119 93.3203C80.6384 93.3242 80.6808 93.3304 80.7382 93.339C80.853 93.3562 81.0278 93.3831 81.2561 93.4199C81.7131 93.4935 82.3829 93.6067 83.2139 93.7619C84.8795 94.0731 87.1731 94.5499 89.6854 95.2107C94.9023 96.5828 100.354 98.5739 103.419 101.089L108.494 94.904ZM39.3734 104.437C39.6806 100.449 39.6811 100.449 39.6816 100.449C39.6817 100.449 39.6821 100.449 39.6823 100.449C39.6828 100.449 39.683 100.449 39.6832 100.449C39.6836 100.449 39.6834 100.449 39.6827 100.449C39.6813 100.449 39.6778 100.449 39.6723 100.449C39.6614 100.448 39.6425 100.446 39.6163 100.444C39.5637 100.439 39.4816 100.432 39.3744 100.422C39.1594 100.401 38.8457 100.368 38.467 100.322C37.6992 100.229 36.7109 100.085 35.7521 99.8815C34.7376 99.6666 33.9974 99.4345 33.5988 99.2426C33.3942 99.1441 33.5032 99.1607 33.7126 99.3744C33.956 99.6229 34.473 100.3 34.473 101.352H26.473C26.473 103.004 27.2681 104.228 27.9983 104.973C28.6945 105.684 29.4988 106.148 30.1286 106.451C31.3988 107.062 32.8838 107.451 34.0943 107.708C35.3607 107.976 36.5974 108.154 37.4985 108.263C37.9542 108.319 38.3359 108.359 38.6076 108.385C38.7437 108.398 38.8529 108.408 38.9307 108.414C38.9696 108.418 39.0007 108.42 39.0235 108.422C39.0348 108.423 39.0441 108.424 39.0513 108.424C39.0549 108.425 39.0579 108.425 39.0604 108.425C39.0616 108.425 39.0628 108.425 39.0637 108.425C39.0642 108.425 39.0648 108.426 39.0651 108.426C39.0657 108.426 39.0662 108.426 39.3734 104.437ZM34.473 101.352C34.473 101.924 34.3082 102.105 34.5608 101.489C34.737 101.06 35.0247 100.461 35.4248 99.7157C36.2195 98.2364 37.3324 96.4153 38.5347 94.6399C39.7439 92.8544 40.9736 91.219 41.9884 90.0728C42.5051 89.4893 42.8793 89.1319 43.1009 88.9539C43.212 88.8647 43.1988 88.8906 43.0743 88.9545C42.9937 88.9958 42.5145 89.2412 41.7697 89.2412V81.2412C40.7254 81.2412 39.8958 81.5937 39.4215 81.8371C38.9034 82.103 38.4533 82.4258 38.0917 82.7163C37.3679 83.2975 36.6536 84.03 35.9989 84.7695C34.671 86.2692 33.2262 88.2117 31.9108 90.154C30.5885 92.1064 29.3265 94.1631 28.3774 95.9296C27.9057 96.8077 27.4794 97.6732 27.1595 98.4528C26.916 99.0464 26.473 100.181 26.473 101.352H34.473ZM41.7697 89.2412C40.8491 89.2412 40.2125 88.9033 39.976 88.7625C39.7086 88.6032 39.5621 88.4597 39.5441 88.4422C39.5084 88.4076 39.6002 88.4951 39.8288 88.8182C40.2668 89.4372 40.8664 90.431 41.6102 91.7794C43.0821 94.4479 44.8696 98.0464 46.698 101.751C48.5011 105.405 50.3461 109.166 51.8677 112.005C52.6222 113.412 53.3553 114.703 54.0048 115.676C54.3194 116.147 54.7028 116.678 55.1333 117.135C55.3458 117.36 55.672 117.677 56.102 117.964C56.4734 118.212 57.3389 118.721 58.5436 118.721V110.721C59.6198 110.721 60.3369 111.173 60.5411 111.309C60.8038 111.484 60.9439 111.636 60.9528 111.645C60.976 111.67 60.8816 111.568 60.658 111.233C60.231 110.594 59.6456 109.581 58.9185 108.225C57.4769 105.536 55.7061 101.927 53.872 98.2109C52.0632 94.546 50.1921 90.7744 48.6152 87.9155C47.8345 86.5002 47.0622 85.1908 46.3596 84.1976C46.0178 83.7146 45.5971 83.1688 45.1167 82.7024C44.8763 82.4689 44.5243 82.1599 44.0696 81.8891C43.6458 81.6367 42.8401 81.2412 41.7697 81.2412V89.2412ZM58.5436 118.721C59.7441 118.721 60.6073 118.215 60.9741 117.972C61.4015 117.689 61.7273 117.376 61.9404 117.153C62.3721 116.701 62.7592 116.174 63.0786 115.704C63.7376 114.735 64.4856 113.447 65.2582 112.042C66.815 109.209 68.7152 105.447 70.5781 101.801C72.469 98.1001 74.3252 94.5113 75.8669 91.8559C76.6462 90.5136 77.2749 89.5332 77.7349 88.9278C77.9735 88.6137 78.069 88.5316 78.0298 88.5662C78.0076 88.5859 77.8627 88.7144 77.6026 88.8534C77.3594 88.9834 76.7954 89.2412 76.0021 89.2412V81.2412C74.2469 81.2412 73.0606 82.2807 72.7247 82.5783C72.1981 83.0448 71.7387 83.596 71.3649 84.0881C70.6 85.0948 69.7738 86.4176 68.9484 87.839C67.2809 90.7111 65.3287 94.4922 63.4541 98.1612C61.5514 101.885 59.7288 105.493 58.2474 108.188C57.501 109.546 56.9011 110.562 56.4636 111.205C56.2348 111.541 56.1365 111.647 56.1557 111.627C56.1624 111.62 56.3002 111.472 56.5591 111.301C56.7573 111.17 57.4714 110.721 58.5436 110.721V118.721ZM76.0021 89.2412C75.0004 89.2412 74.5564 88.7671 75.0074 89.0862C75.2653 89.2687 75.6803 89.6216 76.2409 90.1877C77.3462 91.3037 78.6768 92.9003 79.9804 94.6544C81.2777 96.4 82.4698 98.1958 83.3167 99.6703C83.743 100.413 84.0452 101.01 84.2283 101.44C84.4782 102.027 84.3257 101.886 84.3257 101.352H92.3257C92.3257 100.133 91.8737 98.9748 91.5887 98.3055C91.237 97.4795 90.7689 96.5826 90.2538 95.6858C89.218 93.8824 87.8426 91.8218 86.4014 89.8824C84.9663 87.9515 83.3872 86.0345 81.925 84.5582C81.2019 83.8281 80.4188 83.1151 79.6283 82.5558C79.031 82.1331 77.6883 81.2412 76.0021 81.2412V89.2412ZM84.3257 101.352C84.3257 99.6596 85.6562 99.1752 85.1411 99.4435C84.8407 99.5999 84.2083 99.8114 83.2612 100.001C82.3757 100.178 81.4549 100.291 80.7326 100.358C80.3776 100.392 80.0841 100.413 79.8841 100.425C79.7844 100.432 79.7087 100.436 79.6611 100.438C79.6373 100.439 79.6206 100.44 79.6115 100.44C79.6069 100.441 79.6043 100.441 79.6036 100.441C79.6033 100.441 79.6034 100.441 79.6041 100.441C79.6044 100.441 79.6049 100.441 79.6054 100.441C79.6057 100.441 79.6062 100.441 79.6064 100.441C79.6069 100.441 79.6075 100.441 79.7676 104.437C79.9277 108.434 79.9284 108.434 79.9291 108.434C79.9293 108.434 79.9301 108.434 79.9306 108.434C79.9317 108.434 79.933 108.434 79.9343 108.434C79.937 108.434 79.9403 108.434 79.9441 108.434C79.9516 108.433 79.9612 108.433 79.9729 108.432C79.9962 108.431 80.0275 108.43 80.0664 108.428C80.1442 108.424 80.2523 108.418 80.3866 108.409C80.6547 108.393 81.0298 108.365 81.4771 108.324C82.3594 108.241 83.5781 108.097 84.8322 107.845C86.0246 107.607 87.5317 107.218 88.8359 106.539C89.9254 105.972 92.3257 104.416 92.3257 101.352H84.3257ZM37.3196 46.5059C33.3196 46.5059 33.3196 46.5074 33.3197 46.509C33.3197 46.5097 33.3197 46.5115 33.3197 46.5129C33.3197 46.5157 33.3197 46.519 33.3197 46.5228C33.3197 46.5302 33.3197 46.5396 33.3198 46.5508C33.3199 46.5732 33.3202 46.6029 33.3206 46.6397C33.3214 46.7134 33.3231 46.8157 33.3261 46.9446C33.3323 47.2024 33.3443 47.5676 33.3676 48.0257C33.4143 48.941 33.5066 50.2327 33.6895 51.7841C34.0534 54.87 34.7855 59.0671 36.2753 63.4027C39.2194 71.9706 45.5415 82.0745 58.7314 83.7255L59.725 75.7875C51.0064 74.6961 46.3742 68.1748 43.8411 60.803C42.5923 57.1687 41.9552 53.5673 41.6344 50.8472C41.4751 49.4956 41.3962 48.3824 41.3573 47.6185C41.3378 47.2371 41.3284 46.9442 41.3239 46.7537C41.3216 46.6586 41.3205 46.5892 41.32 46.5472C41.3198 46.5263 41.3197 46.5122 41.3197 46.5052C41.3196 46.5017 41.3196 46.5 41.3196 46.5001C41.3196 46.5002 41.3196 46.5007 41.3196 46.5016C41.3196 46.5021 41.3196 46.5032 41.3196 46.5034C41.3196 46.5046 41.3196 46.5059 37.3196 46.5059ZM58.7314 83.7255C65.6606 84.5928 71.0161 81.9558 74.8608 77.7048C78.5436 73.6328 80.81 68.1476 82.2499 63.0111C83.7081 57.8093 84.4232 52.5779 84.7782 48.6907C84.9566 46.7363 85.0462 45.0966 85.0913 43.9377C85.1138 43.3578 85.1253 42.8969 85.1311 42.5756C85.134 42.4149 85.1355 42.2891 85.1363 42.2006C85.1367 42.1563 85.1369 42.1214 85.137 42.0962C85.137 42.0835 85.1371 42.0733 85.1371 42.0656C85.1371 42.0617 85.1371 42.0584 85.1371 42.0558C85.1371 42.0544 85.1371 42.0529 85.1371 42.0522C85.1371 42.0509 85.1371 42.0497 81.1371 42.0496C77.1371 42.0496 77.1371 42.0487 77.1371 42.0479C77.1371 42.0479 77.1371 42.0473 77.1371 42.0472C77.1371 42.047 77.1371 42.0474 77.1371 42.0484C77.1371 42.0505 77.1371 42.0549 77.1371 42.0617C77.137 42.0753 77.1369 42.0984 77.1366 42.1306C77.136 42.195 77.1348 42.2959 77.1324 42.4308C77.1275 42.7007 77.1176 43.1061 77.0973 43.6269C77.0568 44.6694 76.9752 46.1684 76.8113 47.9632C76.4815 51.5746 75.8273 56.284 74.5468 60.8517C73.2481 65.4848 71.4065 69.5977 68.9275 72.3386C66.6104 74.9006 63.7501 76.2913 59.725 75.7875L58.7314 83.7255Z" fill="#3A484E"/>
<rect x="83.8755" y="117.463" width="5.47718" height="16.4539" fill="#19793F"/>
<rect x="78.3983" y="122.948" width="16.4315" height="5.48463" fill="#19793F"/>
</svg>
