<svg fill="none" height="153" viewBox="0 0 118 153" width="118" xmlns="http://www.w3.org/2000/svg"><path d="m24.9011 44.2965c-2.1668.4304-3.5744 2.5358-3.144 4.7026.4304 2.1669 2.5359 3.5745 4.7027 3.1441zm43.6936-27.1174c-1.6193-1.5027-4.1502-1.4082-5.6529.2111s-1.4082 4.1502.2111 5.6529zm-33.1974 60.8005c2.0477-.8289 3.0357-3.1609 2.2068-5.2086-.8289-2.0478-3.1609-3.0358-5.2086-2.2069zm-18.9594 1.0913-3.1252 2.4967zm5.1348-18.1678-3.8404-1.1186zm10.2696-43.5343 3.376 2.1454zm54.0873-1.714-3.029 2.6125zm10.9543 45.2483 3.8591-1.0511zm5.1351 18.1678 4 .0001zm-14.3293-8.3909c-1.9837-.9721-4.3799-.152-5.352 1.8317-.9721 1.9838-.152 4.38 1.8317 5.3521zm-64.8502 81.97c2.2051-.132 3.8854-2.027 3.7529-4.233-.1325-2.205-2.0276-3.885-4.2327-3.753zm-18.38307-5.707 3.74595-1.402zm0-24.338 3.99549.19.00451-.095v-.095zm7.53117-24.3378-2.53506-3.0941zm83.523 46.5498c-2.2051-.133-4.1003 1.547-4.233 3.752-.1327 2.206 1.5474 4.101 3.7526 4.233zm18.0294 2.264-3.746-1.401zm0-24.542h-4v.095l.005.095zm-7.583-24.5426-2.538 3.0926zm-66.8908 10.4296c2.2026.169 4.1258-1.479 4.2954-3.681.1697-2.203-1.4784-4.126-3.681-4.296zm40.5413-7.985c-2.2073.088-3.9251 1.949-3.8367 4.157.0885 2.207 1.9496 3.925 4.1569 3.836zm-38.2879-53.9351c0-2.2092-1.7908-4-4-4-2.2091 0-4 1.7908-4 4zm17.9086 33.2506-.4968 3.969zm25.9089-37.7068c0-2.2092-1.7908-4.0001-4-4.0001-2.2091 0-4 1.7908-4 4zm-59.4566 6.1701c.7793 3.9234.7796 3.9233.7802 3.9232.0004-.0001.0011-.0002.002-.0004.0017-.0003.0043-.0008.0075-.0015.0066-.0013.0162-.0032.0288-.0057.0251-.005.0623-.0125.1111-.0222.0976-.0195.2416-.0484.429-.0861.3747-.0755.9229-.1864 1.6198-.3289 1.3936-.285 3.3825-.6965 5.7686-1.2031 4.769-1.0126 11.1386-2.4086 17.5174-3.9378 6.3574-1.5241 12.8101-3.2008 17.709-4.7779 2.4263-.7811 4.6196-1.5842 6.2629-2.3833.8015-.3898 1.6641-.8694 2.3858-1.4576.4926-.4015 2.0418-1.729 2.0418-3.9466h-8c0-.9092.3467-1.547.5455-1.8399.1047-.1541.1988-.2591.2553-.3176.0577-.0597.0962-.0914.103-.0969.0082-.0067-.0482.0391-.2038.1319-.1499.0893-.3557.2007-.6263.3323-1.1275.5483-2.8923 1.2146-5.2157 1.9626-4.6006 1.481-10.8139 3.101-17.1225 4.6134-6.2872 1.5072-12.5835 2.8874-17.314 3.8919-2.3637.5018-4.3328.9092-5.7099 1.1908-.6885.1408-1.2288.2501-1.5962.3241-.1837.037-.3242.0652-.4183.084-.0471.0094-.0826.0165-.1061.0212-.0118.0023-.0205.0041-.0262.0052-.0029.0006-.005.001-.0063.0012-.0007.0002-.0011.0003-.0015.0003-.0002.0001-.0003.0001.7791 3.9234zm54.6639-14.2279c0-1.2911-.3872-2.4719-.7766-3.3753-.4084-.9474-.9475-1.8794-1.5148-2.7442-1.1339-1.7288-2.586-3.4981-3.9521-5.0375-1.3811-1.5563-2.7516-2.9638-3.7707-3.9771-.5116-.5086-.9393-.9226-1.2417-1.2118-.1513-.1447-.2716-.2585-.3555-.3375-.042-.0395-.0749-.0703-.0982-.0921-.0116-.0108-.0208-.0194-.0275-.0257-.0034-.0031-.0061-.0056-.0082-.0076-.001-.0009-.0019-.0018-.0027-.0025-.0003-.0003-.0008-.0007-.0009-.0009-.0004-.0003-.0008-.0006-2.7217 2.9314s-2.7211 2.9318-2.7214 2.9315c0 0-.0002-.0002-.0002-.0002-.0001-.0001 0 0 .0002.0002.0004.0004.0015.0014.0032.0029.0033.0032.0091.0086.0173.0162.0164.0153.0422.0395.077.0722.0694.0654.1741.1644.3091.2936.2702.2584.6605.636 1.1306 1.1034.9441.9387 2.1912 2.2207 3.4277 3.614 1.2515 1.4103 2.4171 2.851 3.2464 4.1152.4143.6318.6933 1.1421.8575 1.5231.1832.425.1232.4588.1232.2087zm-46.448 40.28c-1.5009-3.7078-1.5008-3.7078-1.5007-3.7079 0 .0001 0 0-.0001.0001-.0002.0001-.0006.0002-.0013.0005-.0013.0006-.0037.0015-.0069.0028-.0066.0027-.0169.0068-.0309.0124-.028.0113-.0707.0285-.1271.051-.1129.0452-.2807.1121-.4959.197-.4306.1701-1.0501.4122-1.7987.6979-1.5015.573-3.5026 1.3137-5.5323 1.9981-2.0577.6939-4.029 1.2901-5.5084 1.6116-.7621.1656-1.2154.2178-1.4114.2226-.1035.0026.0368-.0139.3125.0525.2271.0546 1.0685.2883 1.7678 1.1637l-6.2503 4.9934c.8706 1.0897 1.9981 1.4734 2.6113 1.6209.6618.1593 1.2881.1786 1.7557.1671.9459-.0233 1.9743-.1987 2.913-.4027 1.9225-.4177 4.2303-1.1283 6.366-1.8484 2.1638-.7297 4.2706-1.5101 5.8286-2.1047.7812-.2981 1.4294-.5514 1.8839-.7309.2274-.0897.4066-.1611.5301-.2106.0618-.0247.1096-.0439.1426-.0571.0164-.0067.0292-.0118.0382-.0154.0044-.0018.008-.0033.0105-.0043.0013-.0005.0023-.0009.0031-.0012.0004-.0002.0008-.0004.001-.0004.0003-.0002.0006-.0003-1.5003-3.708zm-14.3334 2.3023c.3131.3919.4597.7667.5276 1.005.0663.2329.0731.3884.0741.4179.0013.0363-.0039-.1148.082-.5405.1705-.846.5472-2.0645 1.1218-3.7052 1.0806-3.0862 2.8082-7.4846 4.0446-11.7297l-7.6808-2.2372c-1.1598 3.9818-2.6843 7.8103-3.9143 11.3229-.5808 1.6586-1.1241 3.3324-1.4136 4.7681-.1441.7151-.2642 1.5522-.2349 2.3987.0271.7829.1972 2.1093 1.1432 3.2934zm5.8501-14.5525c1.2709-4.3634 2.7198-13.8207 4.3275-22.4067.8292-4.4289 1.7174-8.75 2.6799-12.3992.9963-3.7771 1.9629-6.3879 2.7978-7.7016l-6.752-4.2908c-1.5614 2.4569-2.777 6.1449-3.7812 9.9521-1.0379 3.935-1.9684 8.4835-2.8079 12.9672-1.7299 9.239-3.0195 17.7782-4.1449 21.6418zm9.8052-42.5075c2.1062-3.3144 4.8133-6.1414 8.4503-8.1607 3.6377-2.01963 8.4257-3.3535 14.8751-3.3535v-8c-7.5859 0-13.7523 1.57985-18.7584 4.35923-5.0067 2.77977-8.6327 6.63717-11.319 10.86417zm23.3254-11.5142c6.6311 0 11.239.97215 14.8436 2.6325 3.5873 1.6524 6.4873 4.1263 9.5133 7.6348l6.058-5.2249c-3.4783-4.03292-7.2536-7.38644-12.2243-9.67609-4.9535-2.28172-10.7865-3.36631-18.1906-3.36631zm24.3569 10.2673c1.0183 1.1808 2.1988 3.7416 3.3565 7.7011 1.1108 3.7989 2.0545 8.3458 2.8799 13.0078.8241 4.6553 1.5099 9.305 2.1299 13.3428.6011 3.9152 1.1704 7.4791 1.7576 9.6351l7.7185-2.1021c-.439-1.6146-.9397-4.6495-1.5688-8.747-.6102-3.9748-1.315-8.7518-2.1597-13.5233-.8435-4.7647-1.8468-9.6445-3.0788-13.8584-1.1851-4.0531-2.7433-8.091-4.9771-10.6809zm10.1239 43.6868c1.0573 3.8823 2.391 7.8054 3.3869 10.9216.5101 1.5962.9283 2.968 1.2179 4.1038.3082 1.2086.3895 1.8502.3895 2.0914l8.0002.0001c0-1.3014-.304-2.7593-.638-4.0681-.352-1.3817-.832-2.9449-1.349-4.5624-1.058-3.3111-2.292-6.9294-3.289-10.5885zm4.9943 17.1168c0-.7678.294-1.7151 1.0672-2.4482.6556-.6216 1.326-.7714 1.529-.8082.344-.0623.339.0204-.317-.1124-1.1428-.2314-2.8799-.8159-4.857-1.5951-1.9187-.7563-3.8582-1.6131-5.3316-2.2881-.7333-.3358-1.3434-.6231-1.7683-.8255-.2123-.1012-.378-.1809-.4893-.2347-.0556-.0269-.0975-.0473-.1249-.0606-.0137-.0067-.0237-.0116-.0299-.0146-.0031-.0015-.0053-.0026-.0065-.0032-.0006-.0003-.001-.0005-.0011-.0005-.0001-.0001 0 0 0 0 .0001 0 .0003.0002-1.7598 3.5921-1.7602 3.5919-1.7598 3.5921-1.7594 3.5923.0002.0001.0006.0003.0011.0005.0008.0004.0019.0009.0033.0016.0026.0013.0063.0031.0109.0054.0092.0045.0223.0108.0391.019.0335.0163.0819.0398.1441.0699.1245.0602.3044.1468.5321.2553.4549.2167 1.1017.5212 1.8769.8763 1.5433.7069 3.6261 1.6283 5.7297 2.4575 2.0452.8061 4.3304 1.6142 6.2039 1.9934.8525.1725 2.1057.365 3.3287.1434.643-.1165 1.659-.4133 2.55-1.2583 1.009-.9565 1.429-2.2038 1.429-3.3572zm-75.4192 69.5861c-.2399-3.993-.2397-3.993-.2395-3.993h.0001c-.0001 0-.0005 0-.0011.001-.0012 0-.0034 0-.0067 0-.0065 0-.017.001-.0314.002-.0288.001-.0732.004-.1321.007-.118.007-.2941.016-.5203.027-.4527.022-1.1047.05-1.8916.076-1.58.053-3.6765.093-5.7861.052-2.1455-.041-4.1526-.166-5.61376-.407-.74889-.124-1.15924-.249-1.31688-.314-.38045-.157.64906.116 1.14212 1.433l-7.491893 2.805c.749803 2.002 2.538843 2.843 3.290993 3.154.97497.404 2.07031.649 3.07048.814 2.03695.337 4.50144.47 6.76334.514 2.2979.045 4.5446 0 6.2059-.055.8338-.028 1.5271-.058 2.0144-.082.2438-.011.4364-.022.5697-.029.0666-.003.1185-.006.1545-.008.018-.001.0321-.002.0421-.003.005 0 .0089 0 .0119-.001h.0036.0012c.0005 0 .0009 0-.239-3.993zm-14.39722-3.116c.09313.248.01991.142-.05428-.759-.0605-.735-.1024-1.711-.12572-2.878-.04647-2.327-.0158-5.218.04794-8.069.06353-2.841.15897-5.603.23869-7.657.03982-1.027.07565-1.874.10148-2.465.01291-.295.02332-.525.03047-.682.00358-.078.00635-.137.0082-.177.00093-.02.00163-.035.0021-.045.00023-.005.0004-.008.00051-.011.00006-.001.0001-.002.00012-.002.00001 0 .00002-.001.00002-.001.00001 0 .00001 0-3.99548-.19-3.995483-.19-3.995492-.19-3.995505-.189-.000009 0-.000026 0-.000045.001-.000038 0-.000091.002-.00016.003-.000137.003-.000335.007-.000594.013-.000516.011-.001273.027-.002256.048-.001967.042-.004844.104-.008537.185-.007386.161-.018036.397-.031199.698-.026321.601-.062705 1.462-.103112 2.503-.080747 2.081-.177869 4.89-.2427051 7.79-.0646341 2.89-.0981538 5.912-.0483411 8.406.0248206 1.243.071174 2.404.1510832 3.375.066216.805.185551 1.974.535429 2.908zm-3.74595-22.936c4 0 4 .001 4 .002v.001s0-.001.00001-.003c.00001-.004.00005-.013.00013-.025.00017-.026.00054-.068.00133-.126.00157-.115.00484-.293.01157-.526.01348-.466.04081-1.151.09611-1.997.11107-1.698.33268-4.01.7709-6.483.44105-2.489 1.08322-5.036 1.99562-7.251.9277-2.252 2.0184-3.875 3.1905-4.836l-5.07006-6.1879c-2.59348 2.1248-4.32697 5.0869-5.5174 7.9769-1.20573 2.926-1.97563 6.078-2.47597 8.902-.503176 2.84-.752257 5.456-.876541 7.357-.062375.954-.093882 1.737-.109818 2.288-.007974.276-.012067.494-.014167.648-.001051.077-.001604.138-.001894.181-.000145.022-.000225.04-.000268.053-.000022.007-.000034.012-.000042.016-.000003.003-.000005.005-.000007.006 0 .001-.000001.002-.000001.002 0 .001 0 .002 3.999998.002zm10.06617-21.244c3.039-2.4895 8.4482-4.463 13.6289-5.8237 2.4942-.6551 4.7713-1.1278 6.425-1.4364.8249-.1539 1.4899-.2661 1.9435-.3391.2267-.0364.4002-.063.5142-.0801.0569-.0086.0989-.0147.1252-.0185.0131-.0019.0223-.0033.0275-.004.0026-.0004.0042-.0006.0047-.0007.0003 0 .0003 0 .0001 0s-.0005.0001-.0006.0001c-.0004.0001-.0009.0001-.5563-3.9611-.5553-3.9613-.5559-3.9612-.5566-3.9611-.0003 0-.0011.0001-.0018.0002-.0012.0002-.0028.0004-.0046.0007-.0036.0005-.0082.0012-.0139.002-.0114.0016-.0268.0038-.0463.0066-.039.0057-.094.0137-.1642.0243-.1405.0211-.3421.052-.5981.0932-.5119.0824-1.2429.2058-2.1402.3733-1.791.3341-4.2636.847-6.9899 1.563-5.2601 1.3816-12.1746 3.6931-16.66666 7.3734zm80.7478 47.449c-.2402 3.992-.2399 3.992-.2394 3.992.0002 0 .0007 0 .0012.001h.0037.0119c.0101.001.0242.002.0424.003.0362.002.0884.005.1555.009.1342.007.3281.017.5735.029.4907.024 1.1887.054 2.0281.082 1.6728.056 3.9347.101 6.2477.056 2.278-.045 4.758-.178 6.808-.518 1.006-.166 2.107-.413 3.087-.819.757-.314 2.547-1.158 3.297-3.163l-7.493-2.802c.491-1.313 1.516-1.585 1.133-1.426-.161.067-.576.193-1.331.318-1.473.244-3.496.369-5.656.411-2.125.042-4.2368 0-5.828-.052-.7926-.027-1.4492-.055-1.9052-.078-.2279-.011-.4053-.02-.5241-.026-.0594-.004-.1041-.006-.1331-.008-.0145-.001-.0251-.001-.0317-.002-.0032 0-.0055 0-.0067 0-.0006 0-.001 0-.0011 0h.0001c.0002 0 .0004 0-.2398 3.993zm22.0166-.328c.35-.936.47-2.11.537-2.922.08-.977.127-2.148.152-3.4.05-2.515.016-5.561-.049-8.476-.065-2.924-.163-5.756-.244-7.854-.041-1.05-.077-1.918-.104-2.525-.013-.303-.024-.541-.031-.704-.004-.081-.007-.143-.009-.186-.001-.021-.002-.037-.002-.048-.001-.006-.001-.01-.001-.013 0-.002 0-.003 0-.004 0-.001 0-.001-3.996.189-3.995.19-3.995.19-3.995.19v.003c0 .002 0 .006.001.011 0 .01.001.025.002.045.002.04.004.1.008.179.007.157.018.39.031.688.026.595.062 1.45.102 2.485.08 2.071.176 4.856.24 7.722.064 2.875.095 5.791.048 8.138-.023 1.178-.065 2.163-.126 2.905-.075.909-.149 1.02-.057.775zm-3.747-25.943c4 0 4-.001 4-.002 0 0 0-.001 0-.002 0-.002 0-.004 0-.006 0-.004 0-.01 0-.017 0-.013 0-.031 0-.052 0-.044-.001-.106-.002-.183-.002-.155-.006-.375-.014-.653-.016-.555-.048-1.344-.111-2.306-.125-1.915-.375-4.552-.882-7.414-.503-2.846-1.278-6.021-2.491-8.97-1.197-2.911-2.94-5.8918-5.546-8.03l-5.075 6.185c1.186.973 2.287 2.615 3.223 4.889.92 2.237 1.567 4.808 2.012 7.32.441 2.496.665 4.828.776 6.542.056.853.084 1.544.097 2.015.007.235.01.415.012.531.001.058.001.101.001.127v.026.003s0 0 0-.001v-.001s0-.001 4-.001zm-5.046-27.635c-4.519-3.7071-11.4767-6.037-16.7737-7.4302-2.7446-.7219-5.234-1.2389-7.0371-1.5758-.9034-.1688-1.6393-.2933-2.1546-.3763-.2578-.0415-.4606-.0727-.602-.094-.0707-.0106-.1261-.0187-.1653-.0244-.0196-.0028-.0351-.0051-.0466-.0067-.0057-.0008-.0103-.0015-.0139-.002-.0019-.0003-.0034-.0005-.0047-.0006-.0006-.0001-.0014-.0002-.0017-.0003-.0007-.0001-.0014-.0002-.5575 3.961-.556 3.9611-.5565 3.9611-.557 3.961 0 0-.0004-.0001-.0005-.0001-.0003 0-.0002 0 0 0 .0006.0001.0022.0003.0048.0007.0052.0008.0145.0021.0277.004.0265.0039.0689.0101.1263.0187.1148.0172.2896.0441.5179.0809.457.0736 1.1268.1868 1.9578.342 1.6656.3112 3.9592.788 6.4715 1.4488 5.2169 1.3721 10.6686 3.3632 13.7336 5.8783zm-69.1206 9.533c.3072-3.988.3077-3.988.3082-3.988h.0007.0009c.0004 0 .0002 0-.0005 0-.0014 0-.0049 0-.0104 0-.0109-.001-.0298-.003-.056-.005-.0526-.005-.1347-.012-.2419-.022-.215-.021-.5287-.054-.9074-.1-.7678-.093-1.7561-.237-2.7149-.4405-1.0145-.2149-1.7547-.447-2.1533-.6389-.2046-.0985-.0956-.0819.1138.1318.2434.2485.7604.9256.7604 1.9776h-8c0 1.652.7951 2.876 1.5253 3.621.6962.711 1.5005 1.175 2.1303 1.478 1.2702.611 2.7552 1 3.9657 1.257 1.2664.268 2.5031.446 3.4042.555.4557.056.8374.096 1.1091.122.1361.013.2453.023.3231.029.0389.004.07.006.0928.008.0113.001.0206.002.0278.002.0036.001.0066.001.0091.001h.0033c.0005 0 .0011.001.0014.001.0006 0 .0011 0 .3083-3.989zm-4.9004-3.085c0 .572-.1648.753.0878.137.1762-.429.4639-1.028.864-1.7733.7947-1.4793 1.9076-3.3004 3.1099-5.0758 1.2092-1.7855 2.4389-3.4209 3.4537-4.5671.5167-.5835.8909-.9409 1.1125-1.1189.1111-.0892.0979-.0633-.0266.0006-.0806.0413-.5598.2867-1.3046.2867v-8c-1.0443 0-1.8739.3525-2.3482.5959-.5181.2659-.9682.5887-1.3298.8792-.7238.5812-1.4381 1.3137-2.0928 2.0532-1.3279 1.4997-2.7727 3.4422-4.0881 5.3845-1.3223 1.9524-2.5843 4.0091-3.5334 5.7756-.4717.8781-.898 1.7436-1.2179 2.5232-.2435.5936-.6865 1.7282-.6865 2.8992zm7.2967-12.1108c-.9206 0-1.5572-.3379-1.7937-.4787-.2674-.1593-.4139-.3028-.4319-.3203-.0357-.0346.0561.0529.2847.376.438.619 1.0376 1.6128 1.7814 2.9612 1.4719 2.6685 3.2594 6.267 5.0878 9.9716 1.8031 3.654 3.6481 7.415 5.1697 10.254.7545 1.407 1.4876 2.698 2.1371 3.671.3146.471.698 1.002 1.1285 1.459.2125.225.5387.542.9687.829.3714.248 1.2369.757 2.4416.757v-8c1.0762 0 1.7933.452 1.9975.588.2627.175.4028.327.4117.336.0232.025-.0712-.077-.2948-.412-.427-.639-1.0124-1.652-1.7395-3.008-1.4416-2.689-3.2124-6.298-5.0465-10.0141-1.8088-3.6649-3.6799-7.4365-5.2568-10.2954-.7807-1.4153-1.553-2.7247-2.2556-3.7179-.3418-.483-.7625-1.0288-1.2429-1.4952-.2404-.2335-.5924-.5425-1.0471-.8133-.4238-.2524-1.2295-.6479-2.2999-.6479zm16.7739 29.4798c1.2005 0 2.0637-.506 2.4305-.749.4274-.283.7532-.596.9663-.819.4317-.452.8188-.979 1.1382-1.449.659-.969 1.407-2.257 2.1796-3.662 1.5568-2.833 3.457-6.595 5.3199-10.241 1.8909-3.7009 3.7471-7.2897 5.2888-9.9451.7793-1.3423 1.408-2.3227 1.868-2.9281.2386-.3141.3341-.3962.2949-.3616-.0222.0197-.1671.1482-.4272.2872-.2432.13-.8072.3878-1.6005.3878v-8c-1.7552 0-2.9415 1.0395-3.2774 1.3371-.5266.4665-.986 1.0177-1.3598 1.5098-.7649 1.0067-1.5911 2.3295-2.4165 3.7509-1.6675 2.8721-3.6197 6.6532-5.4943 10.3222-1.9027 3.7238-3.7253 7.3318-5.2067 10.0268-.7464 1.358-1.3463 2.374-1.7838 3.017-.2288.336-.3271.442-.3079.422.0067-.007.1445-.155.4034-.326.1982-.131.9123-.58 1.9845-.58zm17.4585-29.4798c-1.0017 0-1.4457-.4741-.9947-.155.2579.1825.6729.5354 1.2335 1.1015 1.1053 1.116 2.4359 2.7126 3.7395 4.4667 1.2973 1.7456 2.4894 3.5414 3.3363 5.0159.4263.7427.7285 1.3397.9116 1.7697.2499.587.0974.446.0974-.088h8c0-1.219-.452-2.3772-.737-3.0465-.3517-.826-.8198-1.7229-1.3349-2.6197-1.0358-1.8034-2.4112-3.864-3.8524-5.8034-1.4351-1.9309-3.0142-3.8479-4.4764-5.3242-.7231-.7301-1.5062-1.4431-2.2967-2.0024-.5973-.4227-1.94-1.3146-3.6262-1.3146zm8.3236 12.1108c0-1.6924 1.3305-2.1768.8154-1.9085-.3004.1564-.9328.3679-1.8799.5575-.8855.177-1.8063.29-2.5286.357-.355.034-.6485.055-.8485.067-.0997.007-.1754.011-.223.013-.0238.001-.0405.002-.0496.002-.0046.001-.0072.001-.0079.001h.0005.0013.001c.0005 0 .0011 0 .1612 3.996.1601 3.997.1608 3.997.1615 3.997h.0015.0037.0098c.0075-.001.0171-.001.0288-.002.0233-.001.0546-.002.0935-.004.0778-.004.1859-.01.3202-.019.2681-.016.6432-.044 1.0905-.085.8823-.083 2.101-.227 3.3551-.479 1.1924-.238 2.6995-.627 4.0037-1.306 1.0895-.567 3.4898-2.123 3.4898-5.187zm-47.0061-54.8461c-4 0-4 .0015-3.9999.0031v.0039.0099c0 .0074 0 .0168.0001.028.0001.0224.0004.0521.0008.0889.0008.0737.0025.176.0055.3049.0062.2578.0182.623.0415 1.0811.0467.9153.139 2.207.3219 3.7584.3639 3.0859 1.096 7.283 2.5858 11.6186 2.9441 8.5679 9.2662 18.6718 22.4561 20.3228l.9936-7.938c-8.7186-1.0914-13.3508-7.6127-15.8839-14.9845-1.2488-3.6343-1.8859-7.2357-2.2067-9.9558-.1593-1.3516-.2382-2.4648-.2771-3.2287-.0195-.3814-.0289-.6743-.0334-.8648-.0023-.0951-.0034-.1645-.0039-.2065-.0002-.0209-.0003-.035-.0003-.042-.0001-.0035-.0001-.0052-.0001-.0051v.0015.0018c0 .0012 0 .0025-4 .0025zm21.4118 37.2196c6.9292.8673 12.2847-1.7697 16.1294-6.0207 3.6828-4.072 5.9492-9.5572 7.3891-14.6937 1.4582-5.2018 2.1733-10.4332 2.5283-14.3204.1784-1.9544.268-3.5941.3131-4.753.0225-.5799.034-1.0408.0398-1.3621.0029-.1607.0044-.2865.0052-.375.0004-.0443.0006-.0792.0007-.1044 0-.0127.0001-.0229.0001-.0306 0-.0039 0-.0072 0-.0098 0-.0014 0-.0029 0-.0036 0-.0013 0-.0025-4-.0026-4 0-4-.0009-4-.0017 0 0 0-.0006 0-.0007 0-.0002 0 .0002 0 .0012v.0133c-.0001.0136-.0002.0367-.0005.0689-.0006.0644-.0018.1653-.0042.3002-.0049.2699-.0148.6753-.0351 1.1961-.0405 1.0425-.1221 2.5415-.286 4.3363-.3298 3.6114-.984 8.3208-2.2645 12.8885-1.2987 4.6331-3.1403 8.746-5.6193 11.4869-2.3171 2.562-5.1774 3.9527-9.2025 3.4489z" fill="#3a484e"/><g fill="#19793f"><path d="m83.8755 117.463h5.47718v16.4539h-5.47718z"/><path d="m78.3983 122.948h16.4315v5.48463h-16.4315z"/></g></svg>