<svg width="40" height="41" viewBox="0 0 40 41" fill="none" xmlns="http://www.w3.org/2000/svg">
<circle cx="20" cy="20.6665" r="18" stroke="white" stroke-width="4"/>
<path d="M21.0664 23.4517H18.0781C18.0859 22.7485 18.1406 22.1431 18.2422 21.6353C18.3516 21.1196 18.5352 20.6548 18.793 20.2407C19.0586 19.8267 19.4102 19.4165 19.8477 19.0103C20.2148 18.6821 20.5352 18.3696 20.8086 18.0728C21.082 17.7759 21.2969 17.4712 21.4531 17.1587C21.6094 16.8384 21.6875 16.4829 21.6875 16.0923C21.6875 15.6392 21.6172 15.2642 21.4766 14.9673C21.3438 14.6626 21.1406 14.4321 20.8672 14.2759C20.6016 14.1196 20.2656 14.0415 19.8594 14.0415C19.5234 14.0415 19.2109 14.1157 18.9219 14.2642C18.6328 14.4048 18.3945 14.6235 18.207 14.9204C18.0273 15.2173 17.9336 15.6079 17.9258 16.0923H14.5273C14.5508 15.022 14.7969 14.1392 15.2656 13.4438C15.7422 12.7407 16.3789 12.2212 17.1758 11.8853C17.9727 11.5415 18.8672 11.3696 19.8594 11.3696C20.9531 11.3696 21.8906 11.5493 22.6719 11.9087C23.4531 12.2603 24.0508 12.7798 24.4648 13.4673C24.8789 14.147 25.0859 14.9751 25.0859 15.9517C25.0859 16.6313 24.9531 17.2368 24.6875 17.7681C24.4219 18.2915 24.0742 18.7798 23.6445 19.2329C23.2148 19.686 22.7422 20.1548 22.2266 20.6392C21.7812 21.0376 21.4766 21.4556 21.3125 21.8931C21.1562 22.3306 21.0742 22.8501 21.0664 23.4517ZM17.7266 27.0728C17.7266 26.5728 17.8984 26.1587 18.2422 25.8306C18.5859 25.4946 19.0469 25.3267 19.625 25.3267C20.1953 25.3267 20.6523 25.4946 20.9961 25.8306C21.3477 26.1587 21.5234 26.5728 21.5234 27.0728C21.5234 27.5571 21.3477 27.9673 20.9961 28.3032C20.6523 28.6392 20.1953 28.8071 19.625 28.8071C19.0469 28.8071 18.5859 28.6392 18.2422 28.3032C17.8984 27.9673 17.7266 27.5571 17.7266 27.0728Z" fill="white"/>
</svg>
